<svg width="18" height="18" viewBox="0 0 18 18" fill="none" xmlns="http://www.w3.org/2000/svg">
<path d="M1.63672 10.5H6.5459C7.07273 10.5002 7.49976 10.9273 7.5 11.4541V16.3633C7.5 16.8903 7.07287 17.3181 6.5459 17.3184H1.63672C1.10954 17.3184 0.681641 16.8905 0.681641 16.3633V11.4541C0.68188 10.9271 1.10969 10.5 1.63672 10.5ZM11.4541 10.5H16.3633C16.8903 10.5 17.3181 10.9271 17.3184 11.4541V16.3633C17.3184 16.8905 16.8905 17.3184 16.3633 17.3184H11.4541C10.9271 17.3181 10.5 16.8903 10.5 16.3633V11.4541C10.5002 10.9273 10.9273 10.5002 11.4541 10.5ZM1.63672 0.681641H6.5459C7.07288 0.68188 7.5 1.10969 7.5 1.63672V6.5459C7.49976 7.07273 7.07273 7.49976 6.5459 7.5H1.63672C1.10969 7.5 0.68188 7.07288 0.681641 6.5459V1.63672C0.681641 1.10954 1.10954 0.681641 1.63672 0.681641ZM11.4541 0.681641H16.3633C16.8905 0.681641 17.3184 1.10954 17.3184 1.63672V6.5459C17.3181 7.07287 16.8903 7.5 16.3633 7.5H11.4541C10.9273 7.49976 10.5002 7.07273 10.5 6.5459V1.63672C10.5 1.10969 10.9271 0.68188 11.4541 0.681641Z" stroke="white" stroke-width="1.36364"/>
</svg>
