<svg width="20" height="20" viewBox="0 0 20 20" fill="none" xmlns="http://www.w3.org/2000/svg">
<path d="M9.08301 15.5H10.9163V13.6667H9.08301V15.5ZM9.99967 0.833344C4.93967 0.833344 0.833008 4.94001 0.833008 10C0.833008 15.06 4.93967 19.1667 9.99967 19.1667C15.0597 19.1667 19.1663 15.06 19.1663 10C19.1663 4.94001 15.0597 0.833344 9.99967 0.833344ZM9.99967 17.3333C5.95717 17.3333 2.66634 14.0425 2.66634 10C2.66634 5.95751 5.95717 2.66668 9.99967 2.66668C14.0422 2.66668 17.333 5.95751 17.333 10C17.333 14.0425 14.0422 17.3333 9.99967 17.3333ZM9.99967 4.50001C7.97384 4.50001 6.33301 6.14084 6.33301 8.16668H8.16634C8.16634 7.15834 8.99134 6.33334 9.99967 6.33334C11.008 6.33334 11.833 7.15834 11.833 8.16668C11.833 10 9.08301 9.77084 9.08301 12.75H10.9163C10.9163 10.6875 13.6663 10.4583 13.6663 8.16668C13.6663 6.14084 12.0255 4.50001 9.99967 4.50001Z" fill="white"/>
</svg>
