<svg width="20" height="20" viewBox="0 0 20 20" fill="none" xmlns="http://www.w3.org/2000/svg">
<path d="M14.2545 10.9167C14.942 10.9167 15.547 10.5408 15.8587 9.9725L19.1403 4.02333C19.4795 3.41833 19.0395 2.66666 18.3428 2.66666H4.77616L3.91449 0.833328H0.916992V2.66666H2.75033L6.05033 9.62416L4.81283 11.8608C4.14366 13.0892 5.02366 14.5833 6.41699 14.5833H17.417V12.75H6.41699L7.42533 10.9167H14.2545ZM5.64699 4.49999H16.7845L14.2545 9.08333H7.81949L5.64699 4.49999ZM6.41699 15.5C5.40866 15.5 4.59283 16.325 4.59283 17.3333C4.59283 18.3417 5.40866 19.1667 6.41699 19.1667C7.42533 19.1667 8.25033 18.3417 8.25033 17.3333C8.25033 16.325 7.42533 15.5 6.41699 15.5ZM15.5837 15.5C14.5753 15.5 13.7595 16.325 13.7595 17.3333C13.7595 18.3417 14.5753 19.1667 15.5837 19.1667C16.592 19.1667 17.417 18.3417 17.417 17.3333C17.417 16.325 16.592 15.5 15.5837 15.5Z" fill="white"/>
</svg>
