<svg width="88" height="74" viewBox="0 0 88 74" fill="none" xmlns="http://www.w3.org/2000/svg">
<g opacity="0.7" clip-path="url(#clip0_1090_2153)">
<path d="M37.415 33.2803C37.572 33.2797 37.729 33.2792 37.8907 33.2786C38.4056 33.277 38.9205 33.2767 39.4354 33.2765C39.7967 33.2759 40.1579 33.2754 40.5192 33.2748C41.2752 33.2738 42.0313 33.2735 42.7874 33.2736C43.7506 33.2736 44.7138 33.2713 45.677 33.2684C46.4231 33.2665 47.1691 33.2662 47.9152 33.2663C48.27 33.2661 48.6248 33.2653 48.9796 33.264C53.2767 33.2497 57.1466 33.7331 60.3521 36.8865C60.4989 37.0348 60.6457 37.1831 60.797 37.3359C60.9091 37.4444 61.0213 37.5529 61.1368 37.6647C63.7792 40.4087 64.1808 44.1485 64.1834 47.7707C64.1842 48.0253 64.185 48.2798 64.1859 48.5343C64.1881 49.2218 64.1892 49.9093 64.19 50.5968C64.1905 51.0269 64.1911 51.457 64.1919 51.8872C64.1942 53.235 64.1958 54.5827 64.1965 55.9305C64.1972 57.4829 64.2002 59.0354 64.205 60.5878C64.2087 61.7907 64.2104 62.9935 64.2106 64.1964C64.2108 64.9136 64.2117 65.6309 64.2147 66.3482C64.2175 67.0225 64.2179 67.6968 64.2164 68.3711C64.2163 68.6178 64.217 68.8646 64.2187 69.1113C64.2371 72.0089 64.2371 72.0089 63.264 73.0083C62.3004 73.5909 61.4355 73.6661 60.3408 73.661C60.1954 73.6616 60.0501 73.6623 59.9004 73.6629C59.4145 73.6647 58.9287 73.664 58.4429 73.6633C58.0941 73.6641 57.7453 73.6649 57.3965 73.6659C56.4497 73.6682 55.503 73.6683 54.5563 73.6678C53.7657 73.6677 52.9751 73.6685 52.1845 73.6693C50.3192 73.6712 48.4539 73.6712 46.5886 73.6702C44.6649 73.6692 42.7412 73.6713 40.8175 73.6748C39.1653 73.6778 37.5131 73.6788 35.8609 73.6783C34.8744 73.678 33.8879 73.6784 32.9014 73.6807C31.9735 73.6828 31.0457 73.6825 30.1178 73.6803C29.7777 73.6799 29.4375 73.6804 29.0973 73.6818C28.6322 73.6835 28.1672 73.6822 27.7021 73.68C27.5681 73.6813 27.4342 73.6825 27.2962 73.6838C26.2251 73.6735 25.2478 73.499 24.4527 72.7249C23.948 71.8902 23.8018 71.1398 23.8012 70.1719C23.8002 69.9548 23.7993 69.7378 23.7983 69.5141C23.799 69.2756 23.7996 69.0371 23.8004 68.7986C23.7999 68.5458 23.7993 68.2929 23.7986 68.0401C23.7971 67.3546 23.7976 66.6691 23.7987 65.9836C23.7996 65.264 23.7988 64.5444 23.7982 63.8248C23.7976 62.615 23.7984 61.4052 23.8 60.1954C23.8019 58.8018 23.8013 57.4082 23.7994 56.0146C23.7979 54.8148 23.7977 53.6149 23.7986 52.4151C23.7991 51.7 23.7992 50.985 23.798 50.2699C23.7971 49.596 23.7978 48.9221 23.7997 48.2482C23.8001 48.0027 23.8 47.7572 23.7993 47.5117C23.7883 43.5444 24.5762 40.0054 27.4256 37.1089C27.6481 36.8887 27.6481 36.8887 27.8751 36.6641C27.9836 36.5519 28.092 36.4397 28.2038 36.3242C30.6695 33.9498 34.1148 33.2786 37.415 33.2803Z" fill="#A3E635"/>
<path d="M54.8655 4.94946C57.9441 8.12581 59.0535 12.1547 58.9939 16.4822C58.8935 19.6946 57.5941 22.87 55.4219 25.2422C55.3398 25.3457 55.2578 25.4492 55.1732 25.5558C52.9884 28.3098 49.2886 29.9596 45.8717 30.4111C41.999 30.8214 38.0913 29.9022 34.9717 27.5098C34.7328 27.315 34.4948 27.1191 34.2578 26.9219C34.1563 26.8428 34.0547 26.7638 33.9501 26.6824C31.4628 24.6892 29.4819 21.0582 29.0835 17.883C28.6948 13.5194 29.4502 9.45955 32.2573 5.99664C32.632 5.56723 33.0183 5.15626 33.418 4.74999C33.5457 4.62008 33.6735 4.49017 33.8051 4.35632C39.8449 -1.42609 49.0759 -0.511833 54.8655 4.94946Z" fill="#A3E635"/>
<path d="M67.8516 39.8555C68.9984 39.8382 70.1452 39.8266 71.2921 39.8186C71.6811 39.8152 72.0701 39.8106 72.4591 39.8048C75.2177 39.7642 77.8129 39.8035 80.3127 41.1257C80.4223 41.1825 80.5319 41.2393 80.6448 41.2978C83.4325 42.8098 85.4303 45.2749 86.4961 48.2539C86.5398 48.3758 86.5835 48.4977 86.6285 48.6233C87.1734 50.4394 87.0762 52.3077 87.0728 54.1859C87.0736 54.5665 87.0745 54.9471 87.0755 55.3277C87.077 56.1224 87.0766 56.9171 87.0749 57.7118C87.073 58.7265 87.0764 59.7411 87.0813 60.7558C87.0844 61.5407 87.0843 62.3256 87.0834 63.1105C87.0833 63.4845 87.0843 63.8585 87.0864 64.2325C87.1001 67.0744 86.8779 69.2201 84.8899 71.4021C84.7548 71.5233 84.6197 71.6446 84.4805 71.7695C84.3038 71.9358 84.3038 71.9358 84.1235 72.1055C81.9858 73.5926 79.6397 73.6689 77.1187 73.65C76.8693 73.6494 76.6198 73.6489 76.3704 73.6485C75.7209 73.6473 75.0715 73.644 74.4221 73.6402C73.7565 73.6368 73.091 73.6353 72.4254 73.6336C71.1248 73.63 69.8241 73.6243 68.5234 73.6172C68.5507 73.4207 68.5779 73.2242 68.6059 73.0217C68.688 72.3624 68.7134 71.7161 68.715 71.0511C68.7155 70.9358 68.716 70.8205 68.7165 70.7018C68.718 70.3195 68.7182 69.9373 68.7185 69.555C68.7192 69.2793 68.7201 69.0035 68.721 68.7277C68.7232 67.9812 68.7243 67.2346 68.725 66.488C68.7255 66.0205 68.7262 65.553 68.727 65.0854C68.7293 63.6193 68.7309 62.1533 68.7315 60.6872C68.7323 59.0009 68.7352 57.3146 68.7401 55.6284C68.7437 54.3209 68.7454 53.0135 68.7456 51.7061C68.7458 50.9271 68.7468 50.1481 68.7498 49.3691C68.7526 48.6352 68.7529 47.9014 68.7515 47.1675C68.7513 46.9001 68.7521 46.6328 68.7537 46.3654C68.764 44.6304 68.5875 43.0583 68.1875 41.3672C68.1208 41.0628 68.0542 40.7584 67.988 40.4538C67.943 40.2564 67.898 40.0589 67.8516 39.8555Z" fill="#A3E635"/>
<path d="M16.1171 39.8135C16.5095 39.8168 16.9018 39.8199 17.2942 39.8227C18.2456 39.83 19.197 39.8412 20.1483 39.8555C20.0785 40.1442 20.0785 40.1442 20.0073 40.4388C19.9458 40.6957 19.8843 40.9527 19.8229 41.2097C19.7923 41.3361 19.7616 41.4624 19.7301 41.5926C19.6854 41.7801 19.6854 41.7801 19.6398 41.9715C19.5989 42.1417 19.5989 42.1417 19.5572 42.3153C19.3673 43.2458 19.2875 44.1477 19.2872 45.0967C19.2869 45.2127 19.2866 45.3287 19.2864 45.4482C19.2857 45.8337 19.2862 46.2192 19.2868 46.6047C19.2865 46.8823 19.2862 47.16 19.2859 47.4377C19.2851 48.1897 19.2854 48.9417 19.2859 49.6938C19.2864 50.482 19.286 51.2703 19.2857 52.0585C19.2854 53.3822 19.2858 54.706 19.2866 56.0297C19.2875 57.5583 19.2872 59.0869 19.2863 60.6155C19.2855 61.9296 19.2854 63.2437 19.2859 64.5579C19.2861 65.342 19.2862 66.1261 19.2856 66.9102C19.2851 67.6477 19.2855 68.3851 19.2864 69.1226C19.2867 69.3926 19.2866 69.6626 19.2862 69.9326C19.2858 70.3025 19.2863 70.6723 19.2872 71.0421C19.2872 71.2486 19.2873 71.4552 19.2874 71.668C19.3104 72.3287 19.3855 72.9627 19.4765 73.6172C18.044 73.625 16.6115 73.631 15.1789 73.6346C14.5135 73.6363 13.8482 73.6387 13.1828 73.6425C12.5392 73.6462 11.8955 73.6482 11.2518 73.6491C11.0078 73.6497 10.7638 73.6509 10.5199 73.6527C8.58108 73.6667 6.70202 73.6379 4.95767 72.7144C4.67219 72.5669 4.67219 72.5669 4.38094 72.4165C2.70915 71.4272 1.61476 69.7901 1.07781 67.9302C0.997486 67.5591 0.977391 67.229 0.975189 66.8497C0.973987 66.7068 0.972785 66.564 0.971547 66.4168C0.971095 66.2614 0.970644 66.106 0.970178 65.9459C0.969075 65.7811 0.967971 65.6163 0.966834 65.4465C0.963521 64.9006 0.96156 64.3547 0.959885 63.8087C0.959201 63.6216 0.958516 63.4345 0.957811 63.2417C0.954306 62.2499 0.951905 61.2581 0.950331 60.2663C0.94848 59.2472 0.94271 58.228 0.936024 57.2089C0.931607 56.421 0.930224 55.6332 0.929623 54.8454C0.92881 54.47 0.926873 54.0947 0.923738 53.7194C0.892102 49.6785 1.69931 46.2687 4.60025 43.2964C7.90753 40.1573 11.7694 39.7479 16.1171 39.8135Z" fill="#A3E635"/>
<path d="M76.8057 16.3294C79.2779 18.2239 80.7601 20.6935 81.392 23.72C81.8219 27.1243 80.989 30.2366 78.8954 32.9583C76.9838 35.1383 74.2715 36.6338 71.3594 36.8596C68.2891 37.0197 65.3464 36.3575 62.9746 34.307C60.6223 32.1448 59.1228 29.452 58.915 26.2238C58.8692 22.9577 59.9124 19.9494 62.1825 17.5576C66.1815 13.762 72.2389 13.245 76.8057 16.3294Z" fill="#A3E635"/>
<path d="M17.2319 14.2973C20.1529 14.2076 22.9424 15.1372 25.1849 17.0288C27.4611 19.1726 28.8772 21.817 29.0882 24.9594C29.1766 28.4005 27.9898 31.2595 25.6599 33.7561C23.2818 36.0324 20.3216 36.9327 17.0928 36.878C14.212 36.7614 11.6221 35.4719 9.5664 33.4726C7.39224 31.0825 6.40403 28.182 6.49112 24.9804C6.66441 21.6851 8.23038 19.016 10.6221 16.8286C12.5154 15.2583 14.7991 14.4451 17.2319 14.2973Z" fill="#A3E635"/>
</g>
<defs>
<clipPath id="clip0_1090_2153">
<rect width="88" height="74" fill="white"/>
</clipPath>
</defs>
</svg>
