<svg width="88" height="74" viewBox="0 0 88 74" fill="none" xmlns="http://www.w3.org/2000/svg">
<g clip-path="url(#clip0_2413_2708)">
<path d="M37.4142 33.2802C37.5712 33.2797 37.7282 33.2791 37.89 33.2785C38.4049 33.2769 38.9198 33.2766 39.4347 33.2764C39.7959 33.2759 40.1572 33.2753 40.5185 33.2747C41.2745 33.2737 42.0306 33.2734 42.7866 33.2735C43.7499 33.2735 44.7131 33.2712 45.6763 33.2683C46.4223 33.2665 47.1684 33.2661 47.9144 33.2662C48.2692 33.266 48.6241 33.2653 48.9789 33.264C53.276 33.2496 57.1459 33.733 60.3514 36.8864C60.4982 37.0347 60.645 37.1831 60.7962 37.3359C60.9084 37.4444 61.0205 37.5528 61.1361 37.6646C63.7785 40.4086 64.1801 44.1485 64.1827 47.7706C64.1834 48.0252 64.1843 48.2797 64.1852 48.5343C64.1874 49.2218 64.1885 49.9092 64.1892 50.5967C64.1897 51.0268 64.1904 51.457 64.1912 51.8871C64.1935 53.2349 64.1951 54.5827 64.1957 55.9304C64.1965 57.4829 64.1994 59.0353 64.2043 60.5877C64.2079 61.7906 64.2096 62.9934 64.2098 64.1963C64.21 64.9136 64.211 65.6308 64.214 66.3481C64.2168 67.0224 64.2171 67.6967 64.2157 68.3711C64.2155 68.6178 64.2163 68.8645 64.2179 69.1112C64.2363 72.0089 64.2363 72.0089 63.2633 73.0082C62.2997 73.5909 61.4347 73.6661 60.34 73.6609C60.1947 73.6616 60.0494 73.6622 59.8996 73.6629C59.4138 73.6646 58.928 73.6639 58.4421 73.6633C58.0933 73.664 57.7445 73.6649 57.3957 73.6659C56.449 73.6681 55.5023 73.6682 54.5555 73.6678C53.7649 73.6676 52.9744 73.6684 52.1838 73.6692C50.3185 73.6711 48.4532 73.6712 46.5879 73.6702C44.6641 73.6691 42.7405 73.6712 40.8168 73.6748C39.1646 73.6777 37.5124 73.6787 35.8602 73.6782C34.8737 73.6779 33.8872 73.6783 32.9006 73.6807C31.9728 73.6828 31.045 73.6825 30.1171 73.6803C29.7769 73.6799 29.4367 73.6803 29.0966 73.6817C28.6315 73.6835 28.1665 73.6821 27.7013 73.68C27.5674 73.6812 27.4334 73.6825 27.2954 73.6837C26.2243 73.6735 25.247 73.4989 24.452 72.7248C23.9473 71.8901 23.8011 71.1397 23.8004 70.1718C23.7995 69.9548 23.7985 69.7377 23.7976 69.5141C23.7982 69.2756 23.7989 69.037 23.7996 68.7985C23.7992 68.5457 23.7986 68.2929 23.7979 68.04C23.7963 67.3545 23.7969 66.6691 23.798 65.9836C23.7988 65.2639 23.798 64.5443 23.7975 63.8247C23.7969 62.6149 23.7977 61.4051 23.7993 60.1953C23.8011 58.8017 23.8005 57.4082 23.7987 56.0146C23.7972 54.8147 23.797 53.6149 23.7978 52.415C23.7984 51.6999 23.7984 50.9849 23.7973 50.2698C23.7963 49.5959 23.797 48.922 23.799 48.2481C23.7994 48.0026 23.7993 47.7571 23.7985 47.5116C23.7876 43.5443 24.5754 40.0054 27.4249 37.1089C27.6474 36.8887 27.6474 36.8887 27.8744 36.664C27.9828 36.5518 28.0913 36.4397 28.2031 36.3241C30.6687 33.9498 34.114 33.2785 37.4142 33.2802Z" fill="#FB8138"/>
<path d="M54.8652 4.9493C57.9439 8.12566 59.0532 12.1546 58.9936 16.4821C58.8932 19.6945 57.5939 22.8698 55.4216 25.242C55.3396 25.3455 55.2575 25.449 55.173 25.5557C52.9881 28.3096 49.2884 29.9594 45.8715 30.4109C41.9988 30.8212 38.091 29.902 34.9715 27.5096C34.7325 27.3148 34.4945 27.1189 34.2576 26.9217C34.156 26.8427 34.0545 26.7637 33.9499 26.6822C31.4625 24.689 29.4817 21.058 29.0833 17.8828C28.6946 13.5193 29.45 9.45939 32.257 5.99648C32.6318 5.56708 33.0181 5.15611 33.4177 4.74984C33.5455 4.61993 33.6732 4.49002 33.8049 4.35616C39.8447 -1.42625 49.0756 -0.511986 54.8652 4.9493Z" fill="#FB8138"/>
<path d="M67.8516 39.8557C68.9984 39.8385 70.1452 39.8268 71.2921 39.8188C71.6811 39.8154 72.0701 39.8109 72.4591 39.805C75.2177 39.7645 77.8129 39.8038 80.3127 41.126C80.4223 41.1828 80.5319 41.2395 80.6448 41.298C83.4325 42.81 85.4303 45.2752 86.4961 48.2541C86.5398 48.376 86.5835 48.4979 86.6285 48.6235C87.1734 50.4396 87.0762 52.3079 87.0728 54.1862C87.0736 54.5668 87.0745 54.9474 87.0755 55.3279C87.077 56.1226 87.0766 56.9173 87.0749 57.712C87.073 58.7267 87.0764 59.7413 87.0813 60.756C87.0844 61.5409 87.0843 62.3258 87.0834 63.1108C87.0833 63.4848 87.0843 63.8588 87.0864 64.2328C87.1001 67.0746 86.8779 69.2204 84.8899 71.4023C84.7548 71.5236 84.6197 71.6448 84.4805 71.7698C84.3038 71.9361 84.3038 71.9361 84.1235 72.1057C81.9858 73.5928 79.6397 73.6691 77.1187 73.6502C76.8693 73.6496 76.6198 73.6491 76.3704 73.6488C75.7209 73.6475 75.0715 73.6442 74.4221 73.6405C73.7565 73.637 73.091 73.6355 72.4254 73.6338C71.1248 73.6302 69.8241 73.6245 68.5234 73.6174C68.5507 73.4209 68.5779 73.2244 68.6059 73.0219C68.688 72.3626 68.7134 71.7163 68.715 71.0514C68.7155 70.9361 68.716 70.8208 68.7165 70.702C68.718 70.3198 68.7182 69.9375 68.7185 69.5553C68.7192 69.2795 68.7201 69.0037 68.721 68.728C68.7232 67.9814 68.7243 67.2348 68.725 66.4883C68.7255 66.0207 68.7262 65.5532 68.727 65.0857C68.7293 63.6196 68.7309 62.1535 68.7315 60.6874C68.7323 59.0012 68.7352 57.3149 68.7401 55.6286C68.7437 54.3212 68.7454 53.0138 68.7456 51.7063C68.7458 50.9273 68.7468 50.1484 68.7498 49.3694C68.7526 48.6355 68.7529 47.9016 68.7515 47.1677C68.7513 46.9004 68.7521 46.633 68.7537 46.3656C68.764 44.6307 68.5875 43.0585 68.1875 41.3674C68.1208 41.063 68.0542 40.7586 67.988 40.4541C67.943 40.2566 67.898 40.0592 67.8516 39.8557Z" fill="#FB8138"/>
<path d="M16.1181 39.8133C16.5104 39.8167 16.9028 39.8198 17.2952 39.8225C18.2466 39.8298 19.198 39.841 20.1493 39.8553C20.0795 40.144 20.0795 40.144 20.0083 40.4386C19.9468 40.6956 19.8853 40.9526 19.8239 41.2096C19.7932 41.3359 19.7626 41.4622 19.731 41.5924C19.6864 41.78 19.6864 41.78 19.6408 41.9713C19.5999 42.1415 19.5999 42.1415 19.5582 42.3152C19.3683 43.2457 19.2884 44.1475 19.2881 45.0966C19.2879 45.2126 19.2876 45.3285 19.2874 45.448C19.2867 45.8335 19.2872 46.219 19.2877 46.6045C19.2875 46.8822 19.2872 47.1599 19.2869 47.4375C19.2861 48.1896 19.2864 48.9416 19.2869 49.6936C19.2873 50.4819 19.2869 51.2701 19.2867 52.0583C19.2864 53.3821 19.2868 54.7058 19.2876 56.0296C19.2885 57.5582 19.2882 59.0868 19.2873 60.6154C19.2865 61.9295 19.2864 63.2436 19.2868 64.5577C19.2871 65.3418 19.2871 66.1259 19.2866 66.91C19.2861 67.6475 19.2864 68.385 19.2874 69.1224C19.2876 69.3924 19.2876 69.6625 19.2872 69.9325C19.2867 70.3023 19.2873 70.6721 19.2881 71.0419C19.2882 71.2485 19.2883 71.4551 19.2883 71.6679C19.3114 72.3285 19.3865 72.9626 19.4774 73.617C18.0449 73.6249 16.6124 73.6308 15.1799 73.6344C14.5145 73.6362 13.8492 73.6385 13.1838 73.6424C12.5401 73.6461 11.8965 73.648 11.2528 73.6489C11.0088 73.6495 10.7648 73.6507 10.5208 73.6525C8.58206 73.6665 6.703 73.6378 4.95865 72.7142C4.67316 72.5667 4.67316 72.5667 4.38191 72.4163C2.71013 71.427 1.61574 69.79 1.07879 67.9301C0.998463 67.559 0.978367 67.2289 0.976166 66.8495C0.974964 66.7067 0.973762 66.5638 0.972524 66.4166C0.972072 66.2612 0.97162 66.1058 0.971155 65.9457C0.970051 65.7809 0.968947 65.6161 0.96781 65.4463C0.964498 64.9004 0.962536 64.3545 0.960862 63.8086C0.960177 63.6215 0.959493 63.4344 0.958787 63.2416C0.955283 62.2498 0.952882 61.258 0.951307 60.2662C0.949456 59.247 0.943686 58.2279 0.937 57.2087C0.932584 56.4209 0.9312 55.6331 0.930599 54.8452C0.929787 54.4699 0.92785 54.0946 0.924715 53.7193C0.893079 49.6784 1.70029 46.2686 4.60122 43.2963C7.90851 40.1572 11.7703 39.7477 16.1181 39.8133Z" fill="#FB8138"/>
<path d="M76.8061 16.3295C79.2784 18.2241 80.7606 20.6937 81.3925 23.7202C81.8224 27.1245 80.9895 30.2368 78.8959 32.9584C76.9843 35.1384 74.272 36.634 71.3599 36.8598C68.2896 37.0199 65.3468 36.3576 62.9751 34.3072C60.6228 32.145 59.1233 29.4521 58.9155 26.224C58.8697 22.9579 59.9129 19.9496 62.183 17.5578C66.1819 13.7622 72.2394 13.2452 76.8061 16.3295Z" fill="#FB8138"/>
<path d="M17.2324 14.2974C20.1534 14.2077 22.9429 15.1374 25.1854 17.0289C27.4616 19.1728 28.8777 21.8171 29.0887 24.9595C29.1771 28.4006 27.9903 31.2596 25.6604 33.7562C23.2823 36.0325 20.3221 36.9328 17.0933 36.8781C14.2125 36.7615 11.6226 35.4721 9.56688 33.4728C7.39273 31.0826 6.40451 28.1821 6.49161 24.9805C6.6649 21.6852 8.23087 19.0161 10.6226 16.8288C12.5159 15.2585 14.7996 14.4452 17.2324 14.2974Z" fill="#FB8138"/>
</g>
<defs>
<clipPath id="clip0_2413_2708">
<rect width="88" height="74" fill="white"/>
</clipPath>
</defs>
</svg>
