<svg width="86" height="89" viewBox="0 0 86 89" fill="none" xmlns="http://www.w3.org/2000/svg">
<g clip-path="url(#clip0_1090_2181)">
<path d="M25.9006 0.183753C26.0731 0.182673 26.2456 0.181592 26.4233 0.180479C26.7057 0.18032 26.7057 0.18032 26.9939 0.180158C27.2954 0.178758 27.2954 0.178758 27.6029 0.17733C28.2782 0.174481 28.9534 0.173164 29.6287 0.17186C30.1122 0.170178 30.5958 0.168417 31.0793 0.166584C32.6695 0.161001 34.2598 0.157741 35.85 0.154706C36.398 0.153565 36.946 0.15242 37.494 0.151271C39.7747 0.146665 42.0555 0.142644 44.3363 0.14028C44.928 0.139656 45.5197 0.139026 46.1113 0.138384C46.2584 0.138225 46.4054 0.138066 46.5569 0.137902C48.934 0.135214 51.3111 0.128147 53.6881 0.119263C56.1327 0.110203 58.5772 0.105296 61.0218 0.104101C62.3926 0.103325 63.7634 0.100787 65.1343 0.0938586C66.426 0.0874239 67.7175 0.0861207 69.0092 0.0886173C69.4811 0.0886641 69.953 0.0869161 70.4248 0.0831552C75.0728 0.0481517 78.5999 0.921016 82.089 4.17937C84.751 6.93309 85.8531 10.2504 85.8432 13.9929C85.8442 14.2636 85.8452 14.5344 85.8462 14.8134C85.8488 15.5616 85.8487 16.3098 85.8482 17.0581C85.8481 17.8664 85.8505 18.6747 85.8525 19.483C85.8561 21.0654 85.8572 22.6479 85.8575 24.2303C85.8577 25.5173 85.8586 26.8042 85.8599 28.0911C85.8637 31.7432 85.8657 35.3952 85.8653 39.0472C85.8653 39.2439 85.8653 39.4407 85.8653 39.6434C85.8653 39.8404 85.8653 40.0373 85.8652 40.2403C85.8651 43.4312 85.8692 46.6221 85.8752 49.813C85.8814 53.0927 85.8843 56.3724 85.8839 59.6521C85.8838 61.4921 85.885 63.3321 85.8896 65.1721C85.8935 66.7389 85.8944 68.3057 85.8915 69.8726C85.8901 70.6711 85.8901 71.4696 85.8938 72.2682C85.8978 73.1362 85.8951 74.004 85.8918 74.872C85.894 75.1212 85.8962 75.3705 85.8985 75.6273C85.8677 79.3195 84.2887 82.6373 81.6979 85.2398C79.0883 87.63 75.88 88.858 72.3655 88.8426C72.0643 88.8438 72.0643 88.8438 71.7571 88.8451C71.0891 88.8473 70.4211 88.8464 69.7531 88.8456C69.2722 88.8465 68.7913 88.8476 68.3105 88.8489C67.0074 88.8517 65.7044 88.8518 64.4013 88.8513C63.312 88.8511 62.2227 88.8521 61.1335 88.8531C58.4159 88.8556 55.6983 88.8555 52.9807 88.8541C50.6253 88.853 48.2698 88.8554 45.9144 88.8594C43.4911 88.8636 41.0678 88.8652 38.6445 88.8645C37.2859 88.8641 35.9273 88.8647 34.5687 88.8676C33.2905 88.8703 32.0124 88.8699 30.7342 88.8671C30.2665 88.8666 29.7988 88.8672 29.331 88.869C24.8531 88.8846 21.1213 88.1935 17.7737 85.0276C15.6461 82.8992 13.9061 79.8204 13.8675 76.7398C13.8648 76.5479 13.8621 76.356 13.8592 76.1583C13.8576 75.9525 13.8561 75.7466 13.8544 75.5346C13.8519 75.2148 13.8519 75.2148 13.8492 74.8886C13.8463 74.438 13.844 73.9873 13.8423 73.5367C13.8386 72.8488 13.8292 72.1611 13.8198 71.4733C13.8176 71.035 13.8158 70.5967 13.8143 70.1584C13.8106 69.9534 13.8068 69.7484 13.803 69.5372C13.8079 68.0312 14.1825 67.2703 15.2157 66.1512C16.111 65.6282 16.9403 65.5405 17.9701 65.579C19.2337 65.9294 19.7938 66.4724 20.5373 67.4952C20.854 68.1257 20.7935 68.772 20.8038 69.4639C20.8109 69.7817 20.818 70.0996 20.8251 70.4174C20.8352 70.9163 20.8447 71.4152 20.8532 71.9141C20.8644 76.3357 20.8644 76.3357 23.081 80.0258C24.9868 81.5417 27.0741 81.7939 29.4505 81.7892C29.6318 81.7897 29.8132 81.7902 30 81.7907C30.6048 81.792 31.2096 81.7919 31.8144 81.7917C32.2491 81.7923 32.6839 81.7931 33.1187 81.7939C34.298 81.7957 35.4773 81.7962 36.6566 81.7964C37.3941 81.7965 38.1315 81.797 38.8689 81.7976C41.4433 81.7995 44.0177 81.8004 46.5921 81.8002C48.9888 81.8001 51.3855 81.8023 53.7822 81.8057C55.8424 81.8085 57.9025 81.8096 59.9627 81.8095C61.192 81.8094 62.4213 81.81 63.6507 81.8123C64.8075 81.8144 65.9643 81.8144 67.1211 81.8128C67.5444 81.8126 67.9678 81.8131 68.3911 81.8144C72.7492 81.8948 72.7492 81.8948 76.587 80.0574C78.6471 77.9638 78.7589 75.4462 78.7549 72.6689C78.7554 72.4188 78.7559 72.1688 78.7564 71.9112C78.7575 71.2199 78.7577 70.5287 78.7574 69.8374C78.7574 69.0908 78.7586 68.3442 78.7596 67.5976C78.7613 66.1358 78.7619 64.674 78.7621 63.2122C78.7622 62.0235 78.7626 60.8348 78.7633 59.6461C78.7652 56.2735 78.7661 52.9008 78.766 49.5282C78.766 49.3465 78.766 49.1647 78.766 48.9775C78.766 48.7956 78.7659 48.6137 78.7659 48.4262C78.7658 45.4787 78.7679 42.5312 78.7709 39.5837C78.774 36.5547 78.7755 33.5257 78.7753 30.4967C78.7752 28.7972 78.7758 27.0977 78.7781 25.3981C78.78 23.9509 78.7805 22.5038 78.779 21.0566C78.7784 20.3189 78.7783 19.5812 78.7802 18.8436C78.7819 18.0421 78.7809 17.2407 78.7792 16.4393C78.7809 16.0932 78.7809 16.0932 78.7825 15.74C78.7718 13.3685 78.5312 11.2715 77.0149 9.36843C75.1089 7.51069 72.8092 7.20571 70.2409 7.21077C70.0596 7.21029 69.8783 7.20981 69.6915 7.20931C69.0867 7.20797 68.4819 7.20814 67.8771 7.20831C67.4423 7.20768 67.0075 7.20695 66.5727 7.20615C65.3934 7.20427 64.2141 7.20377 63.0348 7.20363C62.2974 7.20348 61.56 7.20302 60.8226 7.20246C58.2482 7.20049 55.6738 7.19962 53.0994 7.19979C50.7026 7.19992 48.3059 7.19767 45.9092 7.19431C43.849 7.19152 41.7889 7.19038 39.7288 7.19052C38.4994 7.19057 37.2701 7.18997 36.0408 7.18771C34.8839 7.18564 33.7271 7.18564 32.5703 7.18718C32.147 7.1874 31.7237 7.18691 31.3003 7.18562C26.9423 7.10525 26.9423 7.10525 23.1044 8.94259C21.2794 10.7973 20.9428 13.0076 20.9275 15.5239C20.9226 15.8432 20.9174 16.1624 20.9121 16.4817C20.9045 16.9783 20.8983 17.4748 20.8954 17.9715C20.8921 18.4555 20.8835 18.9391 20.874 19.423C20.8744 19.5701 20.8748 19.7172 20.8753 19.8687C20.8423 21.1785 20.3067 21.9111 19.4409 22.8488C18.5456 23.3718 17.7163 23.4596 16.6865 23.4211C15.423 23.0706 14.8628 22.5277 14.1193 21.5048C13.8724 21.0133 13.8745 20.7226 13.8675 20.1755C13.8648 19.9883 13.8621 19.8012 13.8592 19.6084C13.8576 19.4051 13.8561 19.2017 13.8544 18.9922C13.8527 18.782 13.851 18.5717 13.8492 18.3551C13.8462 17.9082 13.844 17.4613 13.8423 17.0143C13.8386 16.339 13.8292 15.664 13.8198 14.9887C13.802 12.6845 13.8326 10.6636 14.7611 8.51675C14.8443 8.32163 14.9274 8.1265 15.013 7.92546C16.4627 4.68292 19.2057 2.33692 22.4635 1.01719C24.7068 0.18774 24.7068 0.18774 25.9006 0.183753Z" fill="black"/>
<path d="M44.9253 20.2273C46.5191 21.3344 47.8782 22.6928 49.2306 24.0731C50.3339 25.1939 51.4368 26.2878 52.6342 27.3089C53.5795 28.142 54.4475 29.058 55.3318 29.9542C56.0495 30.6763 56.7706 31.3793 57.5446 32.0418C58.4999 32.8596 59.3788 33.7451 60.2614 34.6392C61.1785 35.568 62.0801 36.4542 63.1093 37.2608C65.2236 39.5775 66.043 42.253 65.9573 45.3284C65.8383 47.4414 65.0545 49.2401 63.7511 50.8876C63.5989 51.0835 63.5989 51.0835 63.4436 51.2835C62.9047 51.9422 62.3274 52.5121 61.677 53.0617C60.7551 53.857 59.8986 54.7052 59.0447 55.5718C58.214 56.4146 57.3838 57.2433 56.4842 58.0137C55.5422 58.8212 54.6741 59.693 53.8034 60.5754C52.932 61.4584 52.0634 62.3305 51.12 63.1379C50.3831 63.7686 49.7023 64.438 49.0255 65.1318C46.7421 67.4722 44.647 69.5844 41.2082 69.7176C38.9605 69.6498 37.3812 68.9411 35.7622 67.3913C34.5778 66.0256 33.9839 64.5129 33.9939 62.7212C33.9946 62.503 33.9953 62.2848 33.996 62.06C33.9978 61.8335 33.9996 61.6071 34.0014 61.3738C34.0024 61.1441 34.0034 60.9144 34.0044 60.6777C34.0069 60.1113 34.0104 59.5449 34.0148 58.9785C33.8712 58.9793 33.7277 58.98 33.5798 58.9809C30.0799 58.9997 26.58 59.0138 23.08 59.0226C21.3874 59.027 19.6949 59.033 18.0023 59.0427C16.5264 59.0512 15.0504 59.0567 13.5745 59.0586C12.7936 59.0597 12.0128 59.0623 11.2319 59.0685C10.3583 59.0754 9.48476 59.0756 8.6111 59.0752C8.35474 59.0782 8.09838 59.0813 7.83425 59.0844C5.55019 59.0733 3.59011 58.46 1.92526 56.8493C0.655989 55.2856 0.149274 53.8761 0.151664 51.86C0.150227 51.6843 0.14879 51.5086 0.147309 51.3276C0.143259 50.7492 0.14241 50.1709 0.141949 49.5926C0.140573 49.1885 0.139134 48.7843 0.137634 48.3802C0.135075 47.5338 0.134279 46.6875 0.134532 45.8411C0.134576 44.76 0.128738 43.6791 0.121367 42.5981C0.116595 41.7635 0.115742 40.9289 0.115968 40.0943C0.115466 39.6959 0.113583 39.2975 0.110262 38.8992C0.0803346 34.9387 0.0803354 34.9387 1.06954 33.4282C1.16495 33.2583 1.26037 33.0884 1.35868 32.9134C2.46452 31.384 3.97745 30.5468 5.776 30.0215C6.37496 29.9691 6.37496 29.9691 7.00242 29.9703C7.24179 29.9697 7.48116 29.9692 7.72778 29.9686C8.11694 29.9708 8.11694 29.9708 8.51396 29.9732C8.78957 29.9731 9.06519 29.9731 9.34916 29.973C10.1022 29.9729 10.8553 29.9754 11.6084 29.9784C12.3964 29.981 13.1844 29.9813 13.9725 29.9818C15.4635 29.9831 16.9545 29.9866 18.4455 29.9909C20.1435 29.9956 21.8415 29.998 23.5395 30.0001C27.0313 30.0046 30.523 30.012 34.0148 30.0215C34.0124 29.8096 34.0124 29.8096 34.0099 29.5933C34.0035 28.9479 33.9995 28.3024 33.9956 27.657C33.993 27.4347 33.9904 27.2124 33.9878 26.9833C33.9764 24.4902 34.5008 22.9336 36.2586 21.1147C38.7216 18.9989 42.0621 18.7761 44.9253 20.2273ZM41.0745 26.6148C41.0715 26.9498 41.0715 26.9498 41.0685 27.2914C41.0599 28.1264 41.0458 28.9613 41.0301 29.7961C41.0241 30.1563 41.0196 30.5164 41.0165 30.8765C41.0119 31.3968 41.0019 31.9167 40.9909 32.4368C40.9907 32.5957 40.9904 32.7546 40.9902 32.9183C40.958 34.0858 40.6627 35.0081 40.0049 35.9833C38.9945 36.7626 38.0584 36.8611 36.8085 36.8672C36.4184 36.8699 36.4184 36.8699 36.0204 36.8726C35.7329 36.8735 35.4454 36.8744 35.1578 36.8753C34.8546 36.877 34.5513 36.8787 34.248 36.8806C33.5955 36.8845 32.9429 36.8877 32.2904 36.8904C31.2595 36.8947 30.2287 36.9006 29.1978 36.9067C26.8244 36.9206 24.4509 36.9324 22.0775 36.9442C19.9005 36.955 17.7236 36.9662 15.5467 36.9792C14.5209 36.9852 13.4951 36.9903 12.4693 36.9945C11.8328 36.9974 11.1963 37.0011 10.5599 37.005C10.2636 37.0067 9.96737 37.008 9.67113 37.0089C9.26841 37.0101 8.8657 37.0128 8.463 37.0156C8.1242 37.0172 8.1242 37.0172 7.77856 37.0189C7.2828 36.9914 7.28279 36.9914 7.05959 37.2608C7.0383 37.7103 7.0322 38.1606 7.03191 38.6106C7.03153 38.7515 7.03116 38.8925 7.03077 39.0376C7.02982 39.5055 7.03045 39.9734 7.03117 40.4412C7.03103 40.765 7.03082 41.0888 7.03055 41.4126C7.03024 42.0921 7.0307 42.7715 7.0317 43.451C7.03292 44.3238 7.03221 45.1967 7.03093 46.0695C7.03016 46.7384 7.0304 47.4072 7.03096 48.0761C7.0311 48.398 7.03093 48.72 7.03043 49.0419C7.02989 49.4911 7.03071 49.9402 7.03191 50.3894C7.03208 50.6455 7.03225 50.9016 7.03242 51.1654C6.99394 51.7217 6.99394 51.7217 7.27352 51.9522C7.66809 51.9739 8.0635 51.9806 8.45868 51.9815C8.84468 51.9833 8.84468 51.9833 9.23849 51.9851C9.5263 51.9853 9.81412 51.9855 10.1019 51.9857C10.403 51.9867 10.7041 51.9878 11.0052 51.989C11.6553 51.9914 12.3054 51.9932 12.9555 51.9946C13.984 51.9968 15.0124 52.0012 16.0409 52.0059C18.9661 52.0191 21.8913 52.0306 24.8165 52.0376C26.4309 52.0415 28.0452 52.0477 29.6595 52.0564C30.5138 52.0608 31.3682 52.0641 32.2226 52.0646C33.0271 52.0651 33.8317 52.0685 34.6362 52.0741C35.071 52.0763 35.5058 52.0754 35.9406 52.0745C37.5776 52.0893 38.7654 52.1489 40.0717 53.2031C40.8822 54.2189 40.93 55.2429 40.9492 56.5008C40.9533 56.6694 40.9574 56.8381 40.9617 57.0118C40.9745 57.5476 40.9844 58.0833 40.9943 58.6192C41.0025 58.9836 41.0108 59.348 41.0194 59.7125C41.0398 60.6033 41.0578 61.4942 41.0745 62.3852C42.0348 62.0822 42.5659 61.6118 43.2648 60.8989C43.3684 60.7943 43.4721 60.6898 43.5789 60.5821C43.9089 60.2486 44.2367 59.9131 44.5643 59.5773C44.9949 59.1387 45.4265 58.7011 45.8587 58.264C46.016 58.1047 46.016 58.1047 46.1765 57.9421C46.8798 57.2346 47.6086 56.5734 48.3692 55.9283C49.1487 55.2452 49.867 54.4991 50.5944 53.762C51.4549 52.8899 52.3116 52.0264 53.2435 51.2294C54.3269 50.3011 55.3329 49.298 56.3438 48.2926C56.5365 48.1034 56.7293 47.9141 56.9279 47.7192C57.1119 47.5365 57.2958 47.3538 57.4853 47.1656C57.6514 47.0012 57.8175 46.8367 57.9887 46.6673C58.7303 45.8366 58.8795 45.2305 58.9293 44.1158C58.6765 42.9171 57.6709 42.0154 56.8285 41.1806C56.7198 41.0726 56.6111 40.9645 56.4991 40.8531C56.2702 40.6259 56.0408 40.3993 55.8108 40.1731C55.4641 39.8319 55.1192 39.489 54.7744 39.1458C53.723 38.1031 52.6603 37.0858 51.5318 36.125C50.5925 35.2974 49.7306 34.386 48.8521 33.4956C48.1345 32.7736 47.4137 32.0713 46.6392 31.4097C45.506 30.44 44.4822 29.3636 43.4474 28.292C43.2945 28.1368 43.1416 27.9816 42.984 27.8217C42.7802 27.6118 42.7802 27.6118 42.5723 27.3976C42.0976 27.0019 41.6574 26.8132 41.0745 26.6148Z" fill="black"/>
</g>
<defs>
<clipPath id="clip0_1090_2181">
<rect width="86" height="89" fill="white"/>
</clipPath>
</defs>
</svg>
