<svg width="86" height="79" viewBox="0 0 86 79" fill="none" xmlns="http://www.w3.org/2000/svg">
<g clip-path="url(#clip0_2416_7579)">
<path d="M12.742 0.472471C13.0152 0.471819 13.2884 0.47092 13.5616 0.469801C14.3047 0.467464 15.0476 0.468599 15.7906 0.470358C16.5949 0.471644 17.3992 0.469659 18.2035 0.46811C19.7761 0.465606 21.3487 0.466137 22.9213 0.467778C24.2 0.469057 25.4788 0.469225 26.7576 0.468612C26.94 0.468525 27.1225 0.468439 27.3104 0.46835C27.6811 0.468169 28.0518 0.467986 28.4225 0.4678C31.8933 0.466192 35.3641 0.468038 38.8349 0.471077C41.809 0.4736 44.7831 0.473162 47.7572 0.470558C51.2162 0.467531 54.6751 0.466347 58.134 0.468079C58.5033 0.468259 58.8726 0.468437 59.2418 0.468612C59.4235 0.468699 59.6052 0.468786 59.7923 0.468876C61.0686 0.469362 62.345 0.468543 63.6213 0.467211C65.178 0.465622 66.7347 0.466066 68.2914 0.469065C69.0848 0.470543 69.8781 0.471141 70.6714 0.469263C71.3992 0.467565 72.127 0.468527 72.8548 0.47151C73.2393 0.472428 73.6238 0.470608 74.0084 0.468653C77.2064 0.488783 80.1363 1.18051 82.4934 3.42746C85.3583 6.5086 85.4397 9.66869 85.4256 13.669C85.4267 14.1591 85.428 14.6493 85.4297 15.1394C85.433 16.3279 85.4323 17.5163 85.4301 18.7047C85.4284 19.6712 85.4282 20.6378 85.429 21.6043C85.4291 21.7423 85.4292 21.8803 85.4293 22.0225C85.4296 22.303 85.4298 22.5835 85.4301 22.8639C85.4322 25.4882 85.4298 28.1125 85.4257 30.7368C85.4223 32.9847 85.4229 35.2325 85.4264 37.4803C85.4304 40.0961 85.432 42.7118 85.4297 45.3276C85.4295 45.6069 85.4292 45.8862 85.429 46.1656C85.4288 46.3717 85.4288 46.3717 85.4286 46.5819C85.428 47.5465 85.4291 48.5111 85.4309 49.4756C85.4332 50.7756 85.4315 52.0755 85.4272 53.3754C85.4262 53.8515 85.4264 54.3276 85.4281 54.8036C85.4302 55.4554 85.4276 56.107 85.4238 56.7588C85.4263 57.0387 85.4263 57.0387 85.4289 57.3243C85.3998 59.9459 84.2579 62.3025 82.4852 64.2113C80.4379 66.1658 77.8223 67.041 75.0159 67.0394C74.8757 67.0401 74.7355 67.0407 74.5911 67.0414C74.1233 67.0434 73.6555 67.0441 73.1877 67.0448C72.8515 67.046 72.5153 67.0473 72.179 67.0487C71.4558 67.0514 70.7326 67.0536 70.0094 67.0554C68.865 67.0583 67.7206 67.0629 66.5763 67.0676C63.3224 67.081 60.0685 67.0923 56.8146 67.1019C55.0168 67.1073 53.219 67.1139 51.4213 67.122C50.2846 67.1271 49.1479 67.1304 48.0112 67.1326C47.3027 67.1343 46.5943 67.1376 45.8858 67.1413C45.5584 67.1427 45.2309 67.1434 44.9034 67.1435C42.4059 67.1447 40.2467 67.1493 38.3607 68.9931C37.6159 69.7553 36.9041 70.5461 36.197 71.3429C36.0723 71.4815 35.9475 71.6201 35.819 71.7629C35.2501 72.402 34.6997 73.0561 34.1487 73.7105C33.7905 74.1347 33.4299 74.5569 33.0685 74.9783C32.888 75.1892 32.7083 75.4008 32.5294 75.613C31.1692 77.2199 29.7749 78.5326 27.5747 78.7313C25.3449 78.7875 23.8911 78.2123 22.2498 76.7115C21.1 75.3984 20.791 73.9762 20.3952 72.3186C20.1302 71.2749 19.812 70.448 19.1875 69.5648C19.0012 69.2717 19.0012 69.2717 19.0012 68.8951C18.8911 68.8427 18.781 68.7902 18.6675 68.7362C18.1438 68.4662 17.6704 68.1396 17.1853 67.8065C15.4947 66.9477 13.5561 67.1297 11.7102 67.1104C8.75549 67.0494 5.88391 66.4727 3.67067 64.3819C2.08275 62.6642 0.651636 60.4576 0.646225 58.0474C0.645383 57.873 0.644541 57.6985 0.643673 57.5188C0.643708 57.3278 0.643743 57.1367 0.643779 56.9399C0.643084 56.7365 0.64239 56.533 0.641674 56.3234C0.639587 55.6393 0.638861 54.9552 0.638142 54.2711C0.636958 53.7815 0.635702 53.2919 0.634379 52.8023C0.630646 51.3311 0.628742 49.86 0.627061 48.3888C0.626232 47.6954 0.625218 47.0019 0.624228 46.3085C0.621013 44.002 0.618274 41.6956 0.616906 39.3891C0.616545 38.7907 0.616182 38.1923 0.615813 37.5939C0.615721 37.4452 0.61563 37.2965 0.615536 37.1433C0.613969 34.7365 0.609184 32.3298 0.603042 29.9231C0.596783 27.45 0.593389 24.9768 0.592786 22.5037C0.592378 21.116 0.590737 19.7284 0.585896 18.3407C0.581349 17.0343 0.580699 15.7279 0.582638 14.4215C0.582732 13.9431 0.581542 13.4647 0.578943 12.9863C0.559139 9.12251 0.880081 6.28554 3.61235 3.32155C6.14788 0.917331 9.36923 0.455322 12.742 0.472471ZM6.57674 6.45194C5.15059 8.10989 4.77108 9.39112 4.77955 11.5678C4.77883 11.7655 4.77811 11.9632 4.77736 12.1669C4.77542 12.828 4.77616 13.4891 4.77691 14.1503C4.77609 14.6248 4.77511 15.0993 4.77399 15.5738C4.77172 16.7282 4.77124 17.8825 4.77168 19.0369C4.77202 19.9753 4.77169 20.9138 4.77088 21.8522C4.77077 21.9859 4.77066 22.1196 4.77054 22.2574C4.77031 22.529 4.77009 22.8006 4.76986 23.0722C4.7678 25.6179 4.76821 28.1636 4.76936 30.7093C4.77034 33.0369 4.76821 35.3644 4.76462 37.692C4.76096 40.0837 4.7594 42.4753 4.76011 44.8669C4.76047 46.209 4.76 47.551 4.75733 48.8931C4.75484 50.155 4.75531 51.4169 4.75778 52.6788C4.75823 53.1418 4.75771 53.6049 4.75615 54.0679C4.75418 54.7002 4.7557 55.3323 4.7581 55.9646C4.75671 56.1476 4.75531 56.3306 4.75388 56.5192C4.76821 58.3162 5.35226 59.7999 6.5295 61.175C8.60818 63.0279 10.8386 62.934 13.4913 62.9414C16.1628 62.9539 18.9339 63.4109 21.0274 65.2226C21.238 65.4386 21.4431 65.6599 21.6467 65.8824C21.7714 65.8824 21.8961 65.8824 22.0246 65.8824C22.0746 65.9902 22.1245 66.0979 22.1759 66.209C22.3899 66.6394 22.3899 66.6394 22.6823 67.0033C23.7368 68.4171 24.1341 69.9326 24.5618 71.6245C24.86 72.7596 25.1212 73.5466 25.9929 74.3556C26.7053 74.5711 27.0955 74.6511 27.7718 74.3218C28.326 73.9331 28.7332 73.5084 29.1817 73.0023C29.3058 72.8631 29.3058 72.8631 29.4324 72.7212C29.6727 72.4511 29.9115 72.1795 30.1501 71.9078C30.2612 71.7831 30.3723 71.6583 30.4867 71.5298C30.9883 70.9638 31.482 70.3913 31.9718 69.8152C32.5569 69.128 33.1471 68.4454 33.7404 67.7653C33.8935 67.5893 33.8935 67.5893 34.0496 67.4096C35.9908 65.1933 37.9253 63.5591 40.9211 63.058C41.3993 63.0397 41.8723 63.0305 42.3504 63.0307C42.4928 63.0301 42.6352 63.0294 42.7818 63.0287C43.258 63.0267 43.7342 63.026 44.2105 63.0253C44.5522 63.0241 44.894 63.0228 45.2358 63.0215C45.9716 63.0187 46.7074 63.0165 47.4432 63.0147C48.6074 63.0118 49.7716 63.0073 50.9358 63.0025C54.2463 62.9891 57.5568 62.9778 60.8673 62.9682C62.6959 62.9629 64.5245 62.9562 66.353 62.9481C67.5095 62.9431 68.6659 62.9397 69.8224 62.9376C70.5432 62.9358 71.2641 62.9326 71.9849 62.9289C72.3181 62.9275 72.6514 62.9267 72.9846 62.9266C75.6271 62.9254 77.6025 62.8392 79.6589 60.9867C80.9877 59.4463 81.2275 57.9578 81.2199 55.9885C81.2206 55.7908 81.2213 55.5932 81.2221 55.3895C81.224 54.7284 81.2233 54.0672 81.2225 53.4061C81.2233 52.9316 81.2243 52.4571 81.2254 51.9826C81.2277 50.8282 81.2282 49.6739 81.2277 48.5195C81.2274 47.581 81.2277 46.6426 81.2285 45.7041C81.2287 45.5036 81.2287 45.5036 81.2289 45.299C81.2291 45.0274 81.2293 44.7558 81.2296 44.4841C81.2316 41.9385 81.2312 39.3928 81.2301 36.8471C81.2291 34.5195 81.2312 32.1919 81.2348 29.8643C81.2385 27.4727 81.24 25.0811 81.2393 22.6894C81.239 21.3474 81.2394 20.0053 81.2421 18.6633C81.2446 17.4013 81.2441 16.1395 81.2416 14.8776C81.2412 14.4145 81.2417 13.9515 81.2433 13.4885C81.2452 12.8562 81.2437 12.224 81.2413 11.5918C81.2427 11.4087 81.2441 11.2257 81.2456 11.0372C81.2314 9.26001 80.6663 7.72494 79.4699 6.38133C77.3202 4.77134 75.3129 4.65843 72.7129 4.6615C72.4465 4.66115 72.1802 4.66072 71.9138 4.66021C71.1836 4.65906 70.4534 4.65908 69.7232 4.65931C68.935 4.65934 68.1468 4.6583 67.3586 4.65741C65.815 4.65585 64.2714 4.65533 62.7278 4.65523C61.473 4.65514 60.2181 4.65475 58.9633 4.65415C55.4044 4.65249 51.8456 4.65163 48.2867 4.65177C48.0949 4.65177 47.9031 4.65178 47.7055 4.65179C47.4175 4.6518 47.4175 4.6518 47.1236 4.65181C44.0115 4.65189 40.8993 4.65009 37.7871 4.64743C34.5905 4.64473 31.3939 4.64343 28.1972 4.64359C26.403 4.64365 24.6088 4.64314 22.8146 4.64111C21.287 4.63939 19.7594 4.63899 18.2318 4.64026C17.4527 4.64088 16.6737 4.64089 15.8946 4.63926C15.1807 4.63777 14.4668 4.63805 13.7528 4.63969C13.3738 4.64011 12.9949 4.63869 12.6159 4.63719C10.2932 4.64601 8.37875 4.90118 6.57674 6.45194Z" fill="#FB8138"/>
<path d="M60.7274 10.4645C61.6418 11.1256 62.1345 11.8524 62.5727 12.8807C62.6555 13.0731 62.7384 13.2655 62.8237 13.4637C62.9075 13.6623 62.9913 13.861 63.0776 14.0657C63.1643 14.268 63.251 14.4703 63.3404 14.6787C63.5533 15.176 63.7649 15.6738 63.9752 16.1722C64.0989 16.175 64.2227 16.1777 64.3502 16.1805C64.9182 16.1947 65.4859 16.2128 66.0538 16.2311C66.2484 16.2353 66.4431 16.2396 66.6436 16.2439C69.16 16.3318 69.16 16.3318 70.1201 17.1786C70.798 17.941 71.113 18.6198 71.2267 19.6204C71.0746 21.1112 70.3479 21.9242 69.2196 22.8524C67.9599 23.8604 67.9599 23.8604 67.3017 25.2661C67.3544 26.173 67.6487 26.9986 67.9827 27.8377C68.1914 28.3749 68.3278 28.9229 68.4631 29.4823C68.5292 29.747 68.5292 29.747 68.5967 30.017C68.8502 31.1671 68.7312 31.9551 68.1701 32.9694C67.5995 33.8194 66.8524 34.2286 65.8648 34.4368C63.9948 34.4312 62.6921 33.4691 61.1359 32.5237C60.9341 32.405 60.7323 32.2863 60.5244 32.164C60.3432 32.0538 60.1621 31.9436 59.9754 31.83C59.3134 31.5609 58.9881 31.6053 58.3062 31.8007C57.8248 32.017 57.8248 32.017 57.3673 32.3001C57.1971 32.3997 57.0268 32.4994 56.8514 32.602C56.6767 32.7065 56.5021 32.811 56.3221 32.9187C53.3341 34.6939 53.3341 34.6939 51.5035 34.2485C50.6838 33.8478 50.1619 33.3789 49.7428 32.5579C49.237 31.0642 49.7784 29.4305 50.1808 27.9759C50.2881 27.5807 50.3944 27.1853 50.4996 26.7895C50.5471 26.6171 50.5946 26.4447 50.6436 26.2671C50.7517 25.756 50.8116 25.3531 50.7477 24.8338C50.4844 24.4514 50.4844 24.4514 50.1062 24.1225C49.9724 23.9947 49.8385 23.8669 49.7006 23.7353C49.559 23.6046 49.4173 23.4739 49.2714 23.3392C47.281 21.4841 47.281 21.4841 47.082 20.2088C47.0915 19.2278 47.1432 18.5084 47.7242 17.6786C49.0928 16.3452 50.412 16.2965 52.2358 16.2428C52.4379 16.2356 52.6401 16.2283 52.8484 16.2208C53.3449 16.2031 53.8414 16.187 54.338 16.1722C54.4149 15.9858 54.4149 15.9858 54.4935 15.7956C54.7304 15.2257 54.9711 14.6575 55.2119 14.0892C55.3329 13.7959 55.3329 13.7959 55.4563 13.4968C56.0056 12.21 56.5642 11.0172 57.7984 10.2527C58.8249 10.0386 59.7776 9.96184 60.7274 10.4645ZM59.0621 15.9839C58.9617 16.1905 58.8614 16.397 58.758 16.6099C58.6232 16.8838 58.4884 17.1576 58.3535 17.4314C58.2877 17.5672 58.222 17.7031 58.1542 17.843C57.2247 19.7211 57.2247 19.7211 56.3804 20.147C55.1987 20.4652 54.0485 20.6241 52.8263 20.6913C52.9359 20.8176 52.9359 20.8176 53.0477 20.9465C55.1794 23.4125 55.1794 23.4125 55.1581 24.9963C55.0621 25.8791 54.8338 26.7213 54.5903 27.5742C54.3631 28.3667 54.3631 28.3667 54.527 29.1645C54.6221 29.1085 54.7172 29.0524 54.8152 28.9947C55.253 28.7387 55.693 28.4868 56.1332 28.2348C56.2827 28.1466 56.4323 28.0584 56.5864 27.9675C57.6311 27.3744 58.5803 26.8878 59.8135 27.1826C60.206 27.3203 60.5759 27.4803 60.9518 27.6582C61.0845 27.7204 61.2173 27.7826 61.354 27.8468C61.7582 28.0416 62.1584 28.2428 62.558 28.4467C62.6953 28.516 62.8327 28.5853 62.9743 28.6567C63.3083 28.8253 63.6418 28.9948 63.9752 29.1645C63.9206 28.9439 63.8661 28.7233 63.8098 28.496C62.7902 24.2508 62.7902 24.2508 63.7862 22.5742C64.2549 22.0586 64.2549 22.0586 64.7665 21.5739C65.0722 21.2824 65.3761 20.9889 65.6759 20.6913C65.6759 20.6292 65.6759 20.567 65.6759 20.503C65.4435 20.4981 65.2111 20.4933 64.9717 20.4883C64.6631 20.4777 64.3546 20.4669 64.0461 20.4559C63.8933 20.4533 63.7406 20.4506 63.5832 20.4478C62.5244 20.4049 61.9788 20.2039 61.1407 19.5615C61.016 19.5615 60.8913 19.5615 60.7628 19.5615C60.7126 19.4018 60.6624 19.2421 60.6107 19.0775C60.3765 18.4078 60.0967 17.7791 59.7943 17.1372C59.6925 16.9202 59.5907 16.7032 59.4858 16.4797C59.4083 16.3161 59.3309 16.1525 59.2511 15.9839C59.1887 15.9839 59.1264 15.9839 59.0621 15.9839Z" fill="#FB8138"/>
<path d="M28.2957 10.347C29.6631 11.2856 30.2714 12.5658 30.8822 14.0658C30.9962 14.335 30.9962 14.335 31.1125 14.6097C31.6617 15.9229 31.6617 15.9229 31.6617 16.3606C31.7854 16.3576 31.9092 16.3547 32.0367 16.3516C32.6045 16.3398 33.1723 16.3325 33.7403 16.3253C33.9349 16.3206 34.1295 16.3158 34.3301 16.311C35.6731 16.2982 36.8329 16.3542 37.9086 17.2491C37.9946 17.3598 38.0806 17.4705 38.1692 17.5845C38.2585 17.6952 38.3479 17.8059 38.4401 17.9199C38.8046 18.473 38.8762 18.9751 38.8896 19.6205C38.8945 19.7595 38.8993 19.8986 38.9043 20.0419C38.6941 21.6059 37.4052 22.5057 36.2825 23.4809C35.5347 24.1503 35.5347 24.1503 35.1859 25.0541C35.2275 25.5037 35.3184 25.9057 35.441 26.3402C35.4954 26.5647 35.4954 26.5647 35.5509 26.7937C35.6681 27.2647 35.7962 27.7318 35.9252 28.1996C36.7632 31.4113 36.7632 31.4113 36.0669 32.8246C35.3169 33.6527 34.6631 34.1979 33.5513 34.4369C31.8757 34.4369 30.5826 33.5396 29.2288 32.6275C27.9057 31.6938 27.9057 31.6938 26.3751 31.5146C25.8236 31.8169 25.3552 32.1682 24.8589 32.5539C24.4103 32.8351 23.9501 33.0941 23.4889 33.3542C23.2775 33.4794 23.0661 33.6047 22.8482 33.7337C21.7809 34.2828 20.8098 34.5559 19.6211 34.3876C18.6435 34.0723 17.9239 33.3283 17.3948 32.4716C17.0283 30.6 17.688 28.8694 18.1861 27.0772C18.247 26.8486 18.3079 26.6199 18.3707 26.3843C18.4281 26.177 18.4854 25.9697 18.5446 25.756C18.6328 25.1433 18.5997 24.9542 18.2452 24.4573C17.9301 24.1008 17.9301 24.1008 17.5602 23.7578C17.4267 23.6285 17.2932 23.4993 17.1557 23.3661C16.8746 23.0975 16.5931 22.8293 16.3112 22.5615C16.111 22.3672 16.111 22.3672 15.9067 22.1691C15.7233 21.9943 15.7233 21.9943 15.5362 21.816C14.9208 21.089 14.7571 20.3419 14.784 19.3961C14.9264 18.4451 15.3745 17.7147 16.0485 17.0432C17.28 16.2835 18.5135 16.2844 19.9222 16.2429C20.1244 16.2356 20.3266 16.2284 20.5349 16.2209C21.0314 16.2032 21.5279 16.1871 22.0245 16.1723C22.0805 16.0356 22.1365 15.8989 22.1943 15.7581C22.4528 15.1336 22.7169 14.5114 22.9811 13.8892C23.0692 13.6742 23.1572 13.4591 23.2479 13.2376C23.7719 12.0157 24.2495 11.0299 25.4258 10.3352C26.3951 10.0132 27.3271 10.0252 28.2957 10.347ZM26.7486 15.7957C26.6888 15.9423 26.6888 15.9423 26.6278 16.0919C26.443 16.5399 26.2533 16.9856 26.0636 17.4315C26.001 17.5853 25.9384 17.7391 25.8739 17.8975C25.4353 18.9159 25.0298 19.5031 24.1031 20.1265C22.9306 20.5225 21.7433 20.6057 20.5127 20.6914C20.5836 20.7734 20.6545 20.8555 20.7275 20.94C22.8433 23.3934 22.8433 23.3934 22.8372 25.0604C22.7262 26.4561 22.3631 27.8089 22.0245 29.1646C22.7609 28.8973 23.382 28.5447 24.044 28.129C25.1679 27.473 26.2012 26.9716 27.5288 27.1464C28.9402 27.54 30.2243 28.4196 31.4727 29.1646C31.7224 28.4183 31.5024 27.8934 31.2956 27.164C30.8829 25.6002 30.555 24.2601 31.3804 22.7737C31.8541 22.1208 32.4294 21.578 33.0169 21.0275C33.1309 20.9166 33.2449 20.8057 33.3624 20.6914C33.3624 20.6292 33.3624 20.5671 33.3624 20.5031C33.13 20.4982 32.8976 20.4934 32.6582 20.4884C32.3496 20.4778 32.0411 20.467 31.7325 20.456C31.5798 20.4533 31.4271 20.4507 31.2697 20.4479C30.2488 20.4066 29.6231 20.2546 28.8272 19.5616C28.2172 18.781 27.8301 17.9512 27.4572 17.0432C27.4065 16.9225 27.3559 16.8019 27.3037 16.6776C27.1806 16.3841 27.0589 16.09 26.9376 15.7957C26.8752 15.7957 26.8128 15.7957 26.7486 15.7957Z" fill="#FB8138"/>
<path d="M18.7204 51.3346C18.896 51.3332 19.0716 51.3319 19.2526 51.3305C19.5425 51.3312 19.5425 51.3312 19.8383 51.3319C20.0434 51.3309 20.2484 51.3299 20.4597 51.3289C21.1504 51.3261 21.8411 51.326 22.5317 51.3258C23.0255 51.3244 23.5193 51.3228 24.013 51.3211C25.3569 51.3168 26.7007 51.3153 28.0445 51.3143C28.8834 51.3137 29.7222 51.3125 30.5611 51.3111C32.883 51.3075 35.205 51.3044 37.5269 51.3038C37.7499 51.3038 37.7499 51.3038 37.9773 51.3037C38.2786 51.3037 38.5799 51.3036 38.8812 51.3035C39.0308 51.3035 39.1804 51.3034 39.3345 51.3034C39.4842 51.3034 39.634 51.3033 39.7883 51.3033C42.2156 51.3026 44.6429 51.2976 47.0703 51.2905C49.5616 51.2833 52.0529 51.2797 54.5442 51.2796C55.9433 51.2795 57.3424 51.2779 58.7415 51.2725C60.0571 51.2674 61.3726 51.2671 62.6882 51.2702C63.1717 51.2705 63.6552 51.2692 64.1386 51.2662C64.7975 51.2624 65.456 51.2644 66.1148 51.2678C66.4035 51.2641 66.4035 51.2641 66.698 51.2603C67.5913 51.2709 67.9959 51.2775 68.7196 51.838C69.2907 52.6147 69.4008 53.2544 69.2667 54.208C68.8555 54.8811 68.4788 55.229 67.755 55.526C67.3449 55.5737 67.3449 55.5737 66.8919 55.5745C66.632 55.5763 66.632 55.5763 66.3669 55.5781C66.1772 55.5776 65.9876 55.577 65.7921 55.5764C65.4891 55.5776 65.4891 55.5776 65.18 55.579C64.5008 55.5813 63.8216 55.581 63.1424 55.5807C62.6564 55.5818 62.1703 55.5831 61.6843 55.5846C60.4997 55.5877 59.3152 55.5887 58.1306 55.5889C57.1678 55.5891 56.205 55.5899 55.2422 55.5911C52.5127 55.5944 49.7832 55.5961 47.0537 55.5958C46.9066 55.5958 46.7594 55.5958 46.6078 55.5958C46.3868 55.5958 46.3868 55.5958 46.1613 55.5958C43.7732 55.5956 41.3851 55.5992 38.997 55.6045C36.5452 55.6099 34.0934 55.6125 31.6416 55.6122C30.265 55.6121 28.8884 55.6131 27.5118 55.6172C26.2173 55.6209 24.9229 55.6208 23.6284 55.6181C23.1529 55.6177 22.6774 55.6186 22.2019 55.6209C21.5535 55.6238 20.9053 55.622 20.257 55.6191C20.0682 55.6211 19.8793 55.623 19.6848 55.625C18.6076 55.6143 17.9561 55.5098 17.1124 54.7728C16.6455 54.0749 16.6298 53.5109 16.7345 52.7016C17.173 51.7443 17.6586 51.3371 18.7204 51.3346Z" fill="#FB8138"/>
<path d="M19.1078 41.1672C19.2811 41.166 19.4543 41.1648 19.6328 41.1636C19.8225 41.1641 20.0122 41.1647 20.2076 41.1653C20.4096 41.1645 20.6116 41.1636 20.8197 41.1627C21.499 41.1603 22.1781 41.1607 22.8573 41.161C23.3434 41.1598 23.8294 41.1586 24.3154 41.1571C25.5 41.154 26.6846 41.153 27.8691 41.1528C28.8319 41.1526 29.7947 41.1518 30.7576 41.1506C33.487 41.1473 36.2165 41.1456 38.946 41.1458C39.0932 41.1459 39.2403 41.1459 39.3919 41.1459C39.6129 41.1459 39.6129 41.1459 39.8384 41.1459C42.2265 41.1461 44.6146 41.1425 47.0027 41.1372C49.4545 41.1318 51.9063 41.1292 54.3581 41.1295C55.7347 41.1296 57.1113 41.1286 58.488 41.1245C59.7824 41.1207 61.0769 41.1209 62.3713 41.1236C62.8468 41.124 63.3223 41.1231 63.7978 41.1208C64.4462 41.1179 65.0944 41.1197 65.7428 41.1226C65.9316 41.1206 66.1204 41.1187 66.3149 41.1167C67.3921 41.1274 68.0437 41.2318 68.8873 41.9689C69.3543 42.6667 69.37 43.2307 69.2653 44.0401C68.956 44.7152 68.757 44.9426 68.1315 45.3582C67.7399 45.406 67.7399 45.406 67.2794 45.4071C67.0159 45.4091 67.0159 45.4091 66.7471 45.4112C66.5538 45.4107 66.3606 45.4102 66.1614 45.4098C65.9564 45.4108 65.7513 45.4117 65.54 45.4128C64.8493 45.4156 64.1587 45.4157 63.468 45.4158C62.9742 45.4173 62.4805 45.4189 61.9867 45.4206C60.6429 45.4249 59.2991 45.4264 57.9552 45.4273C57.1164 45.428 56.2775 45.4292 55.4386 45.4305C53.1167 45.4342 50.7947 45.4373 48.4728 45.4379C48.2498 45.4379 48.2499 45.4379 48.0224 45.438C47.7211 45.438 47.4198 45.4381 47.1185 45.4382C46.9689 45.4382 46.8193 45.4382 46.6652 45.4383C46.5155 45.4383 46.3657 45.4383 46.2114 45.4384C43.7841 45.4391 41.3568 45.4441 38.9294 45.4512C36.4381 45.4583 33.9468 45.462 31.4555 45.4621C30.0564 45.4622 28.6573 45.4638 27.2582 45.4692C25.9426 45.4743 24.6271 45.4746 23.3116 45.4715C22.8281 45.4712 22.3446 45.4725 21.8611 45.4755C21.2023 45.4793 20.5437 45.4773 19.8849 45.4739C19.5962 45.4776 19.5962 45.4776 19.3017 45.4814C18.4084 45.4708 18.0038 45.4642 17.2801 44.9037C16.709 44.127 16.599 43.4873 16.733 42.5337C17.3289 41.5583 17.9728 41.1692 19.1078 41.1672Z" fill="#FB8138"/>
</g>
<defs>
<clipPath id="clip0_2416_7579">
<rect width="86" height="79" fill="white"/>
</clipPath>
</defs>
</svg>
