<svg width="87" height="87" viewBox="0 0 87 87" fill="none" xmlns="http://www.w3.org/2000/svg">
<g clip-path="url(#clip0_2416_7585)">
<path d="M46.685 1.16944C46.9122 1.27134 46.9122 1.27134 47.1441 1.37531C48.535 2.09056 49.5317 3.10735 50.601 4.22817C50.9983 4.64224 51.406 5.02696 51.8426 5.39937C52.8284 6.24485 53.7255 7.18277 54.6373 8.10583C55.741 9.22663 55.741 9.22663 56.9059 10.2829C57.9156 11.1449 58.8301 12.1105 59.7626 13.0538C60.6282 13.9283 61.4954 14.7859 62.4325 15.585C63.2812 16.3407 64.0651 17.1692 64.8635 17.9774C65.9698 19.1007 65.9698 19.1007 67.1373 20.1597C68.1111 20.9911 68.9937 21.9195 69.8927 22.8296C70.9963 23.9504 70.9963 23.9504 72.1613 25.0066C73.1709 25.8686 74.0855 26.8342 75.018 27.7775C75.8835 28.6521 76.7507 29.5096 77.6879 30.3087C78.5366 31.0645 79.3204 31.893 80.1188 32.7012C81.0696 33.6624 82.0339 34.5913 83.0632 35.469C84.69 36.9382 86.2872 38.8652 86.4372 41.1455C86.53 43.7393 86.1958 45.8814 84.3925 47.9053C82.6573 49.5316 80.6183 50.3746 78.2455 50.364C78.0801 50.3634 77.9147 50.3629 77.7443 50.3623C77.6186 50.3616 77.4929 50.3608 77.3634 50.3601C77.3638 50.4945 77.3643 50.6289 77.3648 50.7673C77.3759 54.0437 77.3842 57.3201 77.3894 60.5965C77.392 62.1809 77.3956 63.7654 77.4013 65.3498C77.4063 66.7315 77.4096 68.1132 77.4107 69.4949C77.4114 70.2259 77.4129 70.9568 77.4165 71.6878C77.42 72.3772 77.421 73.0666 77.4203 73.756C77.4204 74.0077 77.4214 74.2594 77.4233 74.5111C77.4382 76.5337 77.1894 78.354 76.2423 80.1631C76.1838 80.2765 76.1253 80.3898 76.0651 80.5066C74.9211 82.6577 73.3379 84.1056 71.1816 85.2139C71.0771 85.2684 70.9726 85.3229 70.865 85.379C69.2261 86.1807 67.5439 86.4077 65.7372 86.3977C65.5387 86.3986 65.3402 86.3995 65.1358 86.4005C64.5908 86.4024 64.046 86.4022 63.5011 86.4009C62.911 86.4001 62.321 86.4022 61.731 86.4039C60.5774 86.4068 59.4237 86.407 58.2701 86.4061C57.3317 86.4054 56.3932 86.4056 55.4548 86.4065C55.2539 86.4067 55.2539 86.4067 55.049 86.4069C54.7768 86.4072 54.5047 86.4074 54.2325 86.4077C51.6844 86.41 49.1362 86.4091 46.5881 86.4072C44.2613 86.4055 41.9346 86.4077 39.6079 86.4117C37.2139 86.4158 34.8199 86.4174 32.4259 86.4162C31.0838 86.4157 29.7418 86.416 28.3997 86.419C27.2571 86.4214 26.1146 86.4215 24.972 86.4186C24.39 86.4172 23.8081 86.4168 23.2262 86.4194C19.0649 86.434 15.6799 85.9581 12.585 82.9371C10.3344 80.528 9.55465 77.518 9.57919 74.3122C9.57933 74.0498 9.57925 73.7874 9.57897 73.5251C9.57882 72.8183 9.58176 72.1115 9.58529 71.4047C9.58845 70.664 9.58873 69.9233 9.58933 69.1826C9.59089 67.7824 9.59501 66.3823 9.60006 64.9821C9.6057 63.387 9.60845 61.792 9.61098 60.1969C9.61622 56.9179 9.62506 53.639 9.63628 50.3601C9.49777 50.361 9.35925 50.362 9.21653 50.3629C8.94428 50.364 8.94428 50.364 8.66653 50.3651C8.48653 50.3661 8.30652 50.367 8.12105 50.3679C6.04553 50.3351 4.14772 49.3704 2.66214 47.9719C0.838497 45.9028 0.423443 43.7025 0.55312 41.0325C0.793877 38.0621 3.41509 35.7662 5.55985 33.9351C6.49097 33.1289 7.34618 32.245 8.21133 31.3698C9.16059 30.4095 10.1058 29.4596 11.1343 28.5827C11.8981 27.9025 12.6059 27.1613 13.3244 26.434C14.2444 25.5027 15.164 24.5842 16.1605 23.7335C16.9251 23.052 17.6342 22.3102 18.3536 21.5819C20.1148 19.799 20.1148 19.799 20.863 19.161C21.782 18.3764 22.618 17.5047 23.4667 16.6461C24.4159 15.6858 25.3612 14.7359 26.3896 13.8589C27.1535 13.1788 27.8613 12.4376 28.5798 11.7103C30.341 9.92741 30.341 9.92741 31.0891 9.28945C32.0082 8.50485 32.8441 7.63308 33.6928 6.77449C34.6656 5.79038 35.6348 4.81655 36.6897 3.91862C37.0337 3.61591 37.3303 3.28049 37.6324 2.9367C39.8442 0.686715 43.7759 -0.167998 46.685 1.16944ZM40.3356 8.83456C38.8844 10.3159 38.8844 10.3159 38.155 10.9384C37.2619 11.7035 36.4463 12.5476 35.6207 13.3834C34.7006 14.3148 33.781 15.2333 32.7845 16.084C32.02 16.7655 31.3109 17.5073 30.5915 18.2356C28.8302 20.0185 28.8302 20.0185 28.0821 20.6564C27.163 21.441 26.3271 22.3128 25.4784 23.1714C24.5291 24.1317 23.5839 25.0816 22.5555 25.9585C21.7916 26.6387 21.0838 27.3799 20.3653 28.1072C19.4453 29.0385 18.5257 29.957 17.5292 30.8077C16.7646 31.4892 16.0556 32.231 15.3361 32.9593C14.4092 33.8976 13.4829 34.8237 12.479 35.6808C11.837 36.2487 11.2433 36.8666 10.6421 37.4768C9.72272 38.4101 8.78617 39.3002 7.79223 40.1539C7.05936 40.8124 6.54813 41.3307 6.49301 42.3499C6.55507 43.2052 6.82755 43.5997 7.45695 44.1694C8.04427 44.3648 8.51572 44.3607 9.13532 44.3662C9.37206 44.37 9.60878 44.3741 9.84551 44.3783C10.2166 44.3841 10.5877 44.389 10.9589 44.3913C13.5626 44.4102 13.5626 44.4102 14.6655 45.1733C15.4526 46.1468 15.5245 47.1699 15.5257 48.3768C15.5261 48.4953 15.5265 48.6139 15.5268 48.736C15.5278 49.1322 15.5277 49.5284 15.5275 49.9247C15.528 50.2092 15.5286 50.4937 15.5293 50.7782C15.5306 51.3905 15.5315 52.0028 15.532 52.6151C15.533 53.5841 15.5358 54.5531 15.5389 55.522C15.54 55.854 15.5411 56.186 15.5421 56.518C15.5427 56.6843 15.5432 56.8505 15.5437 57.0218C15.5508 59.2772 15.5563 61.5326 15.5584 63.788C15.5598 65.31 15.5635 66.832 15.57 68.354C15.5733 69.1589 15.5754 69.9638 15.5746 70.7687C15.5738 71.5263 15.5761 72.2838 15.5808 73.0413C15.5819 73.3186 15.5819 73.5958 15.5807 73.8731C15.5726 75.9224 15.5726 75.9224 16.3419 77.7998C16.4053 77.9085 16.4687 78.0171 16.5341 78.1291C17.1488 79.142 18.138 79.7439 19.2128 80.1945C20.3849 80.4742 21.5062 80.4994 22.7064 80.4932C22.8796 80.4929 23.0529 80.4927 23.2313 80.4924C23.7813 80.4915 24.3312 80.4894 24.8812 80.4873C25.2554 80.4864 25.6297 80.4857 26.0039 80.485C26.9184 80.4832 27.8329 80.4804 28.7474 80.4768C28.748 80.3246 28.748 80.3246 28.7486 80.1693C28.7586 77.6916 28.7712 75.2138 28.7869 72.7361C28.7944 71.5378 28.801 70.3395 28.8055 69.1413C28.8093 68.0959 28.815 67.0506 28.8226 66.0052C28.8266 65.4526 28.8295 64.9 28.8308 64.3473C28.8324 63.7278 28.8372 63.1085 28.8426 62.489C28.8423 62.3091 28.8421 62.1292 28.8418 61.9438C28.8634 60.1803 29.1881 58.4505 30.0047 56.8749C30.0619 56.7633 30.1191 56.6517 30.178 56.5367C31.6403 53.8263 34.2057 52.0728 37.0954 51.1261C37.8881 50.9185 38.6583 50.8406 39.4762 50.8351C39.671 50.8335 39.8658 50.8319 40.0665 50.8302C40.3793 50.8291 40.3793 50.8291 40.6984 50.8281C41.024 50.8266 41.024 50.8266 41.3562 50.8252C41.8152 50.8234 42.2743 50.8224 42.7334 50.8218C43.3162 50.8209 43.8988 50.8169 44.4816 50.8121C45.0436 50.8082 45.6056 50.8079 46.1677 50.8071C46.3742 50.8051 46.5806 50.803 46.7934 50.8009C50.0168 50.8091 52.816 51.9904 55.1404 54.2083C57.3237 56.5427 58.1318 59.4556 58.1381 62.584C58.1398 62.7784 58.1414 62.9729 58.1432 63.1732C58.1483 63.8105 58.1512 64.4478 58.154 65.0851C58.1572 65.5291 58.1604 65.9732 58.1639 66.4172C58.1717 67.463 58.1779 68.5088 58.1834 69.5546C58.1899 70.7463 58.1981 71.9379 58.2066 73.1296C58.2238 75.5787 58.2388 78.0277 58.2523 80.4768C59.3437 80.4854 60.4351 80.4912 61.5265 80.4952C61.8972 80.4969 62.2679 80.4992 62.6386 80.5021C63.1738 80.5062 63.7089 80.508 64.2441 80.5095C64.4078 80.5112 64.5715 80.513 64.7402 80.5147C66.7495 80.5151 68.4228 80.1513 69.9453 78.7828C71.3766 77.1946 71.4486 75.4621 71.4309 73.4364C71.4314 73.1518 71.4324 72.8671 71.4337 72.5825C71.4358 71.9729 71.4352 71.3634 71.4326 70.7538C71.4285 69.7889 71.4305 68.8241 71.4332 67.8593C71.4373 66.1594 71.4363 64.4596 71.4342 62.7597C71.4311 60.1999 71.432 57.6401 71.4376 55.0802C71.4395 54.122 71.4388 53.1639 71.4359 52.2056C71.4346 51.6089 71.4353 51.0122 71.4365 50.4154C71.4367 50.1398 71.436 49.8641 71.4343 49.5885C71.4159 46.3949 71.4159 46.3949 72.397 45.1838C73.209 44.547 73.8731 44.4631 74.8953 44.4583C75.1324 44.4549 75.3696 44.4514 75.6068 44.4479C75.9772 44.4441 76.3475 44.4413 76.718 44.4403C77.0779 44.4387 77.4377 44.4331 77.7975 44.4269C78.0117 44.4256 78.2258 44.4242 78.4465 44.4228C79.1428 44.3218 79.5023 44.1063 80.0456 43.6675C80.4581 43.0501 80.4914 42.6721 80.4765 41.9427C80.2718 40.9785 79.4815 40.3645 78.7582 39.7456C77.652 38.7984 76.6362 37.7661 75.6138 36.7311C74.5074 35.6078 74.5074 35.6078 73.34 34.5488C72.3662 33.7174 71.4836 32.789 70.5845 31.879C69.4809 30.7582 69.4809 30.7582 68.316 29.7019C67.3063 28.8399 66.3918 27.8743 65.4593 26.931C64.5937 26.0564 63.7265 25.1989 62.7894 24.3998C61.9406 23.644 61.1568 22.8156 60.3584 22.0074C59.2548 20.8866 59.2548 20.8866 58.0899 19.8303C57.0802 18.9683 56.1657 18.0027 55.2332 17.0594C54.3676 16.1848 53.5004 15.3273 52.5633 14.5282C51.7145 13.7724 50.9307 12.944 50.1323 12.1358C49.2791 11.2732 48.4215 10.4289 47.498 9.64083C46.8535 9.07351 46.2653 8.44695 45.6687 7.83034C45.571 7.73102 45.4733 7.6317 45.3727 7.52937C45.2864 7.44044 45.2001 7.35152 45.1113 7.2599C44.5098 6.73826 43.9899 6.64894 43.1973 6.61371C42.0065 6.86325 41.144 8.00548 40.3356 8.83456ZM35.7883 58.7259C35.2038 59.6656 34.7611 60.5878 34.7623 61.7045C34.7621 61.8699 34.7619 62.0353 34.7616 62.2057C34.7622 62.387 34.7628 62.5682 34.7635 62.7549C34.7634 62.9459 34.7634 63.137 34.7634 63.3338C34.7635 63.9666 34.7648 64.5994 34.7661 65.2322C34.7664 65.6704 34.7667 66.1086 34.7668 66.5467C34.7674 67.5831 34.7687 68.6195 34.7704 69.6559C34.7725 70.9515 34.7734 72.2471 34.7743 73.5427C34.7759 75.8541 34.7793 78.1655 34.7825 80.4768C40.5359 80.4768 46.2894 80.4768 52.2172 80.4768C52.2323 76.8965 52.2323 76.8965 52.2425 73.3162C52.2452 72.0355 52.2488 70.7548 52.2551 69.4741C52.2607 68.3513 52.2636 67.2285 52.2649 66.1056C52.2658 65.6777 52.2676 65.2498 52.2704 64.8219C52.274 64.2215 52.2745 63.6212 52.2743 63.0209C52.2761 62.8448 52.2779 62.6687 52.2798 62.4873C52.2722 60.6904 51.8093 59.3544 50.5408 58.0566C49.0969 56.8837 47.8318 56.6655 46.0066 56.6619C45.8111 56.6608 45.6155 56.6596 45.4141 56.6585C45.0009 56.6568 44.5878 56.656 44.1747 56.6561C43.5462 56.6553 42.918 56.6493 42.2897 56.6429C41.8872 56.6419 41.4846 56.6413 41.0821 56.6409C40.8959 56.6385 40.7097 56.6361 40.5179 56.6337C38.577 56.6449 37.071 57.2437 35.7883 58.7259Z" fill="#E57B35"/>
</g>
<defs>
<clipPath id="clip0_2416_7585">
<rect width="86" height="86" fill="white" transform="translate(0.5 0.5)"/>
</clipPath>
</defs>
</svg>
