<svg width="100" height="71" viewBox="0 0 100 71" fill="none" xmlns="http://www.w3.org/2000/svg">
<g clip-path="url(#clip0_2417_745)">
<path d="M12.7123 0.595376C13.0481 0.594481 13.384 0.593248 13.7198 0.59171C14.6364 0.588489 15.553 0.590064 16.4696 0.592475C17.4606 0.594236 18.4515 0.591517 19.4424 0.589388C21.3813 0.585945 23.3201 0.586681 25.2589 0.588932C26.8351 0.590686 28.4113 0.59092 29.9875 0.590077C30.2121 0.589958 30.4368 0.589839 30.6682 0.589717C31.1246 0.589469 31.581 0.589217 32.0373 0.588963C36.3133 0.586753 40.5893 0.589291 44.8653 0.593461C48.5315 0.596927 52.1978 0.596325 55.864 0.592749C60.1251 0.588595 64.3861 0.586966 68.6472 0.589346C69.1018 0.589593 69.5565 0.589836 70.0111 0.590077C70.2348 0.590197 70.4585 0.590316 70.689 0.59044C72.2627 0.591108 73.8363 0.589981 75.41 0.588154C77.3287 0.585975 79.2474 0.586575 81.1661 0.590698C82.1444 0.592732 83.1227 0.593543 84.101 0.590971C84.9977 0.588648 85.8943 0.589948 86.791 0.594056C87.1142 0.594917 87.4375 0.594492 87.7607 0.592601C91.2195 0.573925 94.095 1.41657 96.6555 3.83272C97.6477 4.87727 98.4468 5.9662 99.0266 7.28667C99.0912 7.43294 99.1558 7.57921 99.2224 7.72992C100.075 10.0078 99.9139 12.3772 99.9055 14.7737C99.9065 15.2765 99.9079 15.7794 99.9096 16.2822C99.9131 17.5014 99.9123 18.7206 99.9101 19.9398C99.9083 20.9313 99.9081 21.9228 99.9089 22.9144C99.909 23.056 99.9092 23.1976 99.9093 23.3435C99.9095 23.6312 99.9098 23.9189 99.91 24.2067C99.9123 26.8989 99.9097 29.5911 99.9055 32.2834C99.9021 34.5894 99.9027 36.8953 99.9062 39.2014C99.9104 41.8848 99.912 44.5683 99.9097 47.2518C99.9094 47.5384 99.9092 47.8249 99.9089 48.1115C99.9088 48.2524 99.9087 48.3934 99.9086 48.5386C99.9079 49.5282 99.909 50.5177 99.9109 51.5072C99.9133 52.8408 99.9115 54.1744 99.907 55.508C99.906 55.9963 99.9063 56.4847 99.908 56.9731C99.9102 57.6417 99.9075 58.3102 99.9036 58.9789C99.9053 59.1703 99.9071 59.3617 99.9089 59.559C99.8758 62.5287 98.5287 65.1627 96.4746 67.249C94.3894 69.2428 91.8005 70.3287 88.9006 70.3315C88.7642 70.3319 88.6278 70.3323 88.4873 70.3327C88.0291 70.3338 87.5709 70.3336 87.1126 70.3333C86.7812 70.3338 86.4498 70.3344 86.1184 70.335C85.2068 70.3366 84.2952 70.3369 83.3835 70.3371C82.4007 70.3374 81.4178 70.3389 80.4349 70.3402C78.2851 70.3428 76.1354 70.344 73.9856 70.3449C72.6432 70.3454 71.3008 70.3462 69.9584 70.3471C66.2415 70.3495 62.5245 70.3515 58.8076 70.3521C58.5697 70.3522 58.3318 70.3522 58.0866 70.3522C57.8481 70.3523 57.6096 70.3523 57.3639 70.3524C56.8807 70.3525 56.3974 70.3526 55.9141 70.3526C55.6744 70.3527 55.4347 70.3527 55.1877 70.3528C51.3044 70.3535 47.4211 70.3569 43.5378 70.3614C39.5506 70.366 35.5634 70.3684 31.5763 70.3687C29.3377 70.3689 27.0992 70.37 24.8606 70.3735C22.9542 70.3765 21.0478 70.3775 19.1414 70.3759C18.169 70.3751 17.1967 70.3753 16.2244 70.378C15.3332 70.3805 14.4422 70.3802 13.5511 70.3779C13.2296 70.3775 12.9082 70.3781 12.5868 70.3798C9.09634 70.397 6.12582 69.7116 3.53315 67.2629C1.81907 65.5707 0.316669 63.2442 0.168603 60.77C0.167922 60.5387 0.167922 60.5387 0.167228 60.3027C0.166241 60.1239 0.165254 59.9452 0.164237 59.761C0.164092 59.4675 0.164092 59.4675 0.163943 59.168C0.163091 58.9596 0.162238 58.7511 0.161359 58.5364C0.158754 57.8354 0.157553 57.1345 0.156361 56.4336C0.154824 55.932 0.153216 55.4303 0.15154 54.9287C0.146772 53.4211 0.143923 51.9136 0.141411 50.4061C0.140689 49.9799 0.139917 49.5537 0.139126 49.1276C0.134214 46.4784 0.129925 43.8293 0.127505 41.1801C0.126935 40.5667 0.126359 39.9532 0.125773 39.3397C0.125627 39.1872 0.125483 39.0347 0.125333 38.8777C0.122875 36.4114 0.116415 33.9451 0.108301 31.4788C0.100029 28.9438 0.0954605 26.4088 0.0944461 23.8738C0.0937838 22.4517 0.0915201 21.0297 0.0850874 19.6076C0.079039 18.2682 0.0780135 16.929 0.080299 15.5897C0.0803419 15.0997 0.0787357 14.6097 0.0753073 14.1197C0.0481872 10.0184 0.510331 6.86018 3.44048 3.74788C6.11076 1.21513 9.14871 0.574524 12.7123 0.595376ZM7.97599 8.25619C6.54645 9.88317 6.35993 11.6466 6.37016 13.7395C6.36955 13.9328 6.36894 14.1262 6.36832 14.3253C6.36677 14.9693 6.36799 15.6131 6.36922 16.257C6.36869 16.7203 6.368 17.1835 6.36715 17.6468C6.36556 18.7721 6.36579 19.8974 6.36692 21.0227C6.3678 21.9378 6.36792 22.8529 6.3675 23.7681C6.36744 23.8986 6.36738 24.0291 6.36732 24.1636C6.36719 24.4287 6.36707 24.6939 6.36694 24.9591C6.36583 27.4428 6.3671 29.9265 6.3692 32.4102C6.37093 34.5384 6.37063 36.6666 6.36884 38.7948C6.36675 41.2696 6.36594 43.7445 6.36713 46.2193C6.36726 46.4835 6.36738 46.7478 6.3675 47.012C6.36756 47.142 6.36762 47.272 6.36768 47.4059C6.36801 48.3192 6.36745 49.2324 6.36653 50.1457C6.36541 51.3764 6.36619 52.6072 6.36844 53.8379C6.36895 54.289 6.36881 54.74 6.36795 55.191C6.36688 55.808 6.36822 56.4249 6.37016 57.0419C6.36929 57.2191 6.36842 57.3964 6.36753 57.579C6.37937 59.5345 6.61081 61.091 7.97599 62.5498C9.08319 63.5968 10.2096 63.9795 11.7124 63.9815C11.8474 63.9824 11.9824 63.9834 12.1215 63.9844C12.5727 63.9869 13.0237 63.9853 13.4748 63.9836C13.802 63.9846 14.1292 63.9858 14.4564 63.9872C15.3546 63.9904 16.2528 63.9899 17.151 63.9889C18.12 63.9884 19.0891 63.9912 20.0582 63.9936C21.9564 63.9977 23.8546 63.9985 25.7528 63.9982C27.2958 63.9979 28.8387 63.9987 30.3816 64.0001C30.826 64.0005 31.2704 64.0009 31.7148 64.0013C31.936 64.0015 32.1571 64.0017 32.385 64.0019C36.5686 64.0056 40.7521 64.0054 44.9357 64.0041C48.7626 64.003 52.5895 64.007 56.4165 64.0135C60.3461 64.02 64.2756 64.0229 68.2052 64.022C70.4114 64.0216 72.6175 64.0226 74.8236 64.0275C76.7018 64.0315 78.58 64.0322 80.4583 64.0286C81.4164 64.0268 82.3745 64.0266 83.3326 64.0306C84.2103 64.0342 85.0878 64.0333 85.9655 64.0289C86.2824 64.0281 86.5994 64.0289 86.9163 64.0315C88.8433 64.0465 90.5188 63.9599 92.0019 62.5999C93.4866 61.035 93.6086 59.1854 93.6051 57.1438C93.6056 56.9518 93.606 56.7598 93.6065 56.5619C93.6077 55.9189 93.6075 55.2759 93.6074 54.6328C93.6079 54.1716 93.6086 53.7103 93.6093 53.2491C93.6109 52.1264 93.6115 51.0037 93.6116 49.8811C93.6117 48.9681 93.6121 48.055 93.6127 47.142C93.6144 44.5513 93.6153 41.9605 93.6152 39.3698C93.6152 39.2302 93.6152 39.0906 93.6152 38.9468C93.6152 38.8071 93.6151 38.6673 93.6151 38.5233C93.6151 36.2595 93.6169 33.9958 93.6197 31.732C93.6225 29.4054 93.6238 27.0787 93.6236 24.7521C93.6236 23.4468 93.6241 22.1415 93.6262 20.8361C93.6281 19.6081 93.6281 18.38 93.6267 17.152C93.6265 16.7019 93.6269 16.2518 93.6281 15.8018C93.6296 15.186 93.6287 14.5703 93.6272 13.9546C93.6287 13.6892 93.6287 13.6892 93.6302 13.4185C93.6198 11.46 93.3634 9.75546 92.0227 8.25619C90.1967 6.68535 87.8507 6.84268 85.5769 6.84961C85.2572 6.84916 84.9376 6.84855 84.6179 6.84777C83.7424 6.84616 82.8669 6.84695 81.9914 6.84816C81.0461 6.84904 80.1008 6.84768 79.1554 6.84661C77.3047 6.84489 75.4539 6.84526 73.6032 6.84639C72.0989 6.84726 70.5947 6.84738 69.0904 6.84696C68.8763 6.8469 68.6621 6.84684 68.4414 6.84678C68.0064 6.84665 67.5713 6.84653 67.1362 6.8464C63.0573 6.8453 58.9785 6.84657 54.8996 6.84865C51.4003 6.85038 47.901 6.85008 44.4018 6.84829C40.3374 6.84622 36.273 6.8454 32.2086 6.84659C31.7752 6.84672 31.3417 6.84684 30.9083 6.84696C30.5884 6.84705 30.5884 6.84705 30.262 6.84714C28.7597 6.84747 27.2574 6.84691 25.7551 6.846C23.9241 6.84491 22.0931 6.8452 20.262 6.84727C19.328 6.84829 18.3939 6.84869 17.4599 6.8474C16.6045 6.84625 15.7491 6.84689 14.8937 6.84895C14.5846 6.84938 14.2755 6.84916 13.9664 6.84822C10.7537 6.81279 10.7537 6.81279 7.97599 8.25619Z" fill="#E67935"/>
<path d="M45.0632 17.0424C45.2745 17.1624 45.4858 17.2824 45.7035 17.406C46.3589 17.7793 47.0124 18.1556 47.6654 18.5331C47.8629 18.6471 48.0604 18.7612 48.2639 18.8787C49.2273 19.4357 50.189 19.9955 51.1498 20.557C52.3766 21.2734 53.6076 21.9824 54.8395 22.6899C55.1547 22.871 55.1547 22.871 55.4763 23.0557C55.9023 23.3004 56.3284 23.545 56.7544 23.7896C57.3894 24.1543 58.0243 24.5192 58.6591 24.8842C58.8678 25.0042 59.0765 25.1242 59.2915 25.2479C59.7102 25.4887 60.1289 25.7297 60.5475 25.9707C61.5236 26.5326 62.5003 27.0934 63.4794 27.6499C63.8232 27.8454 64.1667 28.0412 64.5101 28.2371C64.9388 28.4815 65.3679 28.7252 65.7975 28.968C68.1542 30.3139 69.8962 31.3613 70.8901 33.9728C71.193 35.603 71.015 37.0897 70.1841 38.5448C68.9921 40.2409 67.1673 41.1769 65.394 42.1775C65.0571 42.3693 64.7203 42.5611 64.3835 42.753C64.0355 42.9512 63.6872 43.1489 63.3389 43.3466C62.2417 43.97 61.1492 44.6014 60.0559 45.2315C58.5465 46.1001 57.0348 46.9649 55.5204 47.825C54.0847 48.6407 52.6549 49.4661 51.2281 50.2973C49.5234 51.2899 47.8176 52.2805 46.1089 53.2664C45.8989 53.3881 45.6888 53.5098 45.4723 53.6352C43.037 55.0383 41.1203 55.9219 38.2463 55.5001C36.886 55.0845 35.6205 53.9504 34.9244 52.7378C34.4008 51.4814 34.2173 50.2592 34.2152 48.9013C34.2144 48.6561 34.2136 48.411 34.2127 48.1584C34.2128 47.8891 34.2129 47.6199 34.213 47.3506C34.2124 47.0651 34.2117 46.7796 34.211 46.4941C34.2093 45.7205 34.2088 44.9468 34.2087 44.1732C34.2086 43.6891 34.2081 43.2051 34.2076 42.721C34.2058 41.0303 34.205 39.3395 34.2052 37.6488C34.2053 36.0761 34.2032 34.5035 34.2002 32.9309C34.1976 31.578 34.1966 30.2251 34.1967 28.8723C34.1968 28.0655 34.1962 27.2587 34.1941 26.4519C34.1923 25.6924 34.1923 24.9329 34.1937 24.1734C34.1939 23.8959 34.1934 23.6184 34.1922 23.341C34.1827 20.9503 34.2261 18.5979 35.9808 16.7856C38.9271 14.2799 42.054 15.3048 45.0632 17.0424ZM40.6615 22.2173C40.6615 30.9838 40.6615 39.7502 40.6615 48.7824C41.4131 48.4827 42.0475 48.1789 42.743 47.7803C42.9596 47.6565 43.1763 47.5328 43.3995 47.4052C43.6338 47.2705 43.8682 47.1357 44.1026 47.0009C44.3469 46.861 44.5911 46.7211 44.8354 46.5813C45.4633 46.2218 46.0906 45.8616 46.7179 45.5011C47.064 45.3022 47.4103 45.1036 47.7566 44.9051C50.1911 43.5099 52.6205 42.1064 55.045 40.6939C56.0809 40.0908 57.1181 39.4902 58.1575 38.8932C58.2706 38.8282 58.3836 38.7633 58.5001 38.6964C59.0451 38.3834 59.5903 38.0708 60.1357 37.7585C61.3696 37.0509 62.5955 36.3317 63.8132 35.5968C63.2439 34.9812 62.6764 34.5781 61.9452 34.169C61.728 34.0465 61.5108 33.924 61.287 33.7978C61.0509 33.6663 60.8148 33.5347 60.5788 33.4032C60.3333 33.2652 60.0878 33.1269 59.8425 32.9886C59.4642 32.7753 59.0858 32.5621 58.7073 32.3493C57.478 31.6586 56.2555 30.9565 55.034 30.2522C54.6161 30.0116 54.1981 29.771 53.7801 29.5304C53.5739 29.4116 53.3677 29.2929 53.1552 29.1705C52.1037 28.5651 51.0518 27.9605 50 27.3558C48.8092 26.6711 47.6184 25.9864 46.4277 25.3015C46.0796 25.1013 45.7316 24.9011 45.3835 24.7009C44.9468 24.4497 44.5101 24.1985 44.0734 23.9473C43.6877 23.7255 43.302 23.504 42.916 23.2827C42.6035 23.1029 42.2917 22.9217 41.9811 22.7387C41.3632 22.3457 41.3632 22.3457 40.6615 22.2173Z" fill="#E67935"/>
</g>
<defs>
<clipPath id="clip0_2417_745">
<rect width="100" height="70" fill="white" transform="translate(0 0.5)"/>
</clipPath>
</defs>
</svg>
