<svg width="90" height="27" viewBox="0 0 90 27" fill="none" xmlns="http://www.w3.org/2000/svg">
<g clip-path="url(#clip0_2413_4467)">
<path d="M52.1165 2.99025C52.2389 2.9901 52.3614 2.98993 52.4838 2.98973C52.8194 2.98928 53.155 2.98917 53.4905 2.98913C53.8528 2.98903 54.2151 2.9886 54.5773 2.98822C55.4102 2.98741 56.2431 2.98708 57.0761 2.98682C57.488 2.98668 57.8999 2.98648 58.3118 2.98626C59.7229 2.98554 61.134 2.98493 62.5451 2.98473C62.6335 2.98472 62.722 2.98471 62.8105 2.98469C62.8992 2.98468 62.9879 2.98467 63.0766 2.98466C63.2546 2.98463 63.4325 2.98461 63.6104 2.98458C63.6545 2.98457 63.6987 2.98457 63.7441 2.98456C65.1746 2.98436 66.605 2.98345 68.0355 2.98213C69.5493 2.98073 71.063 2.97995 72.5768 2.97989C72.7431 2.97988 72.9094 2.97986 73.0757 2.97985C73.1371 2.97984 73.1371 2.97984 73.1997 2.97984C73.8574 2.97977 74.5151 2.97915 75.1727 2.97832C75.8342 2.97751 76.4956 2.97734 77.1571 2.97778C77.5151 2.978 77.8731 2.97795 78.2311 2.97715C78.5593 2.97643 78.8875 2.9765 79.2157 2.97719C79.334 2.9773 79.4523 2.97712 79.5706 2.97663C81.4414 2.96928 82.7741 3.58445 84.1034 4.88084C84.4727 5.24577 84.8319 5.61474 85.1715 6.00695C85.2288 6.07237 85.2861 6.13779 85.3435 6.2032C85.6495 6.55456 85.9515 6.9084 86.2473 7.26828C86.3956 7.44682 86.5466 7.62285 86.6981 7.79871C86.9175 8.05376 87.1324 8.31158 87.3428 8.57396C87.4738 8.73613 87.6065 8.89688 87.7393 9.05753C88.072 9.46002 88.399 9.86562 88.7164 10.2801C88.8004 10.3887 88.8856 10.4963 88.9709 10.6039C89.588 11.3886 90.0528 12.24 89.9416 13.2733C89.7663 14.565 88.9592 15.4157 88.1025 16.3388C88.0352 16.4143 87.9682 16.49 87.9014 16.5659C87.4862 17.0362 87.0588 17.4957 86.6314 17.9552C86.5263 18.0682 86.4214 18.1814 86.3165 18.2946C86.184 18.4376 86.0513 18.5803 85.9186 18.7231C85.8922 18.7515 85.8658 18.78 85.8386 18.8093C85.6361 19.0271 85.4328 19.2443 85.229 19.4611C85.1945 19.4978 85.1601 19.5344 85.1246 19.5722C82.4681 22.3949 82.4681 22.3949 80.8037 22.7537C80.6389 22.7591 80.4755 22.7615 80.3107 22.7611C80.2602 22.7613 80.2097 22.7614 80.1576 22.7615C79.9872 22.7618 79.8167 22.7617 79.6463 22.7617C79.5233 22.7618 79.4003 22.762 79.2774 22.7622C78.9385 22.7626 78.5996 22.7627 78.2607 22.7628C77.8956 22.7629 77.5305 22.7633 77.1653 22.7637C76.3246 22.7645 75.4839 22.7648 74.6431 22.7651C74.2275 22.7652 73.8118 22.7654 73.3962 22.7656C71.9729 22.7664 70.5496 22.767 69.1263 22.7672C69.037 22.7672 68.9476 22.7672 68.8582 22.7672C68.7687 22.7672 68.6791 22.7672 68.5895 22.7672C68.4098 22.7673 68.2301 22.7673 68.0503 22.7673C67.9835 22.7673 67.9835 22.7673 67.9153 22.7673C66.4718 22.7675 65.0283 22.7684 63.5848 22.7698C62.0581 22.7712 60.5314 22.7719 59.0047 22.772C58.8369 22.772 58.6691 22.772 58.5013 22.772C58.4394 22.7721 58.4394 22.7721 58.3761 22.7721C57.7127 22.7721 57.0492 22.7727 56.3857 22.7736C55.7179 22.7744 55.0502 22.7746 54.3825 22.7741C54.021 22.7739 53.6596 22.7739 53.2982 22.7747C52.9668 22.7755 52.6354 22.7754 52.3039 22.7747C52.1846 22.7746 52.0652 22.7748 51.9459 22.7753C50.8379 22.7796 49.5316 22.7684 48.6777 21.9647C47.8223 21.0826 47.9046 19.7734 47.9078 18.6317C47.9076 18.4933 47.9073 18.3549 47.9069 18.2166C47.9062 17.8819 47.9063 17.5473 47.9068 17.2127C47.9072 16.9404 47.9072 16.6681 47.9071 16.3958C47.907 16.3568 47.907 16.3178 47.907 16.2777C47.9069 16.1985 47.9069 16.1192 47.9068 16.04C47.9063 15.2998 47.9069 14.5595 47.9078 13.8193C47.9086 13.1862 47.9084 12.5531 47.9077 11.92C47.9067 11.1821 47.9064 10.4442 47.9069 9.70635C47.907 9.62745 47.907 9.54854 47.9071 9.46963C47.9071 9.43083 47.9071 9.39202 47.9071 9.35203C47.9073 9.08053 47.907 8.80902 47.9066 8.53751C47.9061 8.17108 47.9065 7.80465 47.9075 7.43821C47.9077 7.30442 47.9076 7.17062 47.9073 7.03682C47.9009 4.59856 47.9009 4.59856 48.7347 3.73621C49.6427 2.90083 50.9634 2.98969 52.1165 2.99025Z" fill="#33CCCC"/>
<path d="M1.74287 0.542459C1.81414 0.54226 1.88541 0.542061 1.95885 0.541857C2.15415 0.541443 2.34945 0.54154 2.54475 0.5419C2.75104 0.542189 2.95733 0.54192 3.16362 0.541742C3.51147 0.541536 3.85932 0.541807 4.20717 0.542349C4.60458 0.54296 5.00198 0.542771 5.39938 0.542141C5.74351 0.541618 6.08763 0.541557 6.43176 0.54185C6.63591 0.542024 6.84006 0.542061 7.04421 0.541676C7.88318 0.540316 8.71883 0.554482 9.55604 0.608652C9.62586 0.613168 9.69568 0.617683 9.76762 0.622335C11.4515 0.742536 13.1887 1.20305 14.3813 2.45114C15.5391 3.80274 15.9159 5.60332 15.7786 7.33419C15.6601 8.62654 15.2925 9.79916 14.483 10.8323C14.4477 10.8776 14.4124 10.9229 14.3761 10.9695C13.379 12.1585 11.8322 12.758 10.3414 13.064C10.3009 13.0723 10.2604 13.0807 10.2187 13.0893C9.42803 13.2364 8.62781 13.2812 7.82483 13.2868C7.72118 13.2876 7.72118 13.2876 7.61544 13.2884C7.32954 13.29 7.04367 13.2912 6.75777 13.2906C6.5459 13.2905 6.3341 13.2921 6.12224 13.2939C6.05842 13.2934 5.99459 13.2928 5.92883 13.2922C5.43949 13.2982 5.04113 13.4085 4.68412 13.7523C4.47768 14.1006 4.46411 14.4248 4.45917 14.818C4.45806 14.873 4.45694 14.928 4.4558 14.9846C4.45238 15.1592 4.4497 15.3339 4.44705 15.5086C4.44485 15.6274 4.44261 15.7461 4.44031 15.8649C4.43481 16.1553 4.42997 16.4458 4.4255 16.7362C2.46852 15.992 0.961192 14.0364 0.0576796 12.2515C0.0518206 12.1116 0.0494388 11.9734 0.0496083 11.8336C0.0494375 11.79 0.0492668 11.7464 0.0490909 11.7015C0.0485903 11.5546 0.0485048 11.4077 0.0484191 11.2609C0.0481532 11.1559 0.0478645 11.0509 0.0475545 10.9459C0.0467991 10.6601 0.0464296 10.3742 0.0461746 10.0884C0.0460063 9.9098 0.0457703 9.73123 0.0455134 9.55266C0.044727 8.99403 0.0441717 8.4354 0.04395 7.87678C0.0436927 7.23183 0.042685 6.58689 0.0410189 5.94194C0.0397762 5.44358 0.0391969 4.94522 0.0391201 4.44685C0.0390599 4.14916 0.0387206 3.85147 0.0376937 3.55378C0.0367459 3.27355 0.036623 2.99334 0.037127 2.71312C0.0371712 2.61041 0.036922 2.50771 0.0363535 2.40501C0.0356212 2.26445 0.0359609 2.12394 0.0365594 1.98339C0.0360963 1.94304 0.0356333 1.9027 0.0351562 1.86113C0.0385347 1.52028 0.11362 1.20887 0.335383 0.940782C0.372943 0.910193 0.410504 0.879605 0.449203 0.848089C0.486319 0.816623 0.523435 0.785156 0.561676 0.752736C0.931866 0.515791 1.31734 0.540999 1.74287 0.542459ZM4.54044 4.24711C4.39093 4.45941 4.4089 4.68885 4.40971 4.9375C4.40942 4.98405 4.40912 5.0306 4.40882 5.07857C4.40802 5.23236 4.40808 5.38613 4.40821 5.53992C4.40799 5.64697 4.40774 5.75401 4.40746 5.86106C4.40703 6.08544 4.40705 6.30982 4.40735 6.5342C4.40769 6.82143 4.40671 7.10864 4.40538 7.39586C4.40453 7.61697 4.40448 7.83807 4.40466 8.05917C4.40463 8.16505 4.40433 8.27093 4.40375 8.37681C4.40304 8.52505 4.40343 8.67325 4.4041 8.82149C4.40366 8.86503 4.40322 8.90857 4.40277 8.95343C4.40545 9.22475 4.45252 9.40975 4.59791 9.64012C4.89506 9.91462 5.18407 9.89959 5.56908 9.89536C5.66103 9.89548 5.66103 9.89548 5.75484 9.89561C5.88498 9.89551 6.01512 9.89486 6.14526 9.89368C6.33936 9.89207 6.53338 9.8925 6.72749 9.89325C8.82485 9.90606 8.82485 9.90606 10.6284 8.96976C11.2706 8.29313 11.423 7.43369 11.3959 6.53537C11.3592 5.84364 11.1205 5.16925 10.5989 4.69083C9.99912 4.24575 9.25747 4.08331 8.52189 4.04531C8.45611 4.04186 8.45611 4.04186 8.38899 4.03833C7.78329 4.0096 7.17706 4.0053 6.57076 4.00328C6.43245 4.00261 6.29414 4.00144 6.15584 3.99978C5.95351 3.99737 5.75122 3.99645 5.54888 3.99586C5.45648 3.99437 5.45648 3.99437 5.36221 3.99285C5.01401 3.99385 4.80075 4.00923 4.54044 4.24711Z" fill="black"/>
<path d="M68.6205 7.08542C68.8304 7.24096 69.015 7.40832 69.1952 7.59634C69.2317 7.63403 69.2681 7.67171 69.3057 7.71054C69.8337 8.31627 70.052 9.09373 70.1723 9.86708C70.1871 9.94544 70.1871 9.94544 70.2023 10.0254C70.2309 10.2153 70.2376 10.3953 70.2386 10.5873C70.2388 10.624 70.2391 10.6607 70.2393 10.6985C70.2401 10.8208 70.2405 10.943 70.2408 11.0652C70.2413 11.1532 70.2417 11.2411 70.2422 11.3291C70.2437 11.6171 70.2446 11.9051 70.2454 12.193C70.2458 12.2923 70.2461 12.3916 70.2464 12.4909C70.2476 12.9037 70.2487 13.3165 70.2493 13.7294C70.2503 14.3206 70.2522 14.9118 70.2555 15.503C70.2577 15.9191 70.2588 16.3351 70.2591 16.7512C70.2593 16.9996 70.26 17.248 70.2619 17.4964C70.2636 17.7299 70.264 17.9634 70.2633 18.1969C70.2633 18.2825 70.2638 18.3682 70.2648 18.4539C70.2661 18.5709 70.2656 18.6878 70.2647 18.8048C70.265 18.9029 70.265 18.9029 70.2653 19.0031C70.2188 19.2305 70.1202 19.3148 69.9424 19.461C69.8004 19.5311 69.7034 19.5265 69.5446 19.5287C69.4857 19.5296 69.4268 19.5305 69.3661 19.5314C69.0967 19.534 68.8272 19.5363 68.5577 19.5376C68.4155 19.5386 68.2733 19.5401 68.1311 19.5423C67.9263 19.5454 67.7215 19.5466 67.5167 19.5475C67.4532 19.5487 67.3896 19.55 67.3242 19.5514C66.8328 19.55 66.8328 19.55 66.6565 19.3775C66.6219 19.3301 66.5872 19.2827 66.5516 19.2339C66.5326 19.2152 66.5136 19.1964 66.4941 19.1771C66.4883 19.068 66.4867 18.9587 66.4866 18.8495C66.4862 18.7426 66.4862 18.7426 66.4859 18.6336C66.4859 18.554 66.4859 18.4743 66.4859 18.3946C66.4858 18.3112 66.4856 18.2279 66.4853 18.1445C66.4849 17.9645 66.4846 17.7845 66.4844 17.6044C66.4841 17.3193 66.4831 17.0341 66.482 16.749C66.4817 16.6513 66.4813 16.5537 66.4809 16.4561C66.4808 16.4072 66.4806 16.3582 66.4804 16.3079C66.478 15.6438 66.4761 14.9798 66.4754 14.3157C66.4749 13.8682 66.4736 13.4206 66.4714 12.973C66.4703 12.7363 66.4695 12.4996 66.4698 12.2629C66.4701 12.0396 66.4693 11.8164 66.4677 11.5932C66.4673 11.5117 66.4673 11.4302 66.4677 11.3488C66.4706 10.7157 66.398 10.0875 65.9769 9.58324C65.6751 9.2932 65.3663 9.23716 64.9603 9.21779C64.2451 9.23277 63.629 9.63444 63.1334 10.1201C63.0034 10.2598 62.8791 10.4006 62.7585 10.5483C62.73 10.5768 62.7016 10.6052 62.6723 10.6345C62.3479 10.9911 62.3663 11.3383 62.3729 11.7999C62.3728 11.8801 62.3725 11.9602 62.3721 12.0403C62.3716 12.2122 62.3722 12.3839 62.3736 12.5557C62.3757 12.8274 62.3754 13.0991 62.3747 13.3709C62.3738 13.8984 62.3754 14.4259 62.3772 14.9534C62.3795 15.6255 62.3804 16.2976 62.3792 16.9696C62.3789 17.2397 62.3797 17.5097 62.3814 17.7798C62.3823 17.9477 62.3823 18.1156 62.382 18.2835C62.3821 18.3984 62.3833 18.5132 62.3846 18.6281C62.3843 18.6966 62.384 18.7651 62.3837 18.8357C62.3839 18.8951 62.3841 18.9546 62.3844 19.0158C62.3487 19.2201 62.2725 19.3146 62.1263 19.461C61.9546 19.5175 61.8378 19.5259 61.6583 19.5278C61.568 19.5289 61.568 19.5289 61.4758 19.53C61.4108 19.5304 61.3458 19.5308 61.2788 19.5313C61.1786 19.5319 61.1786 19.5319 61.0763 19.5327C60.9349 19.5334 60.7935 19.534 60.6521 19.5345C60.4355 19.5355 60.219 19.538 60.0024 19.5405C59.8652 19.541 59.7279 19.5415 59.5906 19.5419C59.5257 19.5429 59.4608 19.5439 59.3939 19.5449C59.3033 19.5447 59.3033 19.5447 59.2109 19.5444C59.1578 19.5447 59.1047 19.5451 59.05 19.5454C58.8643 19.5092 58.7969 19.4327 58.678 19.2907C58.6002 19.137 58.6132 19.0173 58.613 18.8452C58.6126 18.7391 58.6126 18.7391 58.6123 18.6308C58.6123 18.552 58.6124 18.4731 58.6124 18.3943C58.6122 18.3116 58.612 18.2288 58.6118 18.1461C58.6113 17.9676 58.611 17.7892 58.6108 17.6107C58.6105 17.3279 58.6096 17.0451 58.6085 16.7623C58.6081 16.6654 58.6077 16.5686 58.6074 16.4717C58.6072 16.4232 58.607 16.3746 58.6068 16.3246C58.6044 15.6662 58.6025 15.0078 58.6018 14.3494C58.6013 13.9054 58.6 13.4615 58.5978 13.0176C58.5967 12.7828 58.596 12.5481 58.5963 12.3134C58.5965 12.092 58.5957 11.8707 58.5941 11.6493C58.5937 11.5686 58.5937 11.4879 58.5941 11.4072C58.5971 10.7785 58.5399 10.0779 58.1033 9.58324C57.6636 9.25529 57.2526 9.27139 56.724 9.2994C56.009 9.40456 55.4583 9.91299 54.9998 10.4348C54.9624 10.4759 54.925 10.5171 54.8865 10.5596C54.5264 10.9927 54.4752 11.3204 54.4863 11.8708C54.4862 11.9504 54.4859 12.03 54.4855 12.1096C54.4849 12.2798 54.4858 12.4498 54.4878 12.62C54.4911 12.8891 54.491 13.1582 54.4904 13.4273C54.49 13.8528 54.4917 14.2782 54.4944 14.7037C54.4991 15.4664 54.5012 16.2291 54.501 16.9918C54.501 17.2593 54.5023 17.5267 54.5046 17.7942C54.5059 17.9603 54.5062 18.1265 54.5063 18.2927C54.5067 18.4063 54.5082 18.5199 54.5097 18.6336C54.5096 18.7014 54.5095 18.7692 54.5093 18.839C54.5097 18.8978 54.5101 18.9566 54.5105 19.0172C54.4752 19.2194 54.3949 19.3142 54.2527 19.461C54.1093 19.5318 54.0102 19.5261 53.8497 19.5278C53.7596 19.5289 53.7596 19.5289 53.6677 19.53C53.57 19.5306 53.57 19.5306 53.4703 19.5313C53.3702 19.5319 53.3702 19.5319 53.268 19.5327C53.1265 19.5334 52.985 19.534 52.8435 19.5345C52.6271 19.5355 52.4106 19.538 52.1942 19.5405C52.0568 19.541 51.9195 19.5415 51.7821 19.5419C51.7173 19.5429 51.6526 19.5439 51.5858 19.5449C51.1374 19.5437 51.1374 19.5437 50.9086 19.4133C50.7632 19.2421 50.7398 19.104 50.7385 18.8879C50.7381 18.8407 50.7377 18.7934 50.7373 18.7448C50.7371 18.6931 50.737 18.6414 50.7368 18.5882C50.7364 18.5336 50.736 18.479 50.7357 18.4228C50.7345 18.2417 50.7339 18.0606 50.7333 17.8794C50.733 17.8174 50.7328 17.7554 50.7326 17.6914C50.7314 17.3625 50.7305 17.0336 50.73 16.7046C50.7294 16.3666 50.7274 16.0286 50.7251 15.6906C50.7236 15.4293 50.7231 15.1681 50.7229 14.9068C50.7226 14.7823 50.722 14.6579 50.7209 14.5334C50.7026 12.269 51.8904 10.4759 53.4499 8.89159C54.4219 7.91866 55.4646 6.97972 56.8389 6.63127C56.8775 6.62141 56.9161 6.61155 56.9559 6.60139C57.4017 6.49955 57.849 6.49036 58.3044 6.48935C58.3451 6.4892 58.3857 6.48905 58.4276 6.48889C59.1 6.48944 59.6769 6.56733 60.2872 6.85835C60.37 6.89622 60.37 6.89622 60.4545 6.93485C61.0416 7.24231 61.568 7.79251 61.8389 8.3911C61.861 8.48508 61.8811 8.57965 61.8964 8.67494C61.9533 8.61874 61.9533 8.61874 62.0113 8.56141C62.0381 8.53521 62.0648 8.50901 62.0924 8.48202C62.1548 8.41991 62.2163 8.35688 62.2769 8.29308C63.942 6.57409 66.4399 5.74875 68.6205 7.08542Z" fill="#FEFEFE"/>
<path d="M28.9081 7.19824C28.9579 7.23219 29.0076 7.26614 29.0589 7.30113C29.887 8.05448 30.1578 9.25198 30.2299 10.3205C30.2386 10.6372 30.239 10.9538 30.2392 11.2707C30.2394 11.3658 30.2397 11.461 30.24 11.5562C30.2408 11.8131 30.2412 12.0701 30.2414 12.3271C30.2416 12.4878 30.2418 12.6484 30.2421 12.8091C30.2429 13.3124 30.2434 13.8157 30.2436 14.319C30.2439 14.8991 30.2449 15.4793 30.2466 16.0595C30.2478 16.5088 30.2484 16.9581 30.2485 17.4074C30.2485 17.6754 30.2489 17.9434 30.2499 18.2115C30.2508 18.4633 30.251 18.7151 30.2505 18.9669C30.2504 19.0592 30.2507 19.1515 30.2512 19.2439C30.252 19.37 30.2516 19.4961 30.251 19.6223C30.2511 19.6928 30.2512 19.7633 30.2513 19.836C30.2224 20.0954 30.1387 20.2872 29.9526 20.4735C29.7919 20.5575 29.6764 20.5608 29.4948 20.5618C29.3944 20.5629 29.3944 20.5629 29.292 20.564C29.1838 20.5637 29.1838 20.5637 29.0735 20.5635C28.9993 20.5638 28.925 20.5641 28.8485 20.5644C28.6915 20.5649 28.5344 20.5647 28.3774 20.5642C28.1765 20.5635 27.9757 20.5647 27.7748 20.5663C27.5827 20.5676 27.3906 20.5672 27.1985 20.567C27.1266 20.5676 27.0546 20.5683 26.9805 20.5689C26.9133 20.5684 26.8462 20.5679 26.7771 20.5673C26.6887 20.5673 26.6887 20.5673 26.5986 20.5673C26.3946 20.5314 26.2976 20.4518 26.1495 20.3118C26.101 20.2026 26.101 20.2026 26.0837 20.0909C26.0768 20.0507 26.07 20.0104 26.0629 19.9689C26.0542 19.9068 26.0542 19.9068 26.0453 19.8434C26.0384 19.8011 26.0314 19.7588 26.0243 19.7153C26.0075 19.6115 25.9921 19.5075 25.977 19.4035C25.915 19.4426 25.853 19.4818 25.7891 19.5221C24.8622 20.0996 23.9603 20.5771 22.8736 20.7659C22.7776 20.7849 22.7776 20.7849 22.6796 20.8043C20.9996 21.0866 19.1623 20.935 17.7012 20.0279C16.7546 19.364 16.1785 18.496 15.977 17.3598C15.8701 15.7023 16.1759 14.4217 17.2859 13.1563C18.5766 11.8035 20.8009 11.5289 22.5862 11.4559C22.7919 11.4509 22.9975 11.4476 23.2032 11.4446C23.2581 11.4437 23.3131 11.4428 23.3697 11.4418C23.6483 11.4374 23.9268 11.4343 24.2055 11.4334C24.3098 11.4322 24.4141 11.431 24.5185 11.4297C24.566 11.43 24.6135 11.4303 24.6624 11.4306C25.0359 11.4243 25.3516 11.3302 25.625 11.0691C25.8747 10.5896 25.8674 10.081 25.7112 9.57187C25.5311 9.08704 25.2467 8.70018 24.7632 8.47841C24.7003 8.45521 24.6374 8.43202 24.5726 8.40812C24.5098 8.38448 24.4471 8.36084 24.3824 8.33649C23.3755 8.01531 22.2492 8.22091 21.3252 8.67355C21.0606 8.84549 20.8773 9.06199 20.7436 9.34834C20.7251 9.38647 20.7067 9.4246 20.6877 9.46388C20.6499 9.54466 20.6124 9.62553 20.575 9.70647C20.5559 9.74636 20.5369 9.78624 20.5173 9.82733C20.5007 9.86341 20.4841 9.89948 20.467 9.93665C20.3841 10.0648 20.3031 10.1261 20.1724 10.207C20.0311 10.2286 20.0311 10.2286 19.8713 10.229C19.8113 10.2295 19.7512 10.2301 19.6894 10.2306C19.6248 10.2303 19.5603 10.2299 19.4938 10.2296C19.3939 10.2298 19.3939 10.2298 19.292 10.2301C19.1511 10.2302 19.0103 10.2299 18.8695 10.2292C18.6541 10.2283 18.4387 10.2292 18.2232 10.2303C18.0864 10.2301 17.9496 10.2299 17.8128 10.2296C17.7483 10.2299 17.6839 10.2303 17.6175 10.2306C17.5573 10.2301 17.4971 10.2296 17.4351 10.229C17.3823 10.2289 17.3295 10.2287 17.2751 10.2286C17.0952 10.2024 16.9865 10.1402 16.8391 10.0367C16.6707 9.7872 16.6827 9.53038 16.7242 9.2419C16.8868 8.68239 17.1191 8.17871 17.4713 7.70915C17.5012 7.6692 17.5312 7.62924 17.562 7.58808C18.5817 6.34121 20.3078 5.94996 21.8391 5.77902C21.9039 5.77156 21.9686 5.76409 22.0353 5.7564C24.3463 5.54683 27.0476 5.6707 28.9081 7.19824ZM20.8022 14.8937C20.3549 15.4449 20.3061 15.9954 20.3449 16.6786C20.417 17.0966 20.6339 17.454 20.9625 17.727C21.0786 17.8053 21.1953 17.867 21.3219 17.9275C21.3655 17.9498 21.4091 17.9721 21.4541 17.9951C22.3581 18.3748 23.5814 18.2329 24.4748 17.886C24.9699 17.6829 25.379 17.4057 25.7472 17.0192C25.7963 16.972 25.7963 16.972 25.8464 16.9238C25.964 16.7121 25.9529 16.4943 25.9591 16.2564C25.9609 16.2056 25.9627 16.1549 25.9645 16.1026C25.9679 16.0009 25.9709 15.8992 25.9734 15.7975C25.9765 15.6762 25.9812 15.5551 25.9862 15.4339C25.9985 14.9867 25.9722 14.6556 25.6645 14.3049C24.6118 13.4173 21.7684 13.9327 20.8022 14.8937Z" fill="black"/>
<path d="M32.5112 6.03868C32.5691 6.03839 32.6271 6.03809 32.6868 6.03778C32.8088 6.03742 32.9308 6.03749 33.0528 6.03798C33.2381 6.03846 33.4233 6.03683 33.6085 6.03502C33.7277 6.03493 33.8468 6.03497 33.9659 6.03514C34.0206 6.0345 34.0753 6.03386 34.1316 6.0332C34.5536 6.03748 34.9372 6.1071 35.2756 6.37181C35.5351 6.63995 35.6401 6.96711 35.7545 7.31376C35.7756 7.37509 35.7967 7.43643 35.8184 7.49962C35.8874 7.70062 35.9551 7.90201 36.0228 8.10342C36.1076 8.35167 36.1929 8.59978 36.2782 8.8479C36.3154 8.95649 36.3526 9.06512 36.3897 9.17376C36.6255 9.8638 36.8708 10.5503 37.1183 11.2363C37.1978 11.4572 37.2773 11.6781 37.3567 11.8989C37.3758 11.952 37.3949 12.005 37.4146 12.0596C37.5473 12.4286 37.6791 12.7978 37.8102 13.1674C37.8279 13.2171 37.8456 13.2669 37.8638 13.3182C37.9465 13.5512 38.029 13.7843 38.1115 14.0174C38.1402 14.0984 38.169 14.1795 38.1977 14.2606C38.2225 14.3306 38.2473 14.4007 38.2728 14.4729C38.3267 14.6295 38.3267 14.6295 38.3899 14.7489C38.4114 14.6884 38.4329 14.628 38.4551 14.5657C38.9827 13.0865 39.5236 11.6125 40.075 10.1418C40.308 9.5199 40.5398 8.89771 40.7639 8.27262C40.7827 8.22041 40.8014 8.1682 40.8208 8.11441C40.9065 7.87551 40.9917 7.63645 41.076 7.39705C41.1056 7.31414 41.1352 7.23123 41.1649 7.14833C41.2021 7.04277 41.2021 7.04277 41.2401 6.93508C41.3758 6.61511 41.5419 6.36738 41.8382 6.17684C42.1869 6.05012 42.5126 6.04676 42.8816 6.04822C42.9426 6.04811 43.0036 6.048 43.0664 6.04789C43.1949 6.04781 43.3234 6.04802 43.4519 6.0485C43.6479 6.0491 43.8438 6.0485 44.0398 6.04778C44.165 6.04785 44.2902 6.048 44.4154 6.04822C44.4736 6.04799 44.5319 6.04776 44.5919 6.04752C45.3328 6.05234 45.3328 6.05234 45.5738 6.29037C45.6526 6.77637 45.5006 7.20228 45.3316 7.65193C45.3062 7.72189 45.2808 7.79185 45.2546 7.86394C45.186 8.05279 45.1162 8.24119 45.0462 8.42952C44.9727 8.62788 44.9003 8.82664 44.8278 9.02537C44.7107 9.34595 44.593 9.6663 44.4747 9.98645C44.3316 10.374 44.1896 10.7619 44.0483 11.1501C43.893 11.5765 43.7368 12.0026 43.5798 12.4285C43.4218 12.857 43.266 13.2861 43.1115 13.7159C43.0095 13.9994 42.9068 14.2828 42.804 14.5661C42.7548 14.7022 42.7059 14.8385 42.6572 14.9749C42.3859 15.7356 42.1032 16.4501 41.6657 17.1332C41.6352 17.1811 41.6047 17.2291 41.5733 17.2785C41.4998 17.3903 41.4241 17.4998 41.3461 17.6086C41.3194 17.6463 41.2927 17.684 41.2652 17.7228C41.0469 18.0285 40.8177 18.3229 40.5738 18.6091C40.5492 18.6385 40.5245 18.6679 40.4991 18.6982C39.8943 19.4188 39.2536 20.0763 38.5048 20.6528C38.4497 20.6975 38.3946 20.7422 38.3378 20.7883C37.5372 21.4244 36.5002 22.126 35.4588 22.2423C35.4845 22.2045 35.5103 22.1667 35.5367 22.1277C35.7793 21.7625 35.984 21.399 36.1485 20.9934C36.1654 20.9571 36.1823 20.9207 36.1997 20.8832C36.4101 20.3236 35.9668 19.4841 35.7595 18.9677C35.6762 18.7598 35.5947 18.5512 35.5132 18.3426C35.4953 18.2969 35.4774 18.2512 35.459 18.2041C35.2174 17.584 34.9885 16.9592 34.7584 16.3349C34.7115 16.2077 34.6646 16.0806 34.6178 15.9534C34.5468 15.761 34.4758 15.5685 34.4049 15.376C34.1624 14.7182 33.9182 14.0612 33.6736 13.4042C33.6095 13.232 33.5454 13.0598 33.4814 12.8876C33.4387 12.7729 33.396 12.6582 33.3533 12.5435C33.2226 12.1924 33.0921 11.8413 32.9619 11.4901C32.8737 11.2525 32.7855 11.0149 32.6973 10.7774C32.654 10.6606 32.6107 10.5439 32.5675 10.4272C32.3387 9.8095 32.1075 9.19292 31.8689 8.57886C31.8282 8.47353 31.7874 8.3682 31.7467 8.26287C31.6711 8.06735 31.5945 7.87223 31.5173 7.67731C31.4834 7.58984 31.4495 7.50237 31.4156 7.41488C31.4001 7.37639 31.3845 7.33791 31.3685 7.29826C31.247 6.98011 31.2036 6.68373 31.3209 6.35779C31.6283 6.0257 32.0879 6.0374 32.5112 6.03868Z" fill="black"/>
<path d="M81.8183 7.72778C83.2513 8.93612 83.986 10.5768 84.1387 12.4218C84.1463 12.5672 84.1513 12.7127 84.1531 12.8582C84.1553 12.9639 84.1553 12.9639 84.1576 13.0718C84.1304 13.3626 84.0512 13.5341 83.8368 13.7358C83.539 13.9219 83.1667 13.8705 82.8279 13.8668C82.7469 13.8668 82.6659 13.8668 82.5849 13.8669C82.3656 13.867 82.1463 13.8657 81.927 13.8641C81.6976 13.8626 81.4682 13.8625 81.2388 13.8622C80.8046 13.8615 80.3705 13.8597 79.9363 13.8574C79.442 13.8549 78.9476 13.8536 78.4532 13.8525C77.4365 13.8501 76.4198 13.8461 75.4031 13.841C75.4208 13.9872 75.4388 14.1333 75.4568 14.2794C75.4618 14.3206 75.4668 14.3618 75.4719 14.4042C75.5703 15.1956 75.8579 15.9497 76.4843 16.4772C77.1694 16.9807 77.9137 17.0117 78.7364 16.9633C79.3446 16.8745 79.9009 16.5204 80.2882 16.055C80.379 15.9246 80.4657 15.7921 80.5519 15.6587C80.6982 15.4519 80.853 15.3392 81.0928 15.2603C81.1735 15.2543 81.2546 15.2513 81.3355 15.2502C81.3843 15.2495 81.433 15.2487 81.4832 15.248C81.5619 15.2474 81.5619 15.2474 81.6421 15.2467C81.6962 15.2463 81.7502 15.2458 81.8059 15.2453C81.9203 15.2446 82.0346 15.2439 82.149 15.2435C82.3239 15.2425 82.4988 15.24 82.6738 15.2375C82.7849 15.2369 82.896 15.2365 83.007 15.2361C83.0594 15.2351 83.1117 15.2341 83.1656 15.2331C83.526 15.2343 83.526 15.2343 83.7129 15.3618C83.8184 15.5252 83.8173 15.6501 83.7856 15.8388C83.4017 17.0839 82.3279 18.1209 81.2041 18.7338C80.3016 19.2071 79.3952 19.3577 78.3844 19.3582C78.3138 19.3589 78.2431 19.3596 78.1703 19.3603C76.4848 19.363 74.9476 18.8578 73.7257 17.692C72.4318 16.4032 71.9472 14.7425 71.9297 12.9647C71.9393 11.1402 72.5511 9.51985 73.8514 8.22095C73.8854 8.18327 73.9194 8.14558 73.9544 8.10675C75.8392 6.0536 79.7163 6.07529 81.8183 7.72778Z" fill="#FDFEFE"/>
<path d="M40.8616 19.4609C40.8996 19.4609 40.9375 19.4609 40.9766 19.4609C40.6648 20.5541 40.2106 21.6177 39.7122 22.64C39.69 22.6857 39.6678 22.7314 39.6449 22.7785C39.314 23.4511 38.9298 24.0501 38.4478 24.6269C38.4217 24.6586 38.3956 24.6902 38.3686 24.7229C37.5496 25.7021 36.4566 26.2907 35.1726 26.4336C34.3717 26.5021 33.0031 26.5667 32.3179 26.0938C32.0979 25.7953 32.1083 25.4199 32.1087 25.0664C32.1085 25.0172 32.1082 24.9681 32.108 24.9174C32.1076 24.8141 32.1076 24.7107 32.1079 24.6074C32.108 24.4495 32.1067 24.2918 32.1052 24.1339C32.1051 24.0332 32.1051 23.9324 32.1051 23.8317C32.1046 23.7847 32.1041 23.7378 32.1035 23.6894C32.1056 23.4284 32.1176 23.2432 32.2984 23.0374C32.5244 22.9074 32.7184 22.9152 32.9753 22.9291C33.0519 22.9326 33.1285 22.9361 33.205 22.9396C33.3238 22.9457 33.4425 22.9521 33.5613 22.9587C36.0764 23.0926 38.3405 21.7182 40.1563 20.111C40.5142 19.7914 40.5142 19.7914 40.8616 19.4609Z" fill="black"/>
<path d="M0.0572699 14.6357C0.26261 14.7313 0.399356 14.8453 0.563735 15.0012C1.53474 15.8927 2.70054 16.5506 3.90784 17.0768C3.99873 17.1166 4.0896 17.1565 4.18045 17.1964C4.22644 17.2166 4.27243 17.2368 4.31981 17.2576C4.35455 17.2729 4.38929 17.2881 4.42509 17.3039C4.42946 17.6948 4.43248 18.0858 4.43456 18.4767C4.43542 18.6097 4.4366 18.7427 4.43809 18.8757C4.44019 19.0669 4.44116 19.2581 4.44192 19.4493C4.44281 19.5087 4.4437 19.5681 4.44462 19.6293C4.44474 20.1517 4.44474 20.1517 4.25267 20.3694C4.06385 20.5411 3.93433 20.5615 3.68035 20.5635C3.57676 20.5649 3.57676 20.5649 3.47108 20.5662C3.35946 20.5663 3.35946 20.5663 3.24558 20.5663C3.16813 20.5667 3.09069 20.5671 3.01324 20.5676C2.85101 20.5684 2.6888 20.5684 2.52657 20.5681C2.31926 20.5678 2.11203 20.5695 1.90473 20.5718C1.74478 20.5733 1.58485 20.5734 1.42489 20.5732C1.3115 20.5734 1.1981 20.5748 1.08472 20.5762C0.510879 20.5718 0.510879 20.5718 0.30228 20.4098C0.131444 20.2076 0.0427373 20.0619 0.0434476 19.7967C0.0432896 19.751 0.0431315 19.7053 0.0429688 19.6583C0.043382 19.6086 0.0437953 19.559 0.044221 19.5079C0.0442042 19.4553 0.0441875 19.4026 0.0441702 19.3484C0.0442502 19.1746 0.0451443 19.0007 0.0460451 18.8269C0.0462595 18.7063 0.0464231 18.5857 0.0465379 18.4651C0.0469767 18.1478 0.0481058 17.8305 0.0493774 17.5132C0.0505534 17.1893 0.0510783 16.8655 0.0516575 16.5417C0.0528901 15.9064 0.0548518 15.2711 0.0572699 14.6357Z" fill="black"/>
<path d="M78.0963 8.99717C78.1418 8.99749 78.1872 8.99781 78.234 8.99814C78.8685 9.01114 79.397 9.20704 79.8815 9.62096C80.4272 10.1828 80.6897 10.9188 80.6897 11.683C78.9449 11.683 77.2 11.683 75.4023 11.683C75.5078 10.8496 75.7842 10.0983 76.4368 9.52583C76.966 9.15739 77.4546 8.99242 78.0963 8.99717Z" fill="#33CCCC"/>
<path d="M51.3177 6.72927C51.3754 6.72873 51.4332 6.72819 51.4926 6.72763C51.555 6.72768 51.6173 6.72774 51.6815 6.72779C51.7456 6.72755 51.8098 6.7273 51.8758 6.72705C52.0116 6.72673 52.1473 6.7267 52.2831 6.72694C52.4907 6.72712 52.6983 6.72579 52.9059 6.72435C53.0378 6.72422 53.1696 6.72418 53.3015 6.72424C53.3636 6.72372 53.4256 6.72319 53.4896 6.72266C54.0329 6.72596 54.0329 6.72596 54.252 6.91517C54.3747 7.09704 54.3802 7.14334 54.3741 7.35158C54.3731 7.39746 54.372 7.44334 54.371 7.49062C54.3696 7.52552 54.3683 7.56043 54.3669 7.59639C54.3182 7.62259 54.2694 7.64879 54.2192 7.67578C52.9351 8.37657 51.7866 9.29573 50.9128 10.4656C50.8588 10.5347 50.8588 10.5347 50.8037 10.6051C50.7847 10.6051 50.7658 10.6051 50.7462 10.6051C50.7436 10.1501 50.7415 9.69516 50.7403 9.24017C50.7397 9.0289 50.7389 8.81763 50.7376 8.60636C50.7363 8.40244 50.7356 8.19853 50.7353 7.99461C50.7351 7.91684 50.7347 7.83907 50.7341 7.76131C50.7333 7.65232 50.7332 7.54333 50.7332 7.43435C50.7329 7.37232 50.7327 7.3103 50.7324 7.2464C50.7464 7.08352 50.7693 6.99307 50.8612 6.8584C51.0481 6.73533 51.1015 6.73038 51.3177 6.72927Z" fill="#FDFEFE"/>
</g>
<defs>
<clipPath id="clip0_2413_4467">
<rect width="90" height="26" fill="white" transform="translate(0 0.5)"/>
</clipPath>
</defs>
</svg>
