<svg width="90" height="26" viewBox="0 0 90 26" fill="none" xmlns="http://www.w3.org/2000/svg">
<g clip-path="url(#clip0_2009_1531)">
<path d="M52.1175 2.48976C52.2399 2.48961 52.3624 2.48944 52.4848 2.48925C52.8204 2.48879 53.1559 2.48869 53.4915 2.48864C53.8538 2.48854 54.216 2.48811 54.5783 2.48773C55.4112 2.48692 56.2441 2.48659 57.077 2.48633C57.4889 2.48619 57.9009 2.48599 58.3128 2.48578C59.7239 2.48505 61.1349 2.48444 62.546 2.48424C62.6345 2.48423 62.723 2.48422 62.8115 2.48421C62.9002 2.48419 62.9889 2.48418 63.0776 2.48417C63.2555 2.48414 63.4335 2.48412 63.6114 2.48409C63.6555 2.48409 63.6996 2.48408 63.7451 2.48407C65.1756 2.48387 66.606 2.48296 68.0365 2.48164C69.5502 2.48024 71.064 2.47947 72.5778 2.4794C72.7441 2.47939 72.9103 2.47938 73.0766 2.47936C73.138 2.47936 73.138 2.47936 73.2007 2.47935C73.8584 2.47929 74.516 2.47866 75.1737 2.47784C75.8351 2.47702 76.4966 2.47685 77.158 2.47729C77.5161 2.47751 77.8741 2.47746 78.2321 2.47666C78.5603 2.47594 78.8885 2.47601 79.2166 2.4767C79.3349 2.47681 79.4532 2.47664 79.5715 2.47614C81.4423 2.46879 82.775 3.08396 84.1043 4.38035C84.4736 4.74528 84.8329 5.11425 85.1725 5.50646C85.2298 5.57189 85.2871 5.6373 85.3444 5.70271C85.6505 6.05407 85.9525 6.40791 86.2483 6.76779C86.3965 6.94633 86.5476 7.12236 86.6991 7.29822C86.9185 7.55327 87.1334 7.81109 87.3438 8.07347C87.4748 8.23565 87.6074 8.39639 87.7403 8.55704C88.073 8.95953 88.4 9.36513 88.7174 9.77957C88.8013 9.88821 88.8866 9.99578 88.9719 10.1034C89.5889 10.8881 90.0538 11.7396 89.9426 12.7728C89.7673 14.0645 88.9602 14.9153 88.1035 15.8383C88.0362 15.9138 87.9692 15.9895 87.9024 16.0654C87.4872 16.5357 87.0598 16.9952 86.6324 17.4547C86.5273 17.5677 86.4224 17.6809 86.3175 17.7942C86.185 17.9371 86.0523 18.0799 85.9196 18.2226C85.8932 18.2511 85.8668 18.2795 85.8396 18.3088C85.637 18.5267 85.4337 18.7439 85.23 18.9606C85.1955 18.9973 85.1611 19.034 85.1256 19.0717C82.4691 21.8944 82.4691 21.8944 80.8047 22.2532C80.6399 22.2586 80.4765 22.261 80.3116 22.2607C80.2611 22.2608 80.2106 22.2609 80.1586 22.261C79.9881 22.2613 79.8177 22.2612 79.6473 22.2612C79.5243 22.2613 79.4013 22.2615 79.2783 22.2617C78.9395 22.2621 78.6006 22.2622 78.2617 22.2623C77.8966 22.2624 77.5314 22.2628 77.1663 22.2632C76.3256 22.264 75.4848 22.2643 74.6441 22.2646C74.2284 22.2647 73.8128 22.2649 73.3972 22.2651C71.9739 22.2659 70.5506 22.2665 69.1273 22.2667C69.038 22.2667 68.9486 22.2667 68.8592 22.2667C68.7696 22.2667 68.6801 22.2667 68.5905 22.2668C68.4108 22.2668 68.231 22.2668 68.0513 22.2668C67.9845 22.2668 67.9845 22.2668 67.9163 22.2668C66.4728 22.2671 65.0293 22.268 63.5858 22.2693C62.0591 22.2707 60.5324 22.2715 59.0057 22.2715C58.8379 22.2715 58.6701 22.2715 58.5023 22.2716C58.4403 22.2716 58.4403 22.2716 58.3771 22.2716C57.7136 22.2716 57.0501 22.2723 56.3866 22.2731C55.7189 22.2739 55.0512 22.2741 54.3834 22.2736C54.022 22.2734 53.6606 22.2735 53.2992 22.2743C52.9678 22.275 52.6363 22.2749 52.3049 22.2742C52.1856 22.2741 52.0662 22.2743 51.9468 22.2748C50.8389 22.2791 49.5325 22.2679 48.6787 21.4642C47.8233 20.5821 47.9055 19.2729 47.9088 18.1313C47.9086 17.9929 47.9083 17.8545 47.9079 17.7161C47.9072 17.3815 47.9073 17.0468 47.9078 16.7122C47.9082 16.4399 47.9082 16.1676 47.908 15.8953C47.908 15.8563 47.908 15.8174 47.908 15.7772C47.9079 15.698 47.9078 15.6187 47.9078 15.5395C47.9073 14.7993 47.9079 14.059 47.9088 13.3188C47.9096 12.6857 47.9094 12.0526 47.9086 11.4195C47.9077 10.6816 47.9073 9.94374 47.9079 9.20586C47.9079 9.12696 47.908 9.04805 47.908 8.96915C47.9081 8.93034 47.9081 8.89153 47.9081 8.85154C47.9083 8.58004 47.908 8.30853 47.9076 8.03702C47.9071 7.67059 47.9075 7.30416 47.9085 6.93772C47.9087 6.80393 47.9086 6.67013 47.9082 6.53633C47.9019 4.09807 47.9019 4.09807 48.7357 3.23572C49.6437 2.40034 50.9644 2.4892 52.1175 2.48976Z" fill="#33CCCC"/>
<path d="M1.74287 0.0419711C1.81414 0.0417722 1.88541 0.0415732 1.95885 0.0413682C2.15415 0.0409544 2.34945 0.0410514 2.54475 0.0414113C2.75104 0.0417006 2.95733 0.0414315 3.16362 0.0412539C3.51147 0.0410472 3.85932 0.0413191 4.20717 0.0418602C4.60458 0.0424714 5.00198 0.042283 5.39938 0.0416529C5.74351 0.0411298 6.08763 0.0410689 6.43176 0.0413621C6.63591 0.0415357 6.84006 0.0415724 7.04421 0.0411876C7.88318 0.0398278 8.71883 0.0539933 9.55604 0.108164C9.62586 0.112679 9.69568 0.117195 9.76762 0.121847C11.4515 0.242047 13.1887 0.702557 14.3813 1.95065C15.5391 3.30226 15.9159 5.10283 15.7786 6.8337C15.6601 8.12605 15.2925 9.29867 14.483 10.3318C14.4477 10.3771 14.4124 10.4224 14.3761 10.469C13.379 11.658 11.8322 12.2575 10.3414 12.5635C10.3009 12.5719 10.2604 12.5802 10.2187 12.5888C9.42803 12.736 8.62781 12.7807 7.82483 12.7863C7.72118 12.7871 7.72118 12.7871 7.61544 12.7879C7.32954 12.7896 7.04367 12.7907 6.75777 12.7902C6.5459 12.79 6.3341 12.7916 6.12224 12.7934C6.05842 12.7929 5.99459 12.7923 5.92883 12.7917C5.43949 12.7977 5.04113 12.908 4.68412 13.2518C4.47768 13.6002 4.46411 13.9243 4.45917 14.3175C4.45806 14.3725 4.45694 14.4275 4.4558 14.4841C4.45238 14.6587 4.4497 14.8334 4.44705 15.0081C4.44485 15.1269 4.44261 15.2457 4.44031 15.3644C4.43481 15.6549 4.42997 15.9453 4.4255 16.2357C2.46852 15.4915 0.961192 13.5359 0.0576796 11.751C0.0518206 11.6112 0.0494388 11.4729 0.0496083 11.3331C0.0494375 11.2895 0.0492668 11.2459 0.0490909 11.201C0.0485903 11.0541 0.0485048 10.9073 0.0484191 10.7604C0.0481532 10.6554 0.0478645 10.5504 0.0475545 10.4454C0.0467991 10.1596 0.0464296 9.87373 0.0461746 9.58788C0.0460063 9.40931 0.0457703 9.23074 0.0455134 9.05217C0.044727 8.49354 0.0441717 7.93492 0.04395 7.37629C0.0436927 6.73134 0.042685 6.0864 0.0410189 5.44145C0.0397762 4.94309 0.0391969 4.44473 0.0391201 3.94636C0.0390599 3.64867 0.0387206 3.35098 0.0376937 3.05329C0.0367459 2.77307 0.036623 2.49285 0.037127 2.21263C0.0371712 2.10992 0.036922 2.00722 0.0363535 1.90452C0.0356212 1.76397 0.0359609 1.62345 0.0365594 1.4829C0.0360963 1.44255 0.0356333 1.40221 0.0351562 1.36064C0.0385347 1.01979 0.11362 0.708386 0.335383 0.440293C0.372943 0.409705 0.410504 0.379116 0.449203 0.347601C0.486319 0.316134 0.523435 0.284668 0.561676 0.252248C0.931866 0.0153028 1.31734 0.0405112 1.74287 0.0419711ZM4.54044 3.74662C4.39093 3.95892 4.4089 4.18836 4.40971 4.43702C4.40942 4.48357 4.40912 4.53012 4.40882 4.57808C4.40802 4.73187 4.40808 4.88564 4.40821 5.03943C4.40799 5.14648 4.40774 5.25352 4.40746 5.36057C4.40703 5.58495 4.40705 5.80933 4.40735 6.03371C4.40769 6.32094 4.40671 6.60815 4.40538 6.89538C4.40453 7.11648 4.40448 7.33758 4.40466 7.55869C4.40463 7.66456 4.40433 7.77044 4.40375 7.87632C4.40304 8.02456 4.40343 8.17276 4.4041 8.32101C4.40366 8.36454 4.40322 8.40808 4.40277 8.45294C4.40545 8.72426 4.45252 8.90926 4.59791 9.13963C4.89506 9.41413 5.18407 9.3991 5.56908 9.39487C5.66103 9.39499 5.66103 9.39499 5.75484 9.39512C5.88498 9.39503 6.01512 9.39437 6.14526 9.39319C6.33936 9.39158 6.53338 9.39202 6.72749 9.39276C8.82485 9.40557 8.82485 9.40557 10.6284 8.46927C11.2706 7.79265 11.423 6.9332 11.3959 6.03488C11.3592 5.34315 11.1205 4.66876 10.5989 4.19034C9.99912 3.74526 9.25747 3.58282 8.52189 3.54482C8.45611 3.54137 8.45611 3.54137 8.38899 3.53784C7.78329 3.50911 7.17706 3.50481 6.57076 3.50279C6.43245 3.50213 6.29414 3.50095 6.15584 3.4993C5.95351 3.49688 5.75122 3.49596 5.54888 3.49537C5.45648 3.49388 5.45648 3.49388 5.36221 3.49236C5.01401 3.49337 4.80075 3.50874 4.54044 3.74662Z" fill="white"/>
<path d="M68.6205 6.58493C68.8304 6.74047 69.015 6.90783 69.1952 7.09585C69.2317 7.13354 69.2681 7.17122 69.3057 7.21005C69.8337 7.81579 70.052 8.59324 70.1723 9.36659C70.1871 9.44496 70.1871 9.44496 70.2023 9.5249C70.2309 9.71484 70.2376 9.89479 70.2386 10.0868C70.2388 10.1235 70.2391 10.1602 70.2393 10.198C70.2401 10.3203 70.2405 10.4425 70.2408 10.5647C70.2413 10.6527 70.2417 10.7406 70.2422 10.8286C70.2437 11.1166 70.2446 11.4046 70.2454 11.6926C70.2458 11.7918 70.2461 11.8911 70.2464 11.9904C70.2476 12.4032 70.2487 12.8161 70.2493 13.2289C70.2503 13.8201 70.2522 14.4113 70.2555 15.0025C70.2577 15.4186 70.2588 15.8346 70.2591 16.2507C70.2593 16.4991 70.26 16.7475 70.2619 16.9959C70.2636 17.2294 70.264 17.4629 70.2633 17.6964C70.2633 17.7821 70.2638 17.8677 70.2648 17.9534C70.2661 18.0704 70.2656 18.1873 70.2647 18.3043C70.265 18.4024 70.265 18.4024 70.2653 18.5026C70.2188 18.73 70.1202 18.8143 69.9424 18.9605C69.8004 19.0306 69.7034 19.026 69.5446 19.0282C69.4857 19.0291 69.4268 19.03 69.3661 19.031C69.0967 19.0335 68.8272 19.0358 68.5577 19.0371C68.4155 19.0381 68.2733 19.0396 68.1311 19.0418C67.9263 19.0449 67.7215 19.0461 67.5167 19.047C67.4532 19.0482 67.3896 19.0495 67.3242 19.0509C66.8328 19.0495 66.8328 19.0495 66.6565 18.877C66.6219 18.8296 66.5872 18.7822 66.5516 18.7334C66.5326 18.7147 66.5136 18.6959 66.4941 18.6766C66.4883 18.5675 66.4867 18.4582 66.4866 18.349C66.4862 18.2421 66.4862 18.2421 66.4859 18.1331C66.4859 18.0535 66.4859 17.9738 66.4859 17.8941C66.4858 17.8108 66.4856 17.7274 66.4853 17.644C66.4849 17.464 66.4846 17.284 66.4844 17.1039C66.4841 16.8188 66.4831 16.5336 66.482 16.2485C66.4817 16.1508 66.4813 16.0532 66.4809 15.9556C66.4808 15.9067 66.4806 15.8578 66.4804 15.8074C66.478 15.1433 66.4761 14.4793 66.4754 13.8152C66.4749 13.3677 66.4736 12.9201 66.4714 12.4725C66.4703 12.2358 66.4695 11.9991 66.4698 11.7624C66.4701 11.5391 66.4693 11.3159 66.4677 11.0927C66.4673 11.0112 66.4673 10.9298 66.4677 10.8483C66.4706 10.2152 66.398 9.58698 65.9769 9.08275C65.6751 8.79272 65.3663 8.73667 64.9603 8.7173C64.2451 8.73228 63.629 9.13395 63.1334 9.61961C63.0034 9.75934 62.8791 9.90013 62.7585 10.0478C62.73 10.0763 62.7016 10.1047 62.6723 10.134C62.3479 10.4906 62.3663 10.8378 62.3729 11.2994C62.3728 11.3796 62.3725 11.4597 62.3721 11.5399C62.3716 11.7117 62.3722 11.8834 62.3736 12.0552C62.3757 12.327 62.3754 12.5987 62.3747 12.8704C62.3738 13.3979 62.3754 13.9254 62.3772 14.4529C62.3795 15.125 62.3804 15.7971 62.3792 16.4691C62.3789 16.7392 62.3797 17.0092 62.3814 17.2793C62.3823 17.4472 62.3823 17.6151 62.382 17.783C62.3821 17.8979 62.3833 18.0127 62.3846 18.1276C62.3843 18.1961 62.384 18.2646 62.3837 18.3352C62.3839 18.3946 62.3841 18.4541 62.3844 18.5153C62.3487 18.7196 62.2725 18.8142 62.1263 18.9605C61.9546 19.017 61.8378 19.0254 61.6583 19.0273C61.568 19.0284 61.568 19.0284 61.4758 19.0295C61.4108 19.0299 61.3458 19.0303 61.2788 19.0308C61.1786 19.0315 61.1786 19.0315 61.0763 19.0322C60.9349 19.0329 60.7935 19.0336 60.6521 19.034C60.4355 19.035 60.219 19.0375 60.0024 19.04C59.8652 19.0406 59.7279 19.041 59.5906 19.0414C59.5257 19.0424 59.4608 19.0434 59.3939 19.0444C59.3033 19.0442 59.3033 19.0442 59.2109 19.0439C59.1578 19.0443 59.1047 19.0446 59.05 19.0449C58.8643 19.0088 58.7969 18.9322 58.678 18.7902C58.6002 18.6365 58.6132 18.5168 58.613 18.3447C58.6126 18.2386 58.6126 18.2386 58.6123 18.1303C58.6123 18.0515 58.6124 17.9726 58.6124 17.8938C58.6122 17.8111 58.612 17.7284 58.6118 17.6456C58.6113 17.4672 58.611 17.2887 58.6108 17.1102C58.6105 16.8274 58.6096 16.5446 58.6085 16.2618C58.6081 16.1649 58.6077 16.0681 58.6074 15.9712C58.6072 15.9227 58.607 15.8741 58.6068 15.8241C58.6044 15.1657 58.6025 14.5073 58.6018 13.8489C58.6013 13.405 58.6 12.961 58.5978 12.5171C58.5967 12.2823 58.596 12.0476 58.5963 11.8129C58.5965 11.5915 58.5957 11.3702 58.5941 11.1488C58.5937 11.0681 58.5937 10.9874 58.5941 10.9067C58.5971 10.278 58.5399 9.57742 58.1033 9.08275C57.6636 8.7548 57.2526 8.7709 56.724 8.79891C56.009 8.90407 55.4583 9.4125 54.9998 9.93428C54.9624 9.97546 54.925 10.0166 54.8865 10.0591C54.5264 10.4922 54.4752 10.8199 54.4863 11.3703C54.4862 11.4499 54.4859 11.5295 54.4855 11.6091C54.4849 11.7793 54.4858 11.9493 54.4878 12.1195C54.4911 12.3886 54.491 12.6577 54.4904 12.9268C54.49 13.3523 54.4917 13.7778 54.4944 14.2032C54.4991 14.9659 54.5012 15.7286 54.501 16.4913C54.501 16.7588 54.5023 17.0262 54.5046 17.2937C54.5059 17.4598 54.5062 17.626 54.5063 17.7922C54.5067 17.9058 54.5082 18.0195 54.5097 18.1331C54.5096 18.2009 54.5095 18.2687 54.5093 18.3385C54.5097 18.3973 54.5101 18.4561 54.5105 18.5167C54.4752 18.7189 54.3949 18.8137 54.2527 18.9605C54.1093 19.0313 54.0102 19.0256 53.8497 19.0273C53.7596 19.0284 53.7596 19.0284 53.6677 19.0295C53.57 19.0301 53.57 19.0301 53.4703 19.0308C53.3702 19.0315 53.3702 19.0315 53.268 19.0322C53.1265 19.0329 52.985 19.0336 52.8435 19.034C52.6271 19.035 52.4106 19.0375 52.1942 19.04C52.0568 19.0406 51.9195 19.041 51.7821 19.0414C51.7173 19.0424 51.6526 19.0434 51.5858 19.0444C51.1374 19.0432 51.1374 19.0432 50.9086 18.9128C50.7632 18.7416 50.7398 18.6035 50.7385 18.3874C50.7381 18.3402 50.7377 18.293 50.7373 18.2443C50.7371 18.1926 50.737 18.1409 50.7368 18.0877C50.7364 18.0331 50.736 17.9786 50.7357 17.9223C50.7345 17.7412 50.7339 17.5601 50.7333 17.3789C50.733 17.3169 50.7328 17.2549 50.7326 17.191C50.7314 16.862 50.7305 16.5331 50.73 16.2041C50.7294 15.8661 50.7274 15.5281 50.7251 15.1901C50.7236 14.9288 50.7231 14.6676 50.7229 14.4063C50.7226 14.2818 50.722 14.1574 50.7209 14.0329C50.7026 11.7685 51.8904 9.97544 53.4499 8.39111C54.4219 7.41817 55.4646 6.47923 56.8389 6.13079C56.8775 6.12093 56.9161 6.11106 56.9559 6.1009C57.4017 5.99906 57.849 5.98987 58.3044 5.98886C58.3451 5.98871 58.3857 5.98856 58.4276 5.9884C59.1 5.98895 59.6769 6.06685 60.2872 6.35786C60.37 6.39573 60.37 6.39573 60.4545 6.43436C61.0416 6.74182 61.568 7.29202 61.8389 7.89061C61.861 7.98459 61.8811 8.07916 61.8964 8.17445C61.9533 8.11825 61.9533 8.11825 62.0113 8.06092C62.0381 8.03472 62.0648 8.00852 62.0924 7.98153C62.1548 7.91942 62.2163 7.85639 62.2769 7.7926C63.942 6.0736 66.4399 5.24826 68.6205 6.58493Z" fill="#FEFEFE"/>
<path d="M28.9081 6.69872C28.9579 6.73268 29.0076 6.76663 29.0589 6.80162C29.887 7.55497 30.1578 8.75247 30.2299 9.82099C30.2386 10.1377 30.239 10.4543 30.2392 10.7711C30.2394 10.8663 30.2397 10.9615 30.24 11.0567C30.2408 11.3136 30.2412 11.5706 30.2414 11.8275C30.2416 11.9882 30.2418 12.1489 30.2421 12.3096C30.2429 12.8129 30.2434 13.3162 30.2436 13.8195C30.2439 14.3996 30.2449 14.9798 30.2466 15.56C30.2478 16.0093 30.2484 16.4585 30.2485 16.9078C30.2485 17.1759 30.2489 17.4439 30.2499 17.712C30.2508 17.9638 30.251 18.2156 30.2505 18.4674C30.2504 18.5597 30.2507 18.652 30.2512 18.7443C30.252 18.8705 30.2516 18.9966 30.251 19.1227C30.2511 19.1933 30.2512 19.2638 30.2513 19.3365C30.2224 19.5959 30.1387 19.7877 29.9526 19.974C29.7919 20.058 29.6764 20.0613 29.4948 20.0623C29.3944 20.0634 29.3944 20.0634 29.292 20.0645C29.1838 20.0642 29.1838 20.0642 29.0735 20.0639C28.9993 20.0642 28.925 20.0645 28.8485 20.0649C28.6915 20.0654 28.5344 20.0652 28.3774 20.0647C28.1765 20.064 27.9757 20.0652 27.7748 20.0668C27.5827 20.0681 27.3906 20.0677 27.1985 20.0675C27.1266 20.0681 27.0546 20.0688 26.9805 20.0694C26.9133 20.0689 26.8462 20.0684 26.7771 20.0678C26.6887 20.0678 26.6887 20.0678 26.5986 20.0678C26.3946 20.0319 26.2976 19.9523 26.1495 19.8123C26.101 19.7031 26.101 19.7031 26.0837 19.5914C26.0768 19.5511 26.07 19.5109 26.0629 19.4694C26.0542 19.4073 26.0542 19.4073 26.0453 19.3439C26.0384 19.3016 26.0314 19.2593 26.0243 19.2157C26.0075 19.112 25.9921 19.008 25.977 18.904C25.915 18.9431 25.853 18.9823 25.7891 19.0226C24.8622 19.6001 23.9603 20.0775 22.8736 20.2664C22.7776 20.2854 22.7776 20.2854 22.6796 20.3048C20.9996 20.5871 19.1623 20.4355 17.7012 19.5284C16.7546 18.8645 16.1785 17.9965 15.977 16.8603C15.8701 15.2027 16.1759 13.9222 17.2859 12.6568C18.5766 11.3039 20.8009 11.0294 22.5862 10.9564C22.7919 10.9514 22.9975 10.9481 23.2032 10.9451C23.2581 10.9442 23.3131 10.9433 23.3697 10.9423C23.6483 10.9379 23.9268 10.9348 24.2055 10.9339C24.3098 10.9327 24.4141 10.9315 24.5185 10.9302C24.566 10.9305 24.6135 10.9308 24.6624 10.9311C25.0359 10.9248 25.3516 10.8307 25.625 10.5696C25.8747 10.0901 25.8674 9.58153 25.7112 9.07236C25.5311 8.58753 25.2467 8.20067 24.7632 7.9789C24.7003 7.9557 24.6374 7.9325 24.5726 7.9086C24.5098 7.88497 24.4471 7.86133 24.3824 7.83698C23.3755 7.51579 22.2492 7.7214 21.3252 8.17404C21.0606 8.34598 20.8773 8.56248 20.7436 8.84883C20.7251 8.88696 20.7067 8.92508 20.6877 8.96437C20.6499 9.04515 20.6124 9.12601 20.575 9.20696C20.5559 9.24684 20.5369 9.28673 20.5173 9.32782C20.5007 9.36389 20.4841 9.39997 20.467 9.43714C20.3841 9.56531 20.3031 9.6266 20.1724 9.70746C20.0311 9.72908 20.0311 9.72908 19.8713 9.72949C19.8113 9.73003 19.7512 9.73057 19.6894 9.73112C19.6248 9.73078 19.5603 9.73043 19.4938 9.73008C19.3939 9.73032 19.3939 9.73032 19.292 9.73057C19.1511 9.73069 19.0103 9.73037 18.8695 9.72966C18.6541 9.72875 18.4387 9.72965 18.2232 9.73074C18.0864 9.73063 17.9496 9.73041 17.8128 9.73008C17.7483 9.73042 17.6839 9.73077 17.6175 9.73112C17.5573 9.73058 17.4971 9.73005 17.4351 9.72949C17.3823 9.72936 17.3295 9.72922 17.2751 9.72908C17.0952 9.70291 16.9865 9.64065 16.8391 9.53715C16.6707 9.28769 16.6827 9.03087 16.7242 8.74239C16.8868 8.18287 17.1191 7.6792 17.4713 7.20964C17.5012 7.16969 17.5312 7.12973 17.562 7.08856C18.5817 5.8417 20.3078 5.45045 21.8391 5.27951C21.9039 5.27205 21.9686 5.26458 22.0353 5.25689C24.3463 5.04731 27.0476 5.17119 28.9081 6.69872ZM20.8022 14.3942C20.3549 14.9454 20.3061 15.4959 20.3449 16.1791C20.417 16.5971 20.6339 16.9545 20.9625 17.2275C21.0786 17.3058 21.1953 17.3675 21.3219 17.428C21.3655 17.4503 21.4091 17.4726 21.4541 17.4956C22.3581 17.8753 23.5814 17.7333 24.4748 17.3865C24.9699 17.1834 25.379 16.9062 25.7472 16.5197C25.7963 16.4725 25.7963 16.4725 25.8464 16.4243C25.964 16.2126 25.9529 15.9948 25.9591 15.7569C25.9609 15.7061 25.9627 15.6554 25.9645 15.6031C25.9679 15.5014 25.9709 15.3997 25.9734 15.298C25.9765 15.1767 25.9812 15.0555 25.9862 14.9344C25.9985 14.4872 25.9722 14.1561 25.6645 13.8054C24.6118 12.9177 21.7684 13.4332 20.8022 14.3942Z" fill="white"/>
<path d="M32.5122 5.53868C32.5701 5.53839 32.6281 5.53809 32.6878 5.53778C32.8098 5.53742 32.9318 5.53749 33.0538 5.53798C33.2391 5.53846 33.4242 5.53683 33.6095 5.53502C33.7286 5.53493 33.8478 5.53497 33.9669 5.53514C34.0216 5.5345 34.0763 5.53386 34.1326 5.5332C34.5546 5.53748 34.9382 5.6071 35.2766 5.87181C35.5361 6.13995 35.6411 6.46711 35.7555 6.81376C35.7766 6.87509 35.7977 6.93643 35.8194 6.99962C35.8883 7.20062 35.956 7.40201 36.0238 7.60342C36.1086 7.85167 36.1939 8.09978 36.2792 8.3479C36.3164 8.45649 36.3536 8.56512 36.3907 8.67376C36.6264 9.3638 36.8718 10.0503 37.1193 10.7363C37.1988 10.9572 37.2783 11.1781 37.3577 11.3989C37.3768 11.452 37.3959 11.505 37.4156 11.5596C37.5483 11.9286 37.6801 12.2978 37.8112 12.6674C37.8289 12.7171 37.8465 12.7669 37.8648 12.8182C37.9474 13.0512 38.03 13.2843 38.1124 13.5174C38.1412 13.5984 38.1699 13.6795 38.1987 13.7606C38.2235 13.8306 38.2482 13.9007 38.2738 13.9729C38.3276 14.1295 38.3276 14.1295 38.3909 14.2489C38.4124 14.1884 38.4339 14.128 38.4561 14.0657C38.9837 12.5865 39.5246 11.1125 40.076 9.64182C40.3089 9.0199 40.5408 8.39771 40.7649 7.77262C40.7837 7.72041 40.8024 7.6682 40.8217 7.61441C40.9075 7.37551 40.9927 7.13645 41.077 6.89705C41.1066 6.81414 41.1362 6.73123 41.1659 6.64833C41.2031 6.54277 41.2031 6.54277 41.2411 6.43508C41.3768 6.11511 41.5429 5.86738 41.8391 5.67684C42.1879 5.55012 42.5135 5.54676 42.8826 5.54822C42.9436 5.54811 43.0046 5.548 43.0674 5.54789C43.1959 5.54781 43.3244 5.54802 43.4528 5.5485C43.6488 5.5491 43.8448 5.5485 44.0408 5.54778C44.166 5.54785 44.2912 5.548 44.4164 5.54822C44.4746 5.54799 44.5329 5.54776 44.5929 5.54752C45.3338 5.55234 45.3338 5.55234 45.5748 5.79037C45.6535 6.27637 45.5016 6.70228 45.3325 7.15193C45.3071 7.22189 45.2817 7.29185 45.2556 7.36394C45.187 7.55279 45.1172 7.74119 45.0472 7.92952C44.9736 8.12788 44.9013 8.32664 44.8288 8.52537C44.7117 8.84595 44.594 9.1663 44.4757 9.48645C44.3326 9.87397 44.1906 10.2619 44.0493 10.6501C43.894 11.0765 43.7378 11.5026 43.5808 11.9285C43.4228 12.357 43.267 12.7861 43.1125 13.2159C43.0105 13.4994 42.9078 13.7828 42.805 14.0661C42.7558 14.2022 42.7068 14.3385 42.6582 14.4749C42.3869 15.2356 42.1041 15.9501 41.6667 16.6332C41.6362 16.6811 41.6057 16.7291 41.5743 16.7785C41.5008 16.8903 41.4251 16.9998 41.347 17.1086C41.3204 17.1463 41.2937 17.184 41.2662 17.2228C41.0479 17.5285 40.8187 17.8229 40.5748 18.1091C40.5501 18.1385 40.5255 18.1679 40.5001 18.1982C39.8953 18.9188 39.2546 19.5763 38.5058 20.1528C38.4507 20.1975 38.3956 20.2422 38.3388 20.2883C37.5381 20.9244 36.5012 21.626 35.4598 21.7423C35.4855 21.7045 35.5112 21.6667 35.5377 21.6277C35.7803 21.2625 35.985 20.899 36.1495 20.4934C36.1664 20.4571 36.1833 20.4207 36.2007 20.3832C36.4111 19.8236 35.9677 18.9841 35.7604 18.4677C35.6771 18.2598 35.5957 18.0512 35.5141 17.8426C35.4963 17.7969 35.4784 17.7512 35.46 17.7041C35.2184 17.084 34.9894 16.4592 34.7594 15.8349C34.7125 15.7077 34.6656 15.5806 34.6187 15.4534C34.5478 15.261 34.4768 15.0685 34.4059 14.876C34.1634 14.2182 33.9192 13.5612 33.6746 12.9042C33.6105 12.732 33.5464 12.5598 33.4823 12.3876C33.4396 12.2729 33.3969 12.1582 33.3542 12.0435C33.2236 11.6924 33.0931 11.3413 32.9629 10.9901C32.8747 10.7525 32.7865 10.5149 32.6983 10.2774C32.655 10.1606 32.6117 10.0439 32.5685 9.92718C32.3397 9.3095 32.1085 8.69292 31.8699 8.07886C31.8291 7.97353 31.7884 7.8682 31.7477 7.76287C31.6721 7.56735 31.5955 7.37223 31.5183 7.17731C31.4844 7.08984 31.4505 7.00237 31.4166 6.91488C31.4011 6.87639 31.3855 6.83791 31.3694 6.79826C31.248 6.48011 31.2046 6.18373 31.3219 5.85779C31.6293 5.5257 32.0889 5.5374 32.5122 5.53868Z" fill="white"/>
<path d="M81.8174 7.22729C83.2503 8.43563 83.985 10.0764 84.1378 11.9213C84.1453 12.0667 84.1503 12.2122 84.1521 12.3577C84.1544 12.4635 84.1544 12.4635 84.1566 12.5713C84.1294 12.8621 84.0503 13.0336 83.8359 13.2353C83.538 13.4214 83.1657 13.37 82.827 13.3663C82.7459 13.3663 82.6649 13.3663 82.5839 13.3664C82.3646 13.3665 82.1453 13.3652 81.926 13.3636C81.6966 13.3622 81.4672 13.362 81.2378 13.3618C80.8036 13.361 80.3695 13.3592 79.9354 13.3569C79.441 13.3544 78.9466 13.3531 78.4522 13.352C77.4355 13.3496 76.4188 13.3456 75.4021 13.3406C75.4199 13.4867 75.4378 13.6328 75.4559 13.7789C75.4608 13.8201 75.4658 13.8613 75.4709 13.9037C75.5693 14.6951 75.8569 15.4492 76.4833 15.9767C77.1684 16.4802 77.9127 16.5112 78.7355 16.4628C79.3436 16.374 79.8999 16.02 80.2872 15.5545C80.378 15.4241 80.4647 15.2916 80.551 15.1583C80.6972 14.9514 80.852 14.8387 81.0918 14.7598C81.1726 14.7538 81.2536 14.7508 81.3346 14.7497C81.3833 14.749 81.432 14.7483 81.4822 14.7475C81.5609 14.7469 81.5609 14.7469 81.6411 14.7462C81.6952 14.7458 81.7493 14.7453 81.805 14.7449C81.9193 14.7441 82.0337 14.7435 82.148 14.743C82.323 14.742 82.4979 14.7395 82.6728 14.737C82.7839 14.7365 82.895 14.736 83.0061 14.7356C83.0584 14.7346 83.1107 14.7336 83.1646 14.7326C83.525 14.7338 83.525 14.7338 83.7119 14.8613C83.8174 15.0247 83.8163 15.1496 83.7846 15.3383C83.4007 16.5834 82.3269 17.6204 81.2031 18.2333C80.3006 18.7066 79.3942 18.8572 78.3835 18.8577C78.3128 18.8584 78.2421 18.8591 78.1693 18.8599C76.4838 18.8625 74.9466 18.3573 73.7247 17.1915C72.4308 15.9028 71.9462 14.242 71.9287 12.4642C71.9383 10.6397 72.5501 9.01936 73.8504 7.72046C73.8844 7.68278 73.9184 7.64509 73.9535 7.60626C75.8382 5.55312 79.7153 5.5748 81.8174 7.22729Z" fill="#FDFEFE"/>
<path d="M40.8621 18.9609C40.9 18.9609 40.938 18.9609 40.9771 18.9609C40.6653 20.0541 40.2111 21.1177 39.7127 22.14C39.6905 22.1857 39.6683 22.2314 39.6454 22.2785C39.3145 22.9511 38.9303 23.5501 38.4483 24.1269C38.4222 24.1586 38.396 24.1902 38.3691 24.2229C37.5501 25.2021 36.4571 25.7907 35.1731 25.9336C34.3722 26.0021 33.0036 26.0667 32.3184 25.5938C32.0984 25.2953 32.1088 24.9199 32.1092 24.5664C32.109 24.5172 32.1087 24.4681 32.1085 24.4174C32.1081 24.3141 32.1081 24.2107 32.1083 24.1074C32.1085 23.9495 32.1072 23.7918 32.1057 23.6339C32.1056 23.5332 32.1055 23.4324 32.1056 23.3317C32.1051 23.2847 32.1045 23.2378 32.104 23.1894C32.1061 22.9284 32.1181 22.7432 32.2989 22.5374C32.5249 22.4074 32.7189 22.4152 32.9758 22.4291C33.0523 22.4326 33.1289 22.4361 33.2055 22.4396C33.3243 22.4457 33.443 22.4521 33.5618 22.4587C36.0769 22.5926 38.341 21.2182 40.1568 19.611C40.5147 19.2914 40.5147 19.2914 40.8621 18.9609Z" fill="white"/>
<path d="M0.0572699 14.1353C0.26261 14.2308 0.399356 14.3448 0.563735 14.5007C1.53474 15.3922 2.70054 16.0501 3.90784 16.5763C3.99873 16.6162 4.0896 16.656 4.18045 16.6959C4.22644 16.7161 4.27243 16.7363 4.31981 16.7571C4.35455 16.7724 4.38929 16.7877 4.42509 16.8034C4.42946 17.1943 4.43248 17.5853 4.43456 17.9762C4.43542 18.1092 4.4366 18.2422 4.43809 18.3752C4.44019 18.5664 4.44116 18.7576 4.44192 18.9488C4.44281 19.0082 4.4437 19.0676 4.44462 19.1288C4.44474 19.6512 4.44474 19.6512 4.25267 19.8689C4.06385 20.0406 3.93433 20.061 3.68035 20.063C3.57676 20.0644 3.57676 20.0644 3.47108 20.0658C3.35946 20.0658 3.35946 20.0658 3.24558 20.0658C3.16813 20.0662 3.09069 20.0666 3.01324 20.0671C2.85101 20.0679 2.6888 20.068 2.52657 20.0676C2.31926 20.0673 2.11203 20.069 1.90473 20.0713C1.74478 20.0728 1.58485 20.073 1.42489 20.0727C1.3115 20.0729 1.1981 20.0743 1.08472 20.0757C0.510879 20.0713 0.510879 20.0713 0.30228 19.9093C0.131444 19.7071 0.0427373 19.5614 0.0434476 19.2962C0.0432896 19.2505 0.0431315 19.2048 0.0429688 19.1578C0.043382 19.1082 0.0437953 19.0585 0.044221 19.0074C0.0442042 18.9548 0.0441875 18.9022 0.0441702 18.8479C0.0442502 18.6741 0.0451443 18.5002 0.0460451 18.3264C0.0462595 18.2058 0.0464231 18.0852 0.0465379 17.9646C0.0469767 17.6473 0.0481058 17.33 0.0493774 17.0127C0.0505534 16.6889 0.0510783 16.365 0.0516575 16.0412C0.0528901 15.4059 0.0548518 14.7706 0.0572699 14.1353Z" fill="white"/>
<path d="M78.0963 8.49766C78.1418 8.49798 78.1872 8.4983 78.234 8.49863C78.8685 8.51163 79.397 8.70753 79.8815 9.12145C80.4272 9.68331 80.6897 10.4193 80.6897 11.1835C78.9449 11.1835 77.2 11.1835 75.4023 11.1835C75.5078 10.3501 75.7842 9.59874 76.4368 9.02632C76.966 8.65787 77.4546 8.49291 78.0963 8.49766Z" fill="#33CCCC"/>
<path d="M51.3187 6.22878C51.3764 6.22824 51.4341 6.2277 51.4936 6.22714C51.5559 6.2272 51.6183 6.22725 51.6825 6.2273C51.7466 6.22706 51.8107 6.22681 51.8768 6.22656C52.0126 6.22624 52.1483 6.22621 52.2841 6.22645C52.4917 6.22663 52.6993 6.2253 52.9069 6.22386C53.0387 6.22373 53.1706 6.22369 53.3024 6.22375C53.3645 6.22323 53.4266 6.22271 53.4906 6.22217C54.0339 6.22547 54.0339 6.22547 54.253 6.41468C54.3757 6.59656 54.3812 6.64286 54.3751 6.85109C54.3741 6.89697 54.373 6.94285 54.372 6.99013C54.3706 7.02503 54.3693 7.05994 54.3679 7.0959C54.3192 7.1221 54.2704 7.1483 54.2202 7.17529C52.9361 7.87608 51.7876 8.79524 50.9138 9.96516C50.8598 10.0342 50.8598 10.0342 50.8047 10.1046C50.7857 10.1046 50.7668 10.1046 50.7472 10.1046C50.7446 9.64965 50.7425 9.19467 50.7413 8.73969C50.7407 8.52841 50.7399 8.31714 50.7385 8.10587C50.7373 7.90196 50.7366 7.69804 50.7363 7.49412C50.7361 7.41635 50.7357 7.33859 50.7351 7.26082C50.7342 7.15184 50.7342 7.04285 50.7342 6.93386C50.7339 6.87184 50.7337 6.80981 50.7334 6.74591C50.7474 6.58303 50.7703 6.49258 50.8622 6.35791C51.0491 6.23484 51.1025 6.2299 51.3187 6.22878Z" fill="#FDFEFE"/>
</g>
<defs>
<clipPath id="clip0_2009_1531">
<rect width="90" height="26" fill="white"/>
</clipPath>
</defs>
</svg>
