<svg width="261" height="271" viewBox="0 0 261 271" fill="none" xmlns="http://www.w3.org/2000/svg">
<circle cx="47.9773" cy="157.961" r="26.4247" fill="white"/>
<circle cx="212.985" cy="157.961" r="26.4247" fill="white"/>
<circle cx="129.6" cy="154.438" r="31.1224" fill="white"/>
<path d="M59.1344 192.9C66.7682 192.9 76.1636 199.653 79.0997 202.296C77.8274 203.764 74.6956 207.698 72.3467 211.691C66.9443 218.738 66.3767 245.554 66.7682 258.081H15.974C10.1018 258.081 10.3955 258.081 4.81694 253.971C-0.76161 249.86 1.29364 240.171 1.29364 221.674C1.29364 203.177 24.9996 192.9 34.7649 192.9C43.4969 192.9 42.0288 194.956 47.9773 194.956C52.8923 194.956 51.5006 192.9 59.1344 192.9Z" fill="white"/>
<path d="M201.259 193.194C193.633 193.194 184.247 199.886 181.313 202.505C182.584 203.96 185.713 207.858 188.06 211.816C193.457 218.799 194.024 245.373 193.633 257.788H244.378C250.244 257.788 249.951 257.788 255.524 253.714C261.097 249.641 259.044 240.039 259.044 221.708C259.044 203.378 232.058 193.194 225.605 193.194C219.152 193.194 216.805 195.231 212.405 195.231C208.006 195.231 208.886 193.194 201.259 193.194Z" fill="white"/>
<path d="M141.051 195.249C138.937 196.424 132.928 197.304 130.187 197.598C128.915 197.598 125.725 197.481 123.141 197.011C119.911 196.424 104.35 191.139 92.8993 202.002C76.6985 217.372 75.87 226.078 75.87 246.337C75.87 266.596 82.3294 271 87.9079 271H173.641C180.394 271 184.211 263.66 184.211 246.337C184.211 221.968 177.752 209.636 166.008 202.002C154.263 194.368 143.693 193.781 141.051 195.249Z" fill="white"/>
<path d="M33.3058 95.3599C30.6767 97.2587 30.0847 100.929 31.9835 103.558C33.8823 106.188 37.5529 106.78 40.182 104.881L33.3058 95.3599ZM138.802 96.1455L134.96 100.586L138.802 96.1455ZM142.595 96.1872L138.851 91.6633L142.595 96.1872ZM96.6351 59.6548L92.7925 64.0951L96.6351 59.6548ZM36.7439 100.12L40.182 104.881L96.4328 64.2552L92.9947 59.4947L89.5567 54.7343L33.3058 95.3599L36.7439 100.12ZM96.6351 59.6548L92.7925 64.0951L134.96 100.586L138.802 96.1455L142.645 91.7051L100.478 55.2144L96.6351 59.6548ZM142.595 96.1872L146.339 100.711L195.513 60.0158L191.769 55.4919L188.025 50.9681L138.851 91.6633L142.595 96.1872ZM138.802 96.1455L134.96 100.586C138.213 103.401 143.025 103.454 146.339 100.711L142.595 96.1872L138.851 91.6633C139.956 90.7489 141.56 90.7666 142.645 91.7051L138.802 96.1455ZM92.9947 59.4947L96.4328 64.2552C95.3291 65.0523 93.822 64.9861 92.7925 64.0951L96.6351 59.6548L100.478 55.2144C97.389 52.5415 92.868 52.3428 89.5567 54.7343L92.9947 59.4947Z" fill="white"/>
<path d="M217.478 28.4343C220.597 28.1258 223.138 30.9011 222.556 33.9813L215.348 72.1347C214.63 75.937 209.88 77.2889 207.267 74.4348L175.835 40.1014C173.222 37.2473 174.987 32.635 178.838 32.2543L217.478 28.4343Z" fill="white"/>
</svg>
