<svg width="221" height="220" viewBox="0 0 221 220" fill="none" xmlns="http://www.w3.org/2000/svg">
<path d="M187.569 171.084L174.197 169.159C172.753 168.953 171.619 167.853 171.309 166.444L169.934 159.912C174.747 156.166 178.116 150.665 179.009 144.375H179.25C185.567 144.375 190.408 138.525 189.425 132.344C189.047 130.04 187.844 128.047 186.125 126.534V114.331C186.125 108.281 181.312 103.331 175.297 103.125C174.575 100.959 173.234 99.0344 171.344 97.6249C170.587 97.0406 169.797 96.5936 168.938 96.25V34.375C168.938 28.7031 164.297 24.0625 158.625 24.0625H34.875C29.2031 24.0625 24.5625 28.7031 24.5625 34.375V55C24.5625 56.8906 26.1094 58.4375 28 58.4375C29.8906 58.4375 31.4375 56.8906 31.4375 55V44.6875H128.994L131.503 49.6719C132.053 50.8406 133.256 51.5625 134.562 51.5625H148.312C149.619 51.5625 150.822 50.8406 151.372 49.6719L153.881 44.6875H162.062V95.6999C161.891 95.7343 161.684 95.7343 161.513 95.7687C157.181 97.0062 152.747 97.5907 148.312 97.453V72.1875C148.312 70.2969 146.766 68.75 144.875 68.75H141.437V65.3125C141.437 63.4219 139.891 61.875 138 61.875C136.109 61.875 134.562 63.4219 134.562 65.3125V68.75H131.125C129.234 68.75 127.687 70.2969 127.687 72.1875V92.8469C126.862 92.8469 126.038 93.1218 125.419 93.6719C124.491 94.4968 124.078 95.7343 124.319 96.9375L125.659 103.64C126.931 110 126.759 116.669 125.213 122.994C125.213 122.994 124.353 126.362 124.353 126.431C122.6 127.944 121.328 130.006 120.95 132.344C120.847 132.928 120.847 133.478 120.847 134.062H34.875C32.9844 134.062 31.4375 132.516 31.4375 130.625V82.5C31.4375 80.6094 29.8906 79.0625 28 79.0625C26.1094 79.0625 24.5625 80.6094 24.5625 82.5V130.625C24.5625 136.297 29.2031 140.937 34.875 140.937H123.459C125.419 143.103 128.203 144.375 131.125 144.375H131.366C132.294 150.631 135.663 156.131 140.441 159.878L139.066 166.444C138.756 167.853 137.622 168.953 136.178 169.159L122.806 171.084C117.753 171.772 113.938 176.172 113.938 181.259V192.5C113.938 194.391 115.484 195.937 117.375 195.937C119.266 195.937 120.812 194.391 120.812 192.5V181.259C120.812 179.575 122.084 178.097 123.769 177.856L137.141 175.966C141.438 175.347 144.909 172.081 145.803 167.853L146.731 163.453C149.344 164.45 152.231 165 155.222 165C158.178 165 161.031 164.45 163.678 163.453L164.572 167.853C165.466 172.081 168.938 175.347 173.234 175.966L186.606 177.856C188.291 178.097 189.562 179.575 189.562 181.259V192.5C189.562 194.391 191.109 195.937 193 195.937C194.891 195.937 196.438 194.391 196.438 192.5V181.259C196.438 176.172 192.622 171.772 187.569 171.084ZM151.75 37.8125C150.444 37.8125 149.241 38.5342 148.691 39.7031L146.181 44.6875H136.694L134.184 39.7031C133.634 38.5342 132.431 37.8125 131.125 37.8125H31.4375V34.375C31.4375 32.4844 32.9844 30.9375 34.875 30.9375H158.625C160.516 30.9375 162.062 32.4844 162.062 34.375V37.8125H151.75ZM134.562 75.625H141.438V96.25H139.134C137.897 95.9405 136.659 95.6313 135.456 95.2188L134.562 94.9093V75.625ZM132.397 102.266L132.225 101.372L133.256 101.75C143.053 104.981 153.469 105.222 163.403 102.403C164.709 102.025 166.119 102.266 167.219 103.091C168.319 103.916 168.938 105.187 168.938 106.562C168.938 108.453 170.484 110 172.375 110H174.919C177.291 110 179.25 111.959 179.25 114.331V123.784C179.113 123.784 179.009 123.75 178.872 123.75H175.228C173.819 119.762 169.969 116.875 165.5 116.875H144.875C140.406 116.875 136.556 119.762 135.147 123.75H132.053C133.669 116.737 133.806 109.347 132.397 102.266ZM155.188 158.125C145.838 158.125 138.103 150.494 138 140.903C137.966 139.012 136.453 137.5 134.562 137.5H131.125C128.97 137.5 127.457 135.497 127.722 133.444C127.997 131.862 129.647 130.625 131.503 130.625H138C139.891 130.625 141.438 129.078 141.438 127.187C141.438 125.297 142.984 123.75 144.875 123.75H165.5C167.391 123.75 168.938 125.297 168.938 127.187C168.938 129.078 170.484 130.625 172.375 130.625H178.872C180.728 130.625 182.378 131.862 182.653 133.443C183.016 135.526 181.364 137.5 179.25 137.5H175.812C173.922 137.5 172.375 139.047 172.375 140.937C172.375 150.425 164.675 158.125 155.188 158.125Z" fill="url(#paint0_linear_2647_2683)"/>
<path d="M55.5 68.75C53.6016 68.75 52.0625 70.2891 52.0625 72.1875V75.625H48.625C46.7266 75.625 45.1875 77.1641 45.1875 79.0625V106.562C45.1875 108.461 46.7266 110 48.625 110H52.0625V113.438C52.0625 115.336 53.6016 116.875 55.5 116.875C57.3984 116.875 58.9375 115.336 58.9375 113.438V110H62.375C64.2734 110 65.8125 108.461 65.8125 106.562V79.0625C65.8125 77.1641 64.2734 75.625 62.375 75.625H58.9375V72.1875C58.9375 70.2891 57.3984 68.75 55.5 68.75ZM58.9375 103.125H52.0625V82.5H58.9375V103.125Z" fill="url(#paint1_linear_2647_2683)"/>
<path d="M83 61.875C81.1016 61.875 79.5625 63.4141 79.5625 65.3125V68.75H76.125C74.2266 68.75 72.6875 70.2891 72.6875 72.1875V99.6875C72.6875 101.586 74.2266 103.125 76.125 103.125H79.5625V106.562C79.5625 108.461 81.1016 110 83 110C84.8984 110 86.4375 108.461 86.4375 106.562V103.125H89.875C91.7734 103.125 93.3125 101.586 93.3125 99.6875V72.1875C93.3125 70.2891 91.7734 68.75 89.875 68.75H86.4375V65.3125C86.4375 63.4141 84.8984 61.875 83 61.875ZM86.4375 96.25H79.5625V75.625H86.4375V96.25Z" fill="url(#paint2_linear_2647_2683)"/>
<path d="M110.5 51.5625C108.602 51.5625 107.062 53.1016 107.062 55V58.4375H103.625C101.727 58.4375 100.188 59.9766 100.188 61.875V75.625C100.188 77.5234 101.727 79.0625 103.625 79.0625H107.062V82.5C107.062 84.3984 108.602 85.9375 110.5 85.9375C112.398 85.9375 113.938 84.3984 113.938 82.5V79.0625H117.375C119.273 79.0625 120.812 77.5234 120.812 75.625V61.875C120.812 59.9766 119.273 58.4375 117.375 58.4375H113.938V55C113.938 53.1016 112.398 51.5625 110.5 51.5625ZM113.938 72.1875H107.062V65.3125H113.938V72.1875Z" fill="url(#paint3_linear_2647_2683)"/>
<path d="M28 72.1875C29.8985 72.1875 31.4375 70.6485 31.4375 68.75C31.4375 66.8515 29.8985 65.3125 28 65.3125C26.1015 65.3125 24.5625 66.8515 24.5625 68.75C24.5625 70.6485 26.1015 72.1875 28 72.1875Z" fill="url(#paint4_linear_2647_2683)"/>
<defs>
<linearGradient id="paint0_linear_2647_2683" x1="196.438" y1="24.0625" x2="18.3232" y2="31.5579" gradientUnits="userSpaceOnUse">
<stop stop-color="#FF863B"/>
<stop offset="1" stop-color="#FF2600"/>
</linearGradient>
<linearGradient id="paint1_linear_2647_2683" x1="65.8125" y1="68.75" x2="44.4079" y2="69.136" gradientUnits="userSpaceOnUse">
<stop stop-color="#FF863B"/>
<stop offset="1" stop-color="#FF2600"/>
</linearGradient>
<linearGradient id="paint2_linear_2647_2683" x1="93.3125" y1="61.875" x2="71.9079" y2="62.261" gradientUnits="userSpaceOnUse">
<stop stop-color="#FF863B"/>
<stop offset="1" stop-color="#FF2600"/>
</linearGradient>
<linearGradient id="paint3_linear_2647_2683" x1="120.812" y1="51.5625" x2="99.4146" y2="52.1028" gradientUnits="userSpaceOnUse">
<stop stop-color="#FF863B"/>
<stop offset="1" stop-color="#FF2600"/>
</linearGradient>
<linearGradient id="paint4_linear_2647_2683" x1="31.4375" y1="65.3125" x2="24.3129" y2="65.6123" gradientUnits="userSpaceOnUse">
<stop stop-color="#FF863B"/>
<stop offset="1" stop-color="#FF2600"/>
</linearGradient>
</defs>
</svg>
