<svg width="217" height="248" viewBox="0 0 217 248" fill="none" xmlns="http://www.w3.org/2000/svg">
<path d="M179.26 162.778C174.594 162.778 151.609 163.21 140.7 163.426C135.083 153.921 123.526 134.911 96.6308 134.911C69.7357 134.911 56.8823 153.921 52.5618 163.426H11.7331C5.90042 163.426 0.71582 156.946 0.71582 153.057V122.274C0.71582 118.385 6.22445 113.201 9.78886 113.201H180.556C184.769 113.201 191.574 118.385 191.574 122.274V153.057C191.574 156.946 185.093 162.778 179.26 162.778Z" fill="white"/>
<path d="M19.5099 169.907C24.176 169.907 40.6803 169.475 51.5896 169.259C42.1925 179.628 48.3492 231.474 95.3346 231.474C148.801 231.474 145.236 169.907 139.728 169.907L174.076 169.907C179.908 169.907 185.093 176.388 185.093 180.276L185.093 238.927C185.093 242.815 179.584 248 176.02 248L18.2138 248C14.0013 248 7.19649 242.815 7.19649 238.927L7.19649 179.628C7.19649 175.74 13.6772 169.907 19.5099 169.907Z" fill="white"/>
<path d="M95.3347 74.6401C95.3347 72.0478 95.3347 66.1503 95.3347 63.2988C95.3347 59.7344 100.519 59.7344 105.056 59.7344C109.592 59.7344 109.268 59.7344 114.129 59.7344C118.989 59.7344 123.85 60.0584 123.85 63.2988C123.85 65.8911 123.85 71.9398 123.85 74.6401" stroke="#A3E635" stroke-width="6.48074" stroke-linecap="round"/>
<path d="M140.052 74.6401C140.052 72.0478 140.052 44.1158 140.052 41.2642C140.052 37.6998 145.236 37.6998 149.773 37.6998C154.309 37.6998 153.985 37.6998 158.846 37.6998C163.706 37.6998 168.567 38.0239 168.567 41.2642C168.567 43.8565 168.567 95.2704 168.567 97.9707" stroke="#A3E635" stroke-width="6.48074" stroke-linecap="round"/>
<path d="M184.769 97.3227C184.769 94.7304 184.769 10.4159 184.769 7.56441C184.769 4 189.953 4 194.49 4C199.026 4 198.702 4 203.563 4C208.424 4 213.284 4.32404 213.284 7.56441C213.284 10.1567 213.284 134.155 213.284 136.855" stroke="#A3E635" stroke-width="6.48074" stroke-linecap="round"/>
<path d="M57.4222 107.044C57.4222 104.452 57.4222 98.5541 57.4222 95.7026C57.4222 92.1382 61.9588 88.8978 66.4953 88.8978C71.0318 88.8978 119.313 88.8978 124.174 88.8978C129.034 88.8978 133.895 92.4622 133.895 95.7026C133.895 98.2949 133.895 104.344 133.895 107.044" stroke="white" stroke-width="12.9615"/>
<path d="M95.5543 212.392C90.613 212.392 86.2773 211.617 82.5472 210.067C78.8655 208.468 75.9589 206.264 73.8273 203.454C71.6958 200.645 70.5332 197.423 70.3394 193.79H77.0973C77.5333 197.714 79.3499 200.863 82.5472 203.236C85.7929 205.61 90.1528 206.797 95.6269 206.797C100.956 206.797 104.977 205.852 107.689 203.963C110.402 202.025 111.759 199.652 111.759 196.842C111.759 195.098 111.323 193.596 110.451 192.337C109.627 191.029 108.15 189.939 106.018 189.067C103.935 188.195 100.98 187.541 97.1529 187.105L90.3224 186.305C84.17 185.627 79.4952 184.077 76.298 181.655C73.1491 179.184 71.5747 175.841 71.5747 171.627C71.5747 168.623 72.4709 165.959 74.2633 163.634C76.1042 161.26 78.6959 159.395 82.0385 158.038C85.4296 156.682 89.4262 156.004 94.0283 156.004C98.6789 156.004 102.7 156.731 106.091 158.184C109.53 159.589 112.219 161.575 114.157 164.142C116.094 166.71 117.16 169.689 117.354 173.08H110.669C110.281 169.738 108.707 167.001 105.945 164.869C103.184 162.689 99.1875 161.599 93.9556 161.599C88.7237 161.599 84.7998 162.544 82.1839 164.433C79.6164 166.274 78.3326 168.623 78.3326 171.482C78.3326 173.032 78.7444 174.388 79.5679 175.551C80.3914 176.713 81.7479 177.707 83.6372 178.53C85.5749 179.305 88.2151 179.887 91.5577 180.274L98.6062 181.001C103.451 181.534 107.326 182.478 110.233 183.835C113.188 185.143 115.319 186.862 116.627 188.994C117.935 191.077 118.589 193.548 118.589 196.406C118.589 199.458 117.669 202.195 115.828 204.617C113.987 206.991 111.347 208.88 107.907 210.285C104.516 211.69 100.399 212.392 95.5543 212.392ZM97.2256 150.99V217.406H91.703V150.99H97.2256Z" fill="#A3E635"/>
</svg>
