<svg width="251" height="250" viewBox="0 0 251 250" fill="none" xmlns="http://www.w3.org/2000/svg">
<path d="M79.5462 148.383H90.3438C92.501 148.383 94.25 146.634 94.25 144.477C94.25 142.32 92.501 140.571 90.3438 140.571H86.4375V136.665C86.4375 134.507 84.6885 132.758 82.5312 132.758C80.374 132.758 78.625 134.507 78.625 136.665V140.664C74.2464 141.132 70.8125 144.804 70.8125 149.305C70.8125 152.633 72.6626 155.627 75.64 157.119L85.9263 162.259C86.2372 162.416 86.4375 162.74 86.4375 163.087C86.4375 163.594 86.0236 164.008 85.5163 164.008H74.7188C72.5615 164.008 70.8125 165.757 70.8125 167.915C70.8125 170.072 72.5615 171.821 74.7188 171.821H78.625V175.727C78.625 177.884 80.374 179.633 82.5312 179.633C84.6885 179.633 86.4375 177.884 86.4375 175.727V171.728C90.8161 171.26 94.25 167.588 94.25 163.087C94.25 159.759 92.3999 156.764 89.4225 155.273L79.1362 150.132C78.8253 149.976 78.625 149.652 78.625 149.305C78.625 148.797 79.0389 148.383 79.5462 148.383Z" fill="url(#paint0_linear_2573_885)"/>
<path d="M82.5312 117.133C60.9916 117.133 43.4688 134.656 43.4688 156.196C43.4688 177.735 60.9916 195.258 82.5312 195.258C104.071 195.258 121.594 177.735 121.594 156.196C121.594 134.656 104.071 117.133 82.5312 117.133ZM82.5312 187.446C65.3003 187.446 51.2812 173.427 51.2812 156.196C51.2812 138.965 65.3003 124.946 82.5312 124.946C99.7622 124.946 113.781 138.965 113.781 156.196C113.781 173.427 99.7622 187.446 82.5312 187.446Z" fill="url(#paint1_linear_2573_885)"/>
<path d="M211.438 109.321H195.812C193.664 109.321 191.906 111.079 191.906 113.227C191.906 115.375 193.664 117.133 195.812 117.133H211.438C213.586 117.133 215.344 118.891 215.344 121.04V128.852C215.344 131 213.586 132.758 211.438 132.758H148.938C146.789 132.758 145.031 131 145.031 128.852V121.04C145.031 118.891 146.789 117.133 148.938 117.133H164.562C166.711 117.133 168.469 115.375 168.469 113.227C168.469 111.079 166.711 109.321 164.562 109.321H148.938C142.492 109.321 137.219 114.594 137.219 121.04V128.852C137.219 130.219 137.492 131.547 137.922 132.758H131.867C123.078 114.321 104.289 101.508 82.5312 101.508C52.3751 101.508 27.8438 126.039 27.8438 156.196C27.8438 186.352 52.3751 210.883 82.5312 210.883C89.211 210.883 95.6171 209.633 101.555 207.407C103.703 209.594 106.672 210.883 109.875 210.883H172.375C178.82 210.883 184.094 205.61 184.094 199.165V191.352C184.094 189.985 183.82 188.657 183.391 187.446H188C194.445 187.446 199.719 182.172 199.719 175.727V167.915C199.719 161.469 194.445 156.196 188 156.196H187.297C187.727 154.985 188 153.657 188 152.29V144.477C188 143.11 187.727 141.782 187.297 140.571H211.438C217.883 140.571 223.156 135.297 223.156 128.852V121.04C223.156 114.594 217.883 109.321 211.438 109.321ZM176.281 140.571C178.43 140.571 180.188 142.329 180.188 144.477V152.29C180.188 154.438 178.43 156.196 176.281 156.196H137.219C137.219 150.766 136.398 145.532 134.914 140.571H176.281ZM82.5312 203.071C56.6719 203.071 35.6562 182.055 35.6562 156.196C35.6562 130.336 56.6719 109.321 82.5312 109.321C108.391 109.321 129.406 130.336 129.406 156.196C129.406 182.055 108.391 203.071 82.5312 203.071ZM176.281 199.165C176.281 201.313 174.523 203.071 172.375 203.071H110.539C117.18 199.086 122.922 193.774 127.336 187.446H172.375C174.523 187.446 176.281 189.204 176.281 191.352V199.165ZM188 164.008C190.148 164.008 191.906 165.766 191.906 167.915V175.727C191.906 177.875 190.148 179.633 188 179.633H131.867C134.172 174.79 135.813 169.516 136.594 164.008H188Z" fill="url(#paint2_linear_2573_885)"/>
<path d="M184.094 70.258H188V81.9767C188 84.134 189.749 85.883 191.906 85.883H207.531C209.688 85.883 211.438 84.134 211.438 81.9767V70.258H215.344C216.784 70.258 218.108 69.4646 218.788 68.1942C219.467 66.9239 219.393 65.3828 218.594 64.185L202.969 40.7475C201.519 38.5731 197.918 38.5731 196.469 40.7475L180.844 64.185C180.044 65.3828 179.97 66.9239 180.649 68.1942C181.33 69.4646 182.654 70.258 184.094 70.258ZM199.719 49.9562L208.044 62.4455H207.531C205.374 62.4455 203.625 64.1945 203.625 66.3518V78.0705H195.813V66.3518C195.813 64.1945 194.063 62.4455 191.906 62.4455H191.393L199.719 49.9562Z" fill="url(#paint3_linear_2573_885)"/>
<path d="M145.031 85.883H148.938V97.6017C148.938 99.759 150.687 101.508 152.844 101.508H168.469C170.626 101.508 172.375 99.759 172.375 97.6017V85.883H176.281C177.721 85.883 179.045 85.0896 179.726 83.8192C180.405 82.5489 180.331 81.0078 179.531 79.81L163.906 56.3725C162.457 54.1981 158.856 54.1981 157.406 56.3725L141.781 79.81C140.982 81.0078 140.908 82.5489 141.587 83.8192C142.268 85.0896 143.591 85.883 145.031 85.883ZM160.656 65.5812L168.982 78.0705H168.469C166.312 78.0705 164.563 79.8195 164.563 81.9768V93.6955H156.75V81.9768C156.75 79.8195 155.001 78.0705 152.844 78.0705H152.331L160.656 65.5812Z" fill="url(#paint4_linear_2573_885)"/>
<path d="M180.188 117.133C182.345 117.133 184.094 115.384 184.094 113.227C184.094 111.07 182.345 109.321 180.188 109.321C178.03 109.321 176.281 111.07 176.281 113.227C176.281 115.384 178.03 117.133 180.188 117.133Z" fill="url(#paint5_linear_2573_885)"/>
<defs>
<linearGradient id="paint0_linear_2573_885" x1="94.25" y1="132.758" x2="69.9294" y2="133.27" gradientUnits="userSpaceOnUse">
<stop stop-color="#FF863B"/>
<stop offset="1" stop-color="#FF2600"/>
</linearGradient>
<linearGradient id="paint1_linear_2573_885" x1="121.594" y1="117.133" x2="40.6327" y2="120.54" gradientUnits="userSpaceOnUse">
<stop stop-color="#FF863B"/>
<stop offset="1" stop-color="#FF2600"/>
</linearGradient>
<linearGradient id="paint2_linear_2573_885" x1="223.156" y1="101.508" x2="21.5337" y2="116.659" gradientUnits="userSpaceOnUse">
<stop stop-color="#FF863B"/>
<stop offset="1" stop-color="#FF2600"/>
</linearGradient>
<linearGradient id="paint3_linear_2573_885" x1="219.25" y1="39.1167" x2="178.748" y2="40.5403" gradientUnits="userSpaceOnUse">
<stop stop-color="#FF863B"/>
<stop offset="1" stop-color="#FF2600"/>
</linearGradient>
<linearGradient id="paint4_linear_2573_885" x1="180.188" y1="54.7417" x2="139.685" y2="56.1653" gradientUnits="userSpaceOnUse">
<stop stop-color="#FF863B"/>
<stop offset="1" stop-color="#FF2600"/>
</linearGradient>
<linearGradient id="paint5_linear_2573_885" x1="184.094" y1="109.321" x2="175.998" y2="109.662" gradientUnits="userSpaceOnUse">
<stop stop-color="#FF863B"/>
<stop offset="1" stop-color="#FF2600"/>
</linearGradient>
</defs>
</svg>
