<svg width="251" height="250" viewBox="0 0 251 250" fill="none" xmlns="http://www.w3.org/2000/svg">
<path d="M199.719 58.5938H188C185.843 58.5938 184.094 60.3409 184.094 62.5C184.094 64.6591 185.843 66.4062 188 66.4062H190.289L180.187 76.5076L171.231 67.5507C169.705 66.0248 167.233 66.0248 165.707 67.5507L150.082 83.1757C148.556 84.7015 148.556 87.1735 150.082 88.6995C151.599 90.216 154.094 90.2114 155.606 88.6993L168.469 75.8362L177.426 84.7931C178.951 86.3189 181.423 86.3189 182.949 84.7931L195.812 71.9299V74.2188C195.812 76.3779 197.561 78.125 199.719 78.125C201.876 78.125 203.625 76.3779 203.625 74.2188V62.5C203.625 60.3409 201.876 58.5938 199.719 58.5938Z" fill="url(#paint0_linear_2573_894)"/>
<path d="M188 148.438C190.148 148.438 191.906 146.68 191.906 144.531V118.359C210.07 111.914 223.156 94.5702 223.156 74.2188C223.156 48.3594 202.141 27.3438 176.281 27.3438C150.422 27.3438 129.406 48.3594 129.406 74.2188C129.406 83.0078 131.867 91.2109 136.086 98.242L116.125 114.18C109.676 119.328 109.098 129.769 114.914 135.586C120.853 141.525 131.109 140.949 136.32 134.375L152.258 114.414C154.914 115.976 157.727 117.304 160.656 118.359V199.219H152.844V152.344C152.844 150.195 151.086 148.437 148.938 148.437H125.5C123.352 148.437 121.594 150.195 121.594 152.344V199.219H113.781V140.625C113.781 138.477 112.023 136.719 109.875 136.719H86.4375C84.2891 136.719 82.5312 138.477 82.5312 140.625V199.219H74.7188V164.062C74.7188 161.914 72.9609 160.156 70.8125 160.156H47.375C45.2266 160.156 43.4688 161.914 43.4688 164.062V199.219H31.75C29.6016 199.219 27.8438 200.977 27.8438 203.125V218.75C27.8438 220.898 29.6016 222.656 31.75 222.656H203.625C205.773 222.656 207.531 220.898 207.531 218.75V203.125C207.531 200.977 205.773 199.219 203.625 199.219H191.906V175.781C191.906 173.633 190.148 171.875 188 171.875C185.852 171.875 184.094 173.633 184.094 175.781V199.219H168.469V120.391C171.008 120.82 173.625 121.094 176.281 121.094C178.937 121.094 181.555 120.82 184.094 120.391V144.531C184.094 146.68 185.852 148.438 188 148.438ZM130.227 129.492C127.853 132.469 123.127 132.784 120.461 130.039C117.779 127.278 117.938 122.697 121.008 120.273L140.656 104.609C142.258 106.484 144.016 108.242 145.891 109.844C145.891 109.844 130.254 129.457 130.227 129.492ZM129.406 156.25H145.031V199.219H129.406V156.25ZM90.3438 144.531H105.969V199.219H90.3438V144.531ZM51.2812 167.969H66.9062V199.219H51.2812V167.969ZM199.719 207.031V214.844H35.6562V207.031H199.719ZM176.281 113.281C154.758 113.281 137.219 95.7422 137.219 74.2188C137.219 52.6953 154.758 35.1562 176.281 35.1562C197.805 35.1562 215.344 52.6953 215.344 74.2188C215.344 95.7422 197.805 113.281 176.281 113.281Z" fill="url(#paint1_linear_2573_894)"/>
<path d="M188 164.062C190.157 164.062 191.906 162.314 191.906 160.156C191.906 157.999 190.157 156.25 188 156.25C185.843 156.25 184.094 157.999 184.094 160.156C184.094 162.314 185.843 164.062 188 164.062Z" fill="url(#paint2_linear_2573_894)"/>
<defs>
<linearGradient id="paint0_linear_2573_894" x1="203.625" y1="58.5938" x2="147.158" y2="62.7533" gradientUnits="userSpaceOnUse">
<stop stop-color="#FF863B"/>
<stop offset="1" stop-color="#FF2600"/>
</linearGradient>
<linearGradient id="paint1_linear_2573_894" x1="223.156" y1="27.3438" x2="20.7536" y2="35.8612" gradientUnits="userSpaceOnUse">
<stop stop-color="#FF863B"/>
<stop offset="1" stop-color="#FF2600"/>
</linearGradient>
<linearGradient id="paint2_linear_2573_894" x1="191.906" y1="156.25" x2="183.81" y2="156.591" gradientUnits="userSpaceOnUse">
<stop stop-color="#FF863B"/>
<stop offset="1" stop-color="#FF2600"/>
</linearGradient>
</defs>
</svg>
