<svg width="213" height="246" viewBox="0 0 213 246" fill="none" xmlns="http://www.w3.org/2000/svg">
<path d="M102.563 239C137.084 238.192 206.125 198.423 206.125 45.8063C206.125 44.2922 146.471 40.6585 102.563 5.53235" stroke="white" stroke-width="12.1125"/>
<path d="M110.067 238.317C75.6693 237.513 6.87497 197.886 6.87497 45.8139C6.87497 44.3052 66.3157 40.6845 110.067 5.68384" stroke="white" stroke-width="12.1125"/>
<path d="M56.5361 119.389C56.5361 117.383 58.163 115.756 60.1698 115.756H60.7755C62.7823 115.756 64.4092 117.383 64.4092 119.389V173.896C64.4092 175.902 62.7823 177.529 60.7755 177.529H60.1698C58.163 177.529 56.5361 175.902 56.5361 173.896V119.389Z" fill="#A3E635"/>
<path d="M102.563 78.8127C102.563 76.8059 104.19 75.179 106.197 75.179H106.803C108.81 75.179 110.437 76.8058 110.437 78.8127V175.712C110.437 177.719 108.81 179.346 106.803 179.346H106.197C104.19 179.346 102.563 177.719 102.563 175.712V78.8127Z" fill="#A3E635"/>
<path d="M147.38 62.4609C147.38 60.454 149.006 58.8271 151.013 58.8271H151.619C153.626 58.8271 155.253 60.454 155.253 62.4609V131.502C155.253 133.509 153.626 135.136 151.619 135.136H151.013C149.006 135.136 147.38 133.509 147.38 131.502V62.4609Z" fill="#A3E635"/>
<path d="M44.4236 141.797C44.4236 139.791 46.0505 138.164 48.0574 138.164H72.8879C74.8948 138.164 76.5217 139.791 76.5217 141.797V151.487C76.5217 153.494 74.8948 155.121 72.8879 155.121H48.0574C46.0505 155.121 44.4236 153.494 44.4236 151.487V141.797Z" fill="#A3E635"/>
<path d="M90.451 100.615C90.451 98.6083 92.0779 96.9814 94.0847 96.9814H118.915C120.922 96.9814 122.549 98.6083 122.549 100.615V153.91C122.549 155.917 120.922 157.544 118.915 157.544H94.0847C92.0779 157.544 90.451 155.917 90.451 153.91V100.615Z" fill="#A3E635"/>
<path d="M135.267 80.6296C135.267 78.6227 136.894 76.9958 138.901 76.9958H163.731C165.738 76.9958 167.365 78.6227 167.365 80.6296V113.333C167.365 115.34 165.738 116.967 163.731 116.967H138.901C136.894 116.967 135.267 115.34 135.267 113.333V80.6296Z" fill="#A3E635"/>
</svg>
