<svg width="44" height="42" viewBox="0 0 44 42" fill="none" xmlns="http://www.w3.org/2000/svg">
<g clip-path="url(#clip0_1127_902)">
<path d="M23.7907 8.52548C24.7505 9.20874 25.4569 10.2428 26.1782 11.1571C26.5234 11.5945 26.8757 12.0256 27.2309 12.4551C27.6716 12.9883 28.1058 13.5258 28.5346 14.0683C28.9312 14.5686 29.3362 15.062 29.7461 15.5517C30.0043 15.8619 30.2524 16.1736 30.4835 16.5042C30.5258 16.5633 30.5681 16.6224 30.6117 16.6833C30.725 16.8435 30.8353 17.0059 30.9453 17.1684C31.1801 17.4196 31.1801 17.4196 31.5351 17.359C32.0205 17.2836 32.4945 17.1652 32.97 17.0443C33.063 17.0211 33.156 16.9979 33.2518 16.974C33.5468 16.9003 33.8416 16.826 34.1365 16.7516C34.432 16.6773 34.7276 16.6032 35.0232 16.5293C35.2065 16.4834 35.3898 16.4373 35.573 16.391C36.7454 16.0971 37.7496 15.9684 38.8592 16.5347C39.6042 16.9885 40.1163 17.6126 40.382 18.4413C40.5217 19.092 40.4896 19.647 40.3196 20.2896C40.3022 20.3559 40.2847 20.4222 40.2668 20.4906C40.0344 21.3648 39.7812 22.2334 39.5287 23.1022C39.4746 23.2891 39.4205 23.476 39.3665 23.6629C39.2534 24.0536 39.1401 24.4442 39.0267 24.8348C38.8845 25.3248 38.7426 25.8148 38.6008 26.305C38.3276 27.249 38.0535 28.1928 37.778 29.1362C37.6275 29.6518 37.4781 30.1677 37.3296 30.6839C37.2411 30.9907 37.1518 31.2974 37.0623 31.604C37.0216 31.7442 36.9812 31.8845 36.9412 32.0249C36.8866 32.216 36.8309 32.4066 36.7748 32.5973C36.7442 32.7031 36.7136 32.809 36.6821 32.918C36.4943 33.4076 36.2487 33.798 35.7865 34.0645C35.7219 34.103 35.6574 34.1415 35.5909 34.1811C35.2461 34.348 34.9319 34.3844 34.5506 34.3853C34.4593 34.3857 34.3681 34.3861 34.2741 34.3866C34.1742 34.3865 34.0743 34.3865 33.9714 34.3865C33.865 34.3869 33.7586 34.3872 33.649 34.3876C33.2912 34.3887 32.9335 34.389 32.5757 34.3894C32.3197 34.39 32.0637 34.3906 31.8078 34.3913C31.0387 34.3932 30.2697 34.3942 29.5007 34.3951C29.1385 34.3955 28.7762 34.396 28.414 34.3965C27.2096 34.3981 26.0053 34.3995 24.801 34.4002C24.4886 34.4004 24.1761 34.4006 23.8637 34.4008C23.7861 34.4008 23.7084 34.4009 23.6284 34.4009C22.3704 34.4017 21.1124 34.4042 19.8544 34.4073C18.5625 34.4105 17.2707 34.4123 15.9788 34.4126C15.2536 34.4128 14.5284 34.4136 13.8032 34.4161C13.121 34.4184 12.4388 34.4187 11.7567 34.4178C11.5063 34.4177 11.2559 34.4183 11.0056 34.4196C10.6637 34.4213 10.322 34.4207 9.98011 34.4194C9.88108 34.4205 9.78204 34.4215 9.68001 34.4226C8.92955 34.4159 8.43212 34.2349 7.84646 33.7749C7.35593 33.1694 7.15082 32.4116 6.94306 31.6746C6.90338 31.5368 6.90338 31.5368 6.86289 31.3963C6.7761 31.0944 6.69023 30.7923 6.60437 30.4902C6.54329 30.2771 6.48215 30.0641 6.42095 29.851C6.25993 29.2898 6.0997 28.7284 5.93963 28.167C5.77933 27.6052 5.61835 27.0436 5.45739 26.482C5.27125 25.8325 5.08523 25.183 4.89996 24.5332C4.64925 23.6543 4.39826 22.7755 4.13787 21.8993C4.10033 21.7724 4.06279 21.6454 4.02525 21.5185C3.96048 21.3003 3.89504 21.0824 3.82868 20.8647C3.52546 19.842 3.38773 18.785 3.87347 17.7888C4.38067 16.9767 5.01142 16.4443 5.94497 16.1685C6.84028 15.9832 7.71858 16.179 8.58552 16.402C8.6999 16.4301 8.81427 16.4582 8.93211 16.4871C9.29371 16.576 9.65483 16.6667 10.0159 16.7576C10.3794 16.8489 10.7431 16.9397 11.107 17.0292C11.3325 17.0847 11.5578 17.1412 11.7828 17.1988C11.9356 17.2365 11.9356 17.2365 12.0916 17.2749C12.1807 17.2975 12.2699 17.32 12.3618 17.3432C12.6423 17.3834 12.832 17.3666 13.102 17.2826C13.2846 17.0905 13.4356 16.9091 13.5909 16.6973C13.6855 16.5734 13.7802 16.4495 13.8751 16.3258C13.9244 16.2609 13.9736 16.1961 14.0244 16.1293C14.2793 15.7992 14.5465 15.4793 14.8131 15.1585C15.2075 14.6817 15.5971 14.2019 15.9803 13.7163C16.4379 13.1369 16.9098 12.57 17.3844 12.0041C17.7497 11.5677 18.1085 11.1271 18.4615 10.6809C18.5051 10.6261 18.5486 10.5713 18.5936 10.5148C18.7974 10.2584 18.9997 10.0011 19.1998 9.74181C20.3315 8.30967 22.0576 7.56444 23.7907 8.52548Z" fill="#FFA600"/>
<path d="M9.5422 37.6426C9.67752 37.642 9.67752 37.642 9.81558 37.6415C9.96372 37.6416 9.96372 37.6416 10.1149 37.6417C10.2727 37.6413 10.2727 37.6413 10.4336 37.6408C10.7873 37.64 11.141 37.6399 11.4947 37.6397C11.7478 37.6393 12.0009 37.6388 12.254 37.6383C12.9425 37.6369 13.631 37.6364 14.3195 37.6359C14.7495 37.6357 15.1794 37.6353 15.6094 37.6348C16.8002 37.6337 17.9909 37.6327 19.1816 37.6323C19.2578 37.6323 19.334 37.6323 19.4125 37.6323C19.4889 37.6322 19.5653 37.6322 19.644 37.6322C19.7988 37.6322 19.9535 37.6321 20.1083 37.6321C20.1851 37.6321 20.2618 37.632 20.3409 37.632C21.5847 37.6316 22.8285 37.6299 24.0723 37.6277C25.3496 37.6254 26.6268 37.6242 27.9041 37.6241C28.6211 37.624 29.3382 37.6234 30.0552 37.6217C30.7296 37.6201 31.4041 37.6199 32.0786 37.6207C32.3261 37.6208 32.5736 37.6204 32.8212 37.6194C33.1591 37.6182 33.4971 37.6188 33.835 37.6198C33.9329 37.619 34.0308 37.6182 34.1317 37.6174C34.9185 37.6229 35.5992 37.7601 36.1776 38.3311C36.5922 38.9231 36.739 39.4479 36.6665 40.1656C36.5036 40.8533 36.1588 41.2216 35.5848 41.638C35.1989 41.865 34.9022 41.9155 34.4574 41.9162C34.3672 41.9166 34.2769 41.917 34.184 41.9174C34.0852 41.9173 33.9865 41.9172 33.8847 41.9171C33.7795 41.9174 33.6743 41.9177 33.5659 41.918C33.2123 41.9188 32.8586 41.919 32.5049 41.9191C32.2518 41.9196 31.9987 41.92 31.7456 41.9206C31.0571 41.9219 30.3686 41.9225 29.6801 41.9229C29.2501 41.9231 28.8201 41.9236 28.3901 41.924C27.1994 41.9252 26.0087 41.9262 24.8179 41.9265C24.7417 41.9265 24.6655 41.9265 24.587 41.9265C24.4725 41.9266 24.4725 41.9266 24.3556 41.9266C24.2008 41.9267 24.046 41.9267 23.8913 41.9267C23.8145 41.9268 23.7377 41.9268 23.6586 41.9268C22.4149 41.9272 21.1711 41.9289 19.9273 41.9311C18.65 41.9334 17.3727 41.9346 16.0955 41.9347C15.3784 41.9348 14.6614 41.9354 13.9444 41.9371C13.2699 41.9388 12.5955 41.9389 11.921 41.9381C11.6735 41.938 11.426 41.9384 11.1784 41.9394C10.8404 41.9406 10.5025 41.94 10.1645 41.939C10.0666 41.9398 9.96874 41.9406 9.86788 41.9414C9.08105 41.9359 8.40034 41.7988 7.82201 41.2277C7.40789 40.6364 7.25931 40.1103 7.33312 39.3932C7.47154 38.8475 7.69959 38.3552 8.18104 38.0264C8.64385 37.753 9.01001 37.6434 9.5422 37.6426Z" fill="#FFA600"/>
<path d="M23.3691 0.38616C24.0025 0.831164 24.4879 1.3496 24.6402 2.12409C24.7103 3.05603 24.6347 3.73436 24.0291 4.46547C23.5506 4.9739 23.0285 5.2779 22.3195 5.32991C21.3404 5.34494 20.7453 5.19275 20.0213 4.52846C19.4272 3.89497 19.328 3.25232 19.3403 2.41639C19.3901 1.68323 19.7033 1.20396 20.2115 0.674684C21.0525 -0.0454191 22.4018 -0.176966 23.3691 0.38616Z" fill="#FFA600"/>
<path d="M42.818 9.2159C43.327 9.58957 43.7689 10.0915 43.902 10.7174C43.9954 11.6163 43.9744 12.3899 43.4131 13.1312C42.8895 13.7235 42.321 14.0161 41.5374 14.1268C40.8249 14.167 40.1471 13.9573 39.5669 13.5502C38.9832 13.0284 38.6992 12.4115 38.5888 11.6455C38.555 10.8811 38.78 10.2621 39.2698 9.67339C40.2036 8.71962 41.641 8.53051 42.818 9.2159Z" fill="#FFA600"/>
<path d="M4.18974 9.21016C4.83109 9.68371 5.22599 10.2257 5.37797 11.0069C5.49015 11.7809 5.28243 12.5273 4.82453 13.1635C4.29613 13.7399 3.67138 14.0203 2.89571 14.1294C2.12152 14.1627 1.49467 13.9406 0.898524 13.4569C0.260106 12.8475 0.0785661 12.3209 0.0429688 11.4474C0.0659562 10.6923 0.234267 10.1404 0.747656 9.57449C1.68515 8.71771 3.07415 8.55763 4.18974 9.21016Z" fill="#FFA600"/>
</g>
<defs>
<clipPath id="clip0_1127_902">
<rect width="44" height="42" fill="white"/>
</clipPath>
</defs>
</svg>
