<svg width="42" height="42" viewBox="0 0 42 42" fill="none" xmlns="http://www.w3.org/2000/svg">
<g clip-path="url(#clip0_1127_925)">
<path d="M20.9998 -0.0408936C21.1216 -0.0421625 21.1216 -0.0421625 21.2458 -0.043457C21.5543 0.0111594 21.7598 0.114496 21.9841 0.328247C22.1657 0.597305 22.3065 0.883457 22.4494 1.17451C22.4917 1.25823 22.5341 1.34195 22.5777 1.42821C22.7094 1.68977 22.8392 1.95222 22.9685 2.21497C23.0469 2.37282 23.1252 2.53067 23.2035 2.68853C23.435 3.15683 23.6633 3.62663 23.8914 4.09656C24.0549 4.43267 24.2187 4.76868 24.3826 5.10464C24.4227 5.18688 24.4628 5.26912 24.5041 5.35384C24.7562 5.86996 25.011 6.3846 25.2689 6.8978C25.3158 6.99111 25.3158 6.99111 25.3636 7.08631C25.5075 7.37232 25.6519 7.65806 25.7969 7.94351C25.8469 8.04259 25.8969 8.14166 25.9469 8.24074C26.0114 8.3676 26.0114 8.3676 26.0772 8.49703C26.1677 8.69543 26.1677 8.69543 26.1677 8.8595C26.2957 8.87281 26.2957 8.87281 26.4263 8.8864C27.4463 8.99481 28.4608 9.13272 29.4759 9.27927C29.6019 9.29743 29.6019 9.29743 29.7305 9.31596C30.1731 9.37985 30.6156 9.44408 31.0582 9.50858C31.4226 9.56162 31.7871 9.61392 32.1517 9.66559C32.5956 9.7285 33.0392 9.79262 33.4828 9.85764C33.6508 9.88207 33.819 9.90607 33.9871 9.92963C34.2214 9.96256 34.4554 9.99705 34.6894 10.0319C34.7582 10.0412 34.827 10.0505 34.8979 10.0601C35.4095 10.1389 35.7389 10.3199 36.1191 10.6796C36.3064 10.9917 36.3711 11.2851 36.3396 11.6486C36.1721 12.1334 35.9372 12.4247 35.5722 12.7791C35.5213 12.8297 35.4704 12.8803 35.4179 12.9325C35.2559 13.0932 35.0928 13.2527 34.9297 13.4122C34.8217 13.5193 34.7137 13.6264 34.6059 13.7336C34.5008 13.8376 34.3956 13.9415 34.2904 14.0454C34.2425 14.0927 34.1947 14.14 34.1453 14.1887C33.8995 14.429 33.6491 14.6607 33.3889 14.8854C33.0587 15.1717 32.75 15.4751 32.4431 15.786C32.3594 15.8701 32.3594 15.8701 32.2741 15.956C32.0978 16.1333 31.9218 16.3108 31.7458 16.4884C31.5137 16.7228 31.2812 16.9569 31.0486 17.1908C30.9966 17.2435 30.9446 17.2961 30.8911 17.3504C30.5832 17.6599 30.2663 17.951 29.9311 18.2309C29.8803 18.2785 29.8294 18.3261 29.7771 18.3751C29.7145 18.4315 29.652 18.4879 29.5875 18.546C29.3753 18.9126 29.4692 19.2033 29.5473 19.6069C29.5688 19.7306 29.5688 19.7306 29.5908 19.8569C29.6387 20.1299 29.6893 20.4023 29.7399 20.6749C29.7737 20.865 29.8073 21.0552 29.8407 21.2454C29.9291 21.7468 30.0197 22.2479 30.1109 22.7489C30.2563 23.5485 30.3987 24.3487 30.5404 25.149C30.5901 25.4276 30.641 25.706 30.692 25.9843C30.723 26.1571 30.7539 26.3299 30.7848 26.5026C30.7991 26.579 30.8134 26.6554 30.8282 26.734C31.0676 28.0936 31.0676 28.0936 30.782 28.6752C30.5055 28.9747 30.2794 29.1731 29.8616 29.2222C29.3648 29.2378 29.0358 29.1273 28.6037 28.8911C28.5105 28.8426 28.5105 28.8426 28.4155 28.7931C28.2158 28.6885 28.0172 28.5819 27.8186 28.4752C27.6804 28.4024 27.5422 28.3297 27.4038 28.2571C27.0739 28.0836 26.7448 27.9086 26.416 27.7331C26.2062 27.6215 25.9956 27.5114 25.7848 27.4018C25.0784 27.0343 24.3773 26.6568 23.6754 26.2808C23.5243 26.1999 23.3731 26.1192 23.2219 26.0386C22.8095 25.8182 22.3976 25.5975 21.9912 25.3664C21.9065 25.3189 21.9065 25.3189 21.8201 25.2704C21.6796 25.1913 21.5399 25.1107 21.4003 25.0299C21.1009 24.9131 20.9786 24.9238 20.6716 25.0197C20.4129 25.1417 20.1662 25.2826 19.918 25.4247C19.0985 25.8832 18.2677 26.3156 17.4314 26.7423C16.6175 27.1581 15.8067 27.5773 15.0063 28.0189C14.7348 28.1679 14.4631 28.3166 14.1912 28.465C14.1232 28.5021 14.0553 28.5393 13.9853 28.5776C13.7865 28.6853 13.5866 28.7908 13.3862 28.8956C13.3289 28.9271 13.2715 28.9586 13.2124 28.991C12.7989 29.2034 12.4393 29.2605 11.9763 29.2032C11.5368 29.0457 11.2825 28.7999 11.074 28.3829C11.0322 27.7424 11.097 27.133 11.2173 26.5052C11.2325 26.422 11.2477 26.3388 11.2634 26.253C11.2961 26.0743 11.3291 25.8955 11.3625 25.7169C11.4151 25.4339 11.4663 25.1508 11.5171 24.8675C11.6615 24.0627 11.807 23.2583 11.9568 22.4545C12.0486 21.9613 12.1377 21.4676 12.2249 20.9735C12.2586 20.7859 12.2933 20.5983 12.3291 20.411C12.379 20.1496 12.4253 19.8878 12.4709 19.6255C12.4942 19.5101 12.4942 19.5101 12.5181 19.3924C12.5865 18.9887 12.5865 18.9887 12.4537 18.6137C12.3296 18.4663 12.2025 18.3386 12.0583 18.2111C11.9813 18.1373 11.9042 18.0634 11.8248 17.9874C11.737 17.908 11.6491 17.8287 11.561 17.7496C10.7781 17.0338 10.0365 16.2756 9.29026 15.5219C8.85842 15.0867 8.42947 14.656 7.96197 14.2587C7.59801 13.9379 7.25533 13.5938 6.91109 13.2521C6.82157 13.1635 6.73168 13.0753 6.64144 12.9875C6.50934 12.8589 6.37837 12.7292 6.24759 12.5993C6.20743 12.5606 6.16727 12.5218 6.1259 12.4819C5.82323 12.1773 5.67933 11.8877 5.64453 11.4592C5.68809 10.9646 5.85312 10.6582 6.23413 10.3361C6.46892 10.2023 6.67232 10.1414 6.93896 10.1024C7.01417 10.0912 7.08938 10.0799 7.16687 10.0683C7.24878 10.0566 7.3307 10.0449 7.41509 10.0329C7.50182 10.0201 7.58856 10.0072 7.67792 9.99402C7.96476 9.95175 8.25172 9.9103 8.5387 9.86887C8.73792 9.83972 8.93713 9.81052 9.13634 9.78129C9.5539 9.72013 9.97151 9.65935 10.3892 9.59886C10.9249 9.52125 11.4606 9.44294 11.9963 9.36438C12.4076 9.30409 12.819 9.24405 13.2304 9.1841C13.428 9.1553 13.6255 9.12645 13.8231 9.09755C14.099 9.05725 14.3749 9.01727 14.6508 8.97738C14.7327 8.96536 14.8147 8.95335 14.899 8.94097C14.9743 8.93016 15.0495 8.91935 15.127 8.90822C15.1922 8.89876 15.2574 8.88929 15.3246 8.87954C15.5037 8.8595 15.5037 8.8595 15.8318 8.8595C15.8541 8.78814 15.8764 8.71678 15.8994 8.64326C15.9918 8.37894 16.1002 8.13941 16.2261 7.88956C16.2724 7.79715 16.3188 7.70474 16.3665 7.60952C16.4172 7.50932 16.4678 7.40912 16.5185 7.30891C16.5713 7.2038 16.6241 7.09868 16.6768 6.99354C16.816 6.71618 16.9556 6.43901 17.0953 6.16189C17.3427 5.67115 17.5895 5.18017 17.8361 4.68904C17.8628 4.63591 17.8895 4.58278 17.917 4.52803C18.3457 3.67402 18.7633 2.81519 19.1721 1.95145C20.1205 -0.0500527 20.1205 -0.0500527 20.9998 -0.0408936ZM20.9177 4.18372C20.8795 4.26259 20.8413 4.34146 20.802 4.42272C20.4381 5.17363 20.0728 5.92381 19.706 6.67329C19.5114 7.07099 19.3173 7.4689 19.1242 7.86731C18.9318 8.26412 18.7381 8.66024 18.5434 9.05595C18.4688 9.20818 18.3947 9.36063 18.321 9.51332C18.2175 9.72785 18.1122 9.94149 18.0066 10.155C17.9764 10.2185 17.9462 10.2821 17.9151 10.3475C17.8856 10.4062 17.8561 10.465 17.8258 10.5255C17.8009 10.5763 17.7761 10.6272 17.7506 10.6795C17.4293 11.0982 17.001 11.2157 16.5014 11.2876C16.4406 11.2973 16.3797 11.307 16.317 11.317C16.1281 11.3468 15.939 11.3748 15.7498 11.4025C15.6364 11.4196 15.523 11.4367 15.4096 11.4539C15.1279 11.4959 14.8461 11.536 14.5641 11.5754C14.3809 11.601 14.1977 11.627 14.0146 11.6531C13.4951 11.7271 12.9756 11.8006 12.456 11.8734C12.1352 11.9185 11.8145 11.964 11.4938 12.0099C11.3725 12.0272 11.2512 12.0442 11.1299 12.061C10.9613 12.0844 10.7928 12.1085 10.6243 12.1328C10.4809 12.153 10.4809 12.153 10.3346 12.1736C10.1138 12.2179 9.9545 12.274 9.76147 12.3868C10.123 12.7504 10.4849 13.1138 10.8469 13.4768C10.9699 13.6001 11.0927 13.7235 11.2154 13.847C11.3928 14.0254 11.5705 14.2035 11.7482 14.3815C11.8022 14.436 11.8562 14.4905 11.9119 14.5466C12.2269 14.8616 12.5514 15.1599 12.8886 15.451C13.1108 15.6457 13.3219 15.8505 13.5317 16.0584C13.5741 16.1003 13.6165 16.1422 13.6601 16.1854C13.7483 16.2728 13.8364 16.3603 13.9244 16.448C14.0588 16.5816 14.194 16.7143 14.3293 16.847C14.4155 16.9327 14.5017 17.0185 14.5879 17.1043C14.6481 17.163 14.6481 17.163 14.7096 17.2229C15.0425 17.558 15.1696 17.7911 15.1857 18.2643C15.1823 18.6178 15.1325 18.9534 15.0688 19.3005C15.0575 19.3648 15.0461 19.4292 15.0345 19.4955C15.01 19.6341 14.9853 19.7726 14.9603 19.9111C14.9209 20.1303 14.8821 20.3496 14.8436 20.569C14.7478 21.1133 14.6509 21.6573 14.5538 22.2013C14.4716 22.6623 14.3899 23.1233 14.3089 23.5845C14.2708 23.8006 14.2319 24.0165 14.1929 24.2323C14.1696 24.3645 14.1464 24.4967 14.1232 24.629C14.1122 24.6889 14.1011 24.7488 14.0898 24.8105C14.0411 25.0928 14.0061 25.3216 14.1091 25.5939C15.7634 24.746 15.7634 24.746 17.4006 23.8661C17.6182 23.7474 17.8358 23.6288 18.0534 23.5102C18.2742 23.3892 18.4943 23.2669 18.7143 23.1444C18.9109 23.0356 19.1085 22.9287 19.3064 22.8221C19.4468 22.7458 19.5862 22.6673 19.7254 22.5888C20.32 22.271 20.8175 22.0915 21.4919 22.2306C21.8912 22.3801 22.2588 22.5767 22.6301 22.7843C22.7353 22.8411 22.8406 22.8978 22.946 22.9543C23.2077 23.0951 23.4681 23.2382 23.7281 23.3821C23.9345 23.4963 24.1417 23.6089 24.3489 23.7216C24.5645 23.8389 24.7799 23.9564 24.9949 24.0749C25.9501 24.6 26.921 25.0955 27.8904 25.5939C28.0144 25.2662 27.9377 24.9621 27.8763 24.629C27.8651 24.5652 27.8539 24.5014 27.8424 24.4356C27.818 24.2972 27.7934 24.1589 27.7684 24.0206C27.7288 23.8013 27.6901 23.5819 27.6516 23.3625C27.5696 22.8962 27.4865 22.4301 27.4033 21.964C27.3072 21.4249 27.2116 20.8857 27.1168 20.3463C27.0787 20.1309 27.04 19.9155 27.0012 19.7002C26.9777 19.567 26.9542 19.4337 26.9307 19.3005C26.9198 19.2412 26.909 19.1819 26.8978 19.1209C26.7955 18.532 26.7295 17.9966 27.0701 17.4728C27.2338 17.2793 27.4104 17.1018 27.5914 16.9245C27.6423 16.8738 27.6932 16.823 27.7456 16.7707C27.8531 16.6638 27.9609 16.5572 28.069 16.4508C28.2325 16.2898 28.3952 16.128 28.5577 15.9659C29.0049 15.5215 29.4519 15.0834 29.9323 14.6747C30.3775 14.2756 30.7915 13.8415 31.2126 13.4174C31.3124 13.3172 31.4122 13.2171 31.5119 13.117C31.7542 12.8738 31.9962 12.6304 32.238 12.3868C31.9316 12.1991 31.6075 12.165 31.2581 12.119C31.1927 12.1099 31.1273 12.1008 31.0599 12.0914C30.9181 12.0718 30.7762 12.0523 30.6344 12.0332C30.4094 12.0027 30.1846 11.9714 29.9597 11.9398C29.3206 11.8503 28.6812 11.762 28.0417 11.6747C27.6503 11.6213 27.259 11.5667 26.8678 11.5114C26.7191 11.4906 26.5704 11.4703 26.4216 11.4504C26.2128 11.4225 26.0042 11.3931 25.7956 11.3634C25.7348 11.3556 25.674 11.3479 25.6114 11.3399C25.131 11.2692 24.6438 11.132 24.3104 10.7601C24.2855 10.7086 24.2607 10.657 24.2351 10.604C24.2051 10.5445 24.1751 10.4851 24.1442 10.4238C24.1143 10.3595 24.0844 10.2953 24.0535 10.229C24.0028 10.1267 24.0028 10.1267 23.9511 10.0224C23.8785 9.87563 23.8068 9.72847 23.7358 9.58097C23.5861 9.27177 23.4303 8.96581 23.2748 8.6595C23.1128 8.33981 22.9528 8.01918 22.7928 7.69852C22.6709 7.45424 22.5486 7.21014 22.4263 6.96605C21.9654 6.04439 21.5149 5.11879 21.0818 4.18372C21.0276 4.18372 20.9735 4.18372 20.9177 4.18372Z" fill="#4161FF"/>
<path d="M26.3712 32.1207C26.4632 32.1203 26.5551 32.1199 26.6499 32.1194C26.8445 32.1189 27.0391 32.119 27.2336 32.1197C27.5291 32.1204 27.8244 32.118 28.1198 32.1154C28.3094 32.1153 28.499 32.1153 28.6886 32.1156C28.776 32.1147 28.8633 32.1137 28.9533 32.1128C29.8785 32.1213 30.5698 32.3789 31.2351 33.0231C31.9502 33.8033 32.1256 34.5507 32.099 35.5827C32.0511 36.4706 31.6537 37.0605 31.0079 37.6524C30.4099 38.1346 29.8597 38.3311 29.0831 38.3246C28.9996 38.3243 28.9996 38.3243 28.9145 38.3239C28.739 38.323 28.5635 38.321 28.388 38.3189C28.2681 38.3181 28.1483 38.3173 28.0284 38.3166C27.7364 38.3148 27.4444 38.312 27.1524 38.3086C27.1542 38.3955 27.1559 38.4824 27.1577 38.5719C27.1636 38.8957 27.1674 39.2195 27.1705 39.5433C27.1721 39.6832 27.1744 39.823 27.1772 39.9629C27.1812 40.1645 27.183 40.366 27.1845 40.5677C27.1862 40.6297 27.1879 40.6918 27.1896 40.7557C27.1898 41.1804 27.1022 41.4156 26.8243 41.7539C26.3959 42.0867 25.9504 42.0635 25.4298 42C25.0537 41.8219 24.8648 41.6366 24.6915 41.2617C24.6552 40.9928 24.657 40.726 24.6584 40.4549C24.6578 40.374 24.6572 40.2932 24.6567 40.2098C24.6552 39.9428 24.6555 39.6757 24.6559 39.4087C24.6556 39.2228 24.6551 39.037 24.6546 38.8512C24.6539 38.4618 24.6541 38.0724 24.6549 37.683C24.6559 37.1842 24.6542 36.6854 24.6518 36.1866C24.6503 35.8028 24.6503 35.4191 24.6508 35.0353C24.6508 34.8514 24.6503 34.6675 24.6493 34.4836C24.6481 34.2264 24.6489 33.9692 24.6504 33.712C24.6496 33.6362 24.6488 33.5604 24.6479 33.4822C24.6532 33.0262 24.7154 32.7643 25.0196 32.4024C25.4008 32.0558 25.8849 32.1194 26.3712 32.1207ZM27.1524 34.6172C27.1524 35.0233 27.1524 35.4293 27.1524 35.8477C27.4447 35.8521 27.7369 35.8554 28.0292 35.8579C28.1118 35.8593 28.1944 35.8607 28.2796 35.8621C28.3597 35.8626 28.4398 35.8632 28.5223 35.8637C28.5958 35.8646 28.6692 35.8654 28.7449 35.8663C29.0732 35.8375 29.298 35.7529 29.5314 35.5196C29.573 35.1355 29.573 35.1355 29.4288 34.7915C29.1456 34.6095 28.86 34.6073 28.5303 34.6092C28.4499 34.6095 28.3696 34.6097 28.2868 34.61C28.2035 34.6107 28.1201 34.6114 28.0343 34.6121C27.9497 34.6125 27.8651 34.6128 27.7779 34.6132C27.5694 34.6142 27.3609 34.6156 27.1524 34.6172Z" fill="#4161FF"/>
<path d="M11.6484 32.1561C12.1302 32.3627 12.267 32.6858 12.4687 33.1405C12.5653 33.3897 12.6506 33.6419 12.734 33.8958C12.7572 33.9653 12.7804 34.0348 12.8043 34.1064C12.8528 34.252 12.901 34.3976 12.949 34.5434C13.0227 34.7668 13.0973 34.9899 13.172 35.2129C13.2192 35.3549 13.2663 35.4969 13.3133 35.639C13.3468 35.7389 13.3468 35.7389 13.3809 35.8409C13.4651 36.0977 13.5351 36.3138 13.5351 36.5858C13.5892 36.5858 13.6434 36.5858 13.6991 36.5858C13.7083 36.5411 13.7174 36.4964 13.7268 36.4503C13.8239 35.9922 13.949 35.5517 14.0981 35.108C14.1206 35.0408 14.143 34.9736 14.1662 34.9044C14.2134 34.7637 14.261 34.6231 14.3087 34.4826C14.3811 34.2682 14.4518 34.0534 14.5225 33.8384C14.5689 33.701 14.6154 33.5637 14.662 33.4264C14.6827 33.3626 14.7034 33.2988 14.7248 33.2332C14.8979 32.7335 15.1408 32.4529 15.5859 32.1561C16.0415 32.0996 16.4448 32.0967 16.8625 32.2946C17.1783 32.5942 17.3451 32.8671 17.3568 33.3064C17.3348 34.0955 17.0341 34.8332 16.7817 35.5726C16.7272 35.7355 16.6728 35.8985 16.6186 36.0614C16.505 36.4014 16.3904 36.741 16.2751 37.0803C16.1276 37.5145 15.982 37.9493 15.8371 38.3844C15.7251 38.7203 15.6124 39.0559 15.4993 39.3914C15.4454 39.5517 15.3916 39.712 15.338 39.8724C15.263 40.0964 15.187 40.3201 15.1107 40.5436C15.0889 40.6094 15.0671 40.6751 15.0446 40.7428C14.8882 41.1963 14.7134 41.6031 14.3243 41.9054C13.934 42.077 13.5422 42.0492 13.1249 41.9999C12.6428 41.7933 12.5074 41.4698 12.3046 41.0155C12.2116 40.78 12.1295 40.5416 12.049 40.3015C12.0257 40.2334 12.0025 40.1653 11.9785 40.0951C11.9025 39.8719 11.8273 39.6484 11.7522 39.4249C11.7262 39.348 11.7003 39.2711 11.6736 39.1918C11.5363 38.7851 11.3997 38.3781 11.2635 37.971C11.1234 37.5526 10.9815 37.1348 10.8392 36.7172C10.7294 36.3939 10.621 36.0702 10.5128 35.7464C10.4611 35.5923 10.4089 35.4383 10.3562 35.2845C9.70098 33.3689 9.70098 33.3689 10.0641 32.6022C10.5346 32.1063 10.9929 32.0788 11.6484 32.1561Z" fill="#4161FF"/>
<path d="M21.4923 32.1563C21.8684 32.3344 22.0573 32.5197 22.2306 32.8946C22.2669 33.1635 22.265 33.4303 22.2637 33.7014C22.2643 33.7823 22.2648 33.8632 22.2654 33.9465C22.2669 34.2136 22.2666 34.4806 22.2661 34.7476C22.2665 34.9335 22.2669 35.1193 22.2674 35.3051C22.2682 35.6945 22.268 36.0839 22.2672 36.4733C22.2662 36.9722 22.2679 37.4709 22.2703 37.9697C22.2718 38.3535 22.2718 38.7372 22.2713 39.121C22.2713 39.3049 22.2718 39.4888 22.2728 39.6727C22.274 39.9299 22.2731 40.1871 22.2717 40.4443C22.2725 40.5201 22.2733 40.596 22.2741 40.6741C22.2689 41.1294 22.2083 41.3939 21.9024 41.7539C21.474 42.0867 21.0285 42.0635 20.5079 42C20.1318 41.8219 19.9429 41.6366 19.7696 41.2618C19.7333 40.9928 19.7352 40.726 19.7365 40.4549C19.7359 40.374 19.7354 40.2932 19.7348 40.2098C19.7333 39.9428 19.7336 39.6758 19.7341 39.4087C19.7337 39.2229 19.7333 39.037 19.7328 38.8512C19.732 38.4618 19.7322 38.0724 19.733 37.683C19.734 37.1842 19.7323 36.6854 19.7299 36.1866C19.7284 35.8028 19.7285 35.4191 19.7289 35.0354C19.7289 34.8514 19.7284 34.6675 19.7274 34.4836C19.7262 34.2264 19.7271 33.9693 19.7285 33.712C19.7277 33.6362 19.7269 33.5604 19.7261 33.4822C19.7313 33.0269 19.7919 32.7625 20.0978 32.4024C20.5262 32.0696 20.9717 32.0928 21.4923 32.1563Z" fill="#4161FF"/>
<path d="M36.4219 23.461C36.7859 23.6081 37.1158 23.7906 37.4505 23.9947C37.6015 24.0867 37.754 24.1753 37.9072 24.2637C39.112 24.9686 39.112 24.9686 39.293 25.5118C39.334 25.9764 39.3561 26.3668 39.0469 26.7422C38.8087 27.0103 38.6488 27.1265 38.2879 27.1795C37.582 27.2185 37.1237 26.9666 36.5296 26.6089C36.4414 26.5583 36.3531 26.5076 36.2622 26.4554C34.818 25.6153 34.818 25.6153 34.6448 25.026C34.5784 24.6151 34.6464 24.2993 34.8428 23.9275C35.2812 23.404 35.7733 23.3504 36.4219 23.461Z" fill="#4161FF"/>
<path d="M6.56256 23.461C6.93143 23.6357 7.13881 23.8241 7.30084 24.1993C7.40279 24.6435 7.39005 24.9337 7.23355 25.3593C7.00243 25.7236 6.59156 25.9289 6.22578 26.1382C6.17941 26.1649 6.13304 26.1916 6.08526 26.219C5.93864 26.3032 5.79174 26.3869 5.64483 26.4705C5.54532 26.5276 5.44583 26.5847 5.34635 26.6418C4.67989 27.0237 4.30467 27.2155 3.5274 27.1524C3.21952 27.0214 3.00901 26.8295 2.78912 26.5782C2.64851 26.1564 2.63321 25.6965 2.79937 25.2811C3.22547 24.784 3.78118 24.4645 4.33966 24.1348C4.48007 24.0512 4.61882 23.9648 4.75755 23.8784C5.36457 23.5198 5.85422 23.3429 6.56256 23.461Z" fill="#4161FF"/>
<path d="M38.4728 5.00392C38.7807 5.13493 38.9912 5.32683 39.2111 5.57813C39.3517 5.99996 39.367 6.45983 39.2009 6.87525C38.7748 7.37237 38.2191 7.6918 37.6606 8.02151C37.5202 8.10516 37.3814 8.19155 37.2427 8.27796C36.6357 8.63659 36.146 8.81348 35.4377 8.69532C35.0688 8.52059 34.8614 8.33226 34.6994 7.95704C34.5975 7.51282 34.6102 7.22262 34.7667 6.79707C35.0827 6.29898 35.7376 6.02226 36.2363 5.7309C36.3392 5.6703 36.4417 5.60889 36.5436 5.54665C37.1701 5.16441 37.7127 4.86684 38.4728 5.00392Z" fill="#4161FF"/>
<path d="M4.68479 5.10394C4.95294 5.24281 5.21168 5.39159 5.47038 5.54734C5.55862 5.59799 5.64686 5.64864 5.73778 5.70083C7.18199 6.541 7.18199 6.541 7.35517 7.13029C7.4216 7.54118 7.35356 7.85695 7.15715 8.22874C6.9223 8.50925 6.70932 8.66369 6.34849 8.74131C5.63601 8.76747 5.13972 8.52139 4.54949 8.16157C4.39852 8.0696 4.24596 7.98092 4.09283 7.8926C2.88801 7.18769 2.88801 7.18769 2.70695 6.64451C2.666 6.17982 2.64386 5.78948 2.95304 5.41404C3.41214 4.89756 4.05336 4.85636 4.68479 5.10394Z" fill="#4161FF"/>
<path d="M38.5926 14.8121C38.6673 14.8117 38.7421 14.8113 38.8191 14.8108C38.9767 14.8103 39.1344 14.8104 39.2921 14.8111C39.5327 14.8118 39.773 14.8094 40.0136 14.8068C40.1671 14.8067 40.3207 14.8067 40.4742 14.807C40.5457 14.8061 40.6173 14.8051 40.691 14.8042C41.1398 14.8093 41.398 14.8764 41.7537 15.1758C42.0864 15.6042 42.0633 16.0497 41.9998 16.5703C41.8216 16.9466 41.6358 17.134 41.2615 17.3086C41.0026 17.3452 40.7462 17.3451 40.4851 17.3442C40.4104 17.3446 40.3357 17.3451 40.2587 17.3455C40.101 17.346 39.9433 17.3459 39.7856 17.3452C39.5451 17.3445 39.3047 17.3469 39.0641 17.3495C38.9106 17.3496 38.7571 17.3496 38.6035 17.3493C38.532 17.3502 38.4604 17.3512 38.3867 17.3521C37.9379 17.347 37.6797 17.2799 37.324 16.9805C36.9913 16.5521 37.0144 16.1066 37.0779 15.586C37.4092 14.8867 37.8849 14.8097 38.5926 14.8121Z" fill="#4161FF"/>
<path d="M1.51449 14.8121C1.58922 14.8117 1.66394 14.8113 1.74093 14.8108C1.89861 14.8103 2.0563 14.8104 2.21398 14.8111C2.45453 14.8118 2.69492 14.8094 2.93546 14.8068C3.089 14.8067 3.24254 14.8067 3.39608 14.807C3.46762 14.8061 3.53915 14.8051 3.61286 14.8042C4.06167 14.8093 4.31989 14.8764 4.67558 15.1758C5.00832 15.6042 4.98516 16.0497 4.92167 16.5703C4.74343 16.9466 4.55769 17.134 4.18339 17.3086C3.92451 17.3452 3.66811 17.3451 3.40698 17.3442C3.33225 17.3446 3.25753 17.3451 3.18054 17.3455C3.02286 17.346 2.86517 17.3459 2.70749 17.3452C2.46694 17.3445 2.22655 17.3469 1.98601 17.3495C1.83247 17.3496 1.67893 17.3496 1.52539 17.3493C1.45385 17.3502 1.38232 17.3512 1.30861 17.3521C0.859796 17.347 0.601583 17.2799 0.245891 16.9805C-0.0868532 16.5521 -0.0636934 16.1066 -0.000203233 15.586C0.331032 14.8867 0.806818 14.8097 1.51449 14.8121Z" fill="#4161FF"/>
</g>
<defs>
<clipPath id="clip0_1127_925">
<rect width="42" height="42" fill="white"/>
</clipPath>
</defs>
</svg>
