<svg width="80" height="41" viewBox="0 0 80 41" fill="none" xmlns="http://www.w3.org/2000/svg">
<path d="M18.8022 0.0352486C19.6071 0.329513 20.3033 0.723965 21.0436 1.15673C21.5173 1.43209 21.5173 1.43209 22.0007 1.71301C22.3363 1.91013 22.6719 2.10725 23.0177 2.31034C23.3636 2.51247 23.7096 2.71448 24.0557 2.91638C24.5801 3.22242 25.1045 3.52857 25.6285 3.83534C26.7201 4.47384 27.8163 5.10325 28.917 5.72592C29.1788 5.87476 29.4406 6.0236 29.7104 6.17695C30.1989 6.4543 30.6883 6.73009 31.1787 7.00415C31.7263 7.317 32.2611 7.65233 32.7922 7.99253C32.7922 8.18862 32.7922 8.38471 32.7922 8.58674C28.7487 10.8667 28.7487 10.8667 27.3764 10.6851C26.8255 10.5288 26.8255 10.5288 26.2635 10.3694C25.7575 10.2598 25.2504 10.1548 24.7426 10.0537C24.5093 10.0012 24.2759 9.94877 24.0355 9.89471C23.1862 9.75744 22.3742 9.75648 21.5154 9.77517C21.8589 9.85407 22.2024 9.93297 22.5564 10.0143C23.0131 10.1202 23.4698 10.2262 23.9266 10.3323C24.1523 10.384 24.378 10.4357 24.6105 10.4889C25.8799 10.7847 27.1105 11.121 28.3408 11.5578C28.3408 12.048 28.3408 12.5383 28.3408 13.0434C28.5955 13.0371 28.8502 13.0309 29.1127 13.0245C34.9059 12.9025 40.4346 13.111 46.1463 14.2318C46.5225 14.3055 46.5225 14.3055 46.9062 14.3808C49.895 14.9878 52.771 15.8846 55.6426 16.9058C54.483 17.3382 53.5631 17.0736 52.3783 16.8129C51.9777 16.7278 51.577 16.6431 51.1762 16.5587C50.9778 16.5165 50.7794 16.4742 50.575 16.4306C37.6961 13.7432 20.363 14.3348 8.9588 21.4088C6.66279 22.9858 4.43368 24.8048 3.87681 27.6771C3.77853 29.4452 4.38742 30.8146 5.19368 32.3554C5.39179 32.7514 5.58971 33.1475 5.7872 33.5438C3.46266 32.3801 1.39214 30.6703 0.336579 28.233C-0.11901 26.7013 -0.143012 25.3582 0.455977 23.8646C2.91115 19.4004 7.67151 17.2031 12.3402 15.7452C14.9635 14.9927 17.6318 14.3559 20.3284 13.9347C17.5043 13.9934 14.8831 14.5439 12.1465 15.204C11.8742 15.2696 11.6018 15.3352 11.3213 15.4028C10.9548 15.4933 10.9548 15.4933 10.581 15.5857C9.94181 15.7173 9.94181 15.7173 9.05154 15.7173C9.05154 13.9525 9.05154 12.1877 9.05154 10.3694C8.46396 10.2713 7.87638 10.1733 7.27099 10.0723C6.51286 9.71831 6.51286 9.7183 5.82429 9.31094C5.47656 9.10815 5.47656 9.10815 5.12181 8.90126C4.94967 8.79747 4.77752 8.69368 4.60016 8.58674C4.99632 7.39687 5.48275 7.27791 6.56619 6.67295C6.73673 6.57659 6.90727 6.48023 7.08298 6.38096C7.63884 6.06756 8.19672 5.75799 8.75478 5.44854C9.32597 5.12863 9.89671 4.80791 10.4674 4.48704C10.8464 4.27395 11.2255 4.06117 11.6048 3.84868C12.6945 3.23667 13.7716 2.60903 14.8383 1.95753C15.0686 1.81718 15.2989 1.67684 15.5362 1.53225C15.9506 1.27759 16.3634 1.02022 16.7742 0.759739C18.0969 -0.0474619 18.0969 -0.0474619 18.8022 0.0352486Z" fill="#F7F8F8"/>
<path d="M11.8446 30.3562L15.696 21.6213H18.1264L21.9902 30.3562H19.4227L16.4064 22.8317H17.3786L14.3623 30.3562H11.8446ZM13.951 28.6591L14.5867 26.8373H18.8493L19.485 28.6591H13.951Z" fill="white"/>
<path d="M22.6898 30.3562V21.6213H25.1577V28.3971H29.3206V30.3562H22.6898Z" fill="white"/>
<path d="M30.2972 30.3562V21.6213H34.2856C35.0833 21.6213 35.7688 21.7502 36.3421 22.0081C36.9238 22.266 37.3725 22.6403 37.6882 23.1312C38.004 23.6137 38.1619 24.1877 38.1619 24.8532C38.1619 25.5104 38.004 26.0803 37.6882 26.5628C37.3725 27.0453 36.9238 27.4196 36.3421 27.6858C35.7688 27.9437 35.0833 28.0727 34.2856 28.0727H31.6682L32.765 26.9995V30.3562H30.2972ZM32.765 27.2616L31.6682 26.126H34.136C34.6512 26.126 35.0334 26.0137 35.2827 25.7891C35.5403 25.5645 35.6691 25.2525 35.6691 24.8532C35.6691 24.4456 35.5403 24.1294 35.2827 23.9048C35.0334 23.6802 34.6512 23.5679 34.136 23.5679H31.6682L32.765 22.4324V27.2616Z" fill="white"/>
<path d="M45.1982 21.6213H47.666V30.3562H45.1982V21.6213ZM41.833 30.3562H39.3651V21.6213H41.833V30.3562ZM45.3727 26.9496H41.6585V24.9031H45.3727V26.9496Z" fill="white"/>
<path d="M48.3598 30.3562L52.2112 21.6213H54.6416L58.5054 30.3562H55.9379L52.9216 22.8317H53.8938L50.8775 30.3562H48.3598ZM50.4662 28.6591L51.1019 26.8373H55.3645L56.0002 28.6591H50.4662Z" fill="white"/>
<path d="M59.205 30.3562V21.6213H63.6671C64.8138 21.6213 65.6696 21.8334 66.2346 22.2577C66.7997 22.6736 67.0822 23.2227 67.0822 23.9048C67.0822 24.3541 66.9617 24.7492 66.7207 25.0903C66.4881 25.4231 66.1557 25.6893 65.7236 25.8889C65.2999 26.0803 64.793 26.1759 64.203 26.1759L64.4523 25.577C65.0672 25.577 65.6031 25.6726 66.0602 25.864C66.5172 26.047 66.8703 26.3173 67.1196 26.6751C67.3772 27.0245 67.506 27.4529 67.506 27.9604C67.506 28.7174 67.1985 29.308 66.5836 29.7323C65.9771 30.1483 65.088 30.3562 63.9164 30.3562H59.205ZM61.6479 28.5718H63.7169C64.1407 28.5718 64.4606 28.5011 64.6767 28.3597C64.901 28.2099 65.0132 27.9853 65.0132 27.6858C65.0132 27.3863 64.901 27.1659 64.6767 27.0245C64.4606 26.8747 64.1407 26.7998 63.7169 26.7998H61.4735V25.0903H63.343C63.7585 25.0903 64.0701 25.0196 64.2778 24.8782C64.4855 24.7367 64.5894 24.5246 64.5894 24.2418C64.5894 23.9589 64.4855 23.7509 64.2778 23.6178C64.0701 23.4764 63.7585 23.4057 63.343 23.4057H61.6479V28.5718Z" fill="white"/>
<path d="M68.7842 30.3562V21.6213H71.252V30.3562H68.7842Z" fill="white"/>
<path d="M74.8649 30.3562V23.5804H72.1852V21.6213H80V23.5804H77.3327V30.3562H74.8649Z" fill="white"/>
<path d="M2.82911 41C2.4635 41 2.12401 40.9382 1.81063 40.8146C1.49726 40.6863 1.22424 40.508 0.991581 40.2798C0.758922 40.0516 0.578493 39.7854 0.450293 39.4812C0.322094 39.1722 0.257994 38.8371 0.257994 38.4758C0.257994 38.1145 0.322094 37.7817 0.450293 37.4775C0.578493 37.1685 0.758922 36.8999 0.991581 36.6717C1.22424 36.4436 1.49726 36.2677 1.81063 36.1441C2.12401 36.0157 2.4635 35.9515 2.82911 35.9515C3.19946 35.9515 3.54133 36.0157 3.85471 36.1441C4.16808 36.2677 4.43873 36.4436 4.66664 36.6717C4.8993 36.8999 5.07972 37.1685 5.20792 37.4775C5.34087 37.7817 5.40735 38.1145 5.40735 38.4758C5.40735 38.8371 5.34087 39.1722 5.20792 39.4812C5.07972 39.7854 4.8993 40.0516 4.66664 40.2798C4.43873 40.508 4.16808 40.6863 3.85471 40.8146C3.54133 40.9382 3.19946 41 2.82911 41ZM2.82911 40.779C3.16148 40.779 3.47011 40.7219 3.755 40.6078C4.03988 40.4937 4.28679 40.3321 4.4957 40.1229C4.70937 39.9138 4.87318 39.6713 4.98714 39.3956C5.10584 39.1152 5.16519 38.8085 5.16519 38.4758C5.16519 38.143 5.10584 37.8388 4.98714 37.5631C4.87318 37.2826 4.70937 37.0378 4.4957 36.8286C4.28679 36.6194 4.03988 36.4578 3.755 36.3437C3.47011 36.2296 3.16148 36.1726 2.82911 36.1726C2.50149 36.1726 2.19523 36.2296 1.91034 36.3437C1.62546 36.4578 1.37618 36.6194 1.16251 36.8286C0.953596 37.0378 0.789785 37.2826 0.671082 37.5631C0.557126 37.8388 0.500149 38.143 0.500149 38.4758C0.500149 38.8085 0.557126 39.1152 0.671082 39.3956C0.789785 39.6713 0.953596 39.9138 1.16251 40.1229C1.37618 40.3321 1.62546 40.4937 1.91034 40.6078C2.19523 40.7219 2.50149 40.779 2.82911 40.779Z" fill="white"/>
<path d="M7.15167 40.9715V35.9801H7.3511L11.0119 40.6863H10.8908V35.9801H11.133V40.9715H10.9336L7.27275 36.2653H7.39383V40.9715H7.15167Z" fill="white"/>
<path d="M13.3867 40.9715V35.9801H13.6288V40.7504H16.5489V40.9715H13.3867Z" fill="white"/>
<path d="M17.9593 40.9715V35.9801H18.2015V40.9715H17.9593Z" fill="white"/>
<path d="M20.4524 40.9715V35.9801H20.6518L24.3126 40.6863H24.1915V35.9801H24.4337V40.9715H24.2343L20.5735 36.2653H20.6945V40.9715H20.4524Z" fill="white"/>
<path d="M26.8868 38.326H29.636V38.5471H26.8868V38.326ZM26.9295 40.7504H30.0562V40.9715H26.6874V35.9801H29.9565V36.2011H26.9295V40.7504Z" fill="white"/>
<path d="M34.3003 38.326H37.0495V38.5471H34.3003V38.326ZM34.343 40.7504H37.4697V40.9715H34.1009V35.9801H37.37V36.2011H34.343V40.7504Z" fill="white"/>
<path d="M39.2856 40.9715V35.9801H41.2086C41.7404 35.9801 42.2033 36.0894 42.5974 36.3081C42.9915 36.522 43.2978 36.8167 43.5162 37.1923C43.7394 37.5631 43.8509 37.9909 43.8509 38.4758C43.8509 38.9607 43.7394 39.3909 43.5162 39.7664C43.2978 40.1372 42.9915 40.4319 42.5974 40.6506C42.2033 40.8645 41.7404 40.9715 41.2086 40.9715H39.2856ZM39.5278 40.7504H41.1944C41.6834 40.7504 42.1084 40.653 42.4692 40.4581C42.8348 40.2632 43.115 39.9946 43.3097 39.6523C43.5091 39.3101 43.6088 38.9179 43.6088 38.4758C43.6088 38.0337 43.5091 37.6415 43.3097 37.2992C43.115 36.957 42.8348 36.6884 42.4692 36.4935C42.1084 36.2986 41.6834 36.2011 41.1944 36.2011H39.5278V40.7504Z" fill="white"/>
<path d="M47.513 41C46.9052 41 46.4256 40.8217 46.0743 40.4652C45.7277 40.1087 45.5544 39.5763 45.5544 38.868V35.9801H45.7965V38.8608C45.7965 39.5073 45.9461 39.9898 46.2452 40.3083C46.5443 40.6221 46.9669 40.779 47.513 40.779C48.059 40.779 48.4816 40.6221 48.7807 40.3083C49.0799 39.9898 49.2294 39.5073 49.2294 38.8608V35.9801H49.4645V38.868C49.4645 39.5763 49.2888 40.1087 48.9374 40.4652C48.5908 40.8217 48.116 41 47.513 41Z" fill="white"/>
<path d="M53.7376 41C53.3719 41 53.0325 40.9382 52.7191 40.8146C52.4057 40.6863 52.1327 40.508 51.9 40.2798C51.6674 40.0516 51.4869 39.7854 51.3587 39.4812C51.2305 39.1722 51.1664 38.8371 51.1664 38.4758C51.1664 38.1145 51.2305 37.7817 51.3587 37.4775C51.4869 37.1685 51.6674 36.8999 51.9 36.6717C52.1327 36.4436 52.4057 36.2677 52.7191 36.1441C53.0325 36.0157 53.3719 35.9515 53.7376 35.9515C54.0747 35.9515 54.3928 36.0062 54.6919 36.1156C54.9911 36.2249 55.2498 36.3913 55.4682 36.6147L55.3187 36.7716C55.0955 36.5576 54.851 36.4055 54.5851 36.3152C54.3239 36.2201 54.0438 36.1726 53.7447 36.1726C53.4123 36.1726 53.1037 36.232 52.8188 36.3509C52.5339 36.465 52.2846 36.6266 52.071 36.8357C51.862 37.0449 51.6982 37.2897 51.5795 37.5702C51.4656 37.8459 51.4086 38.1478 51.4086 38.4758C51.4086 38.8038 51.4656 39.108 51.5795 39.3885C51.6982 39.6642 51.862 39.9066 52.071 40.1158C52.2846 40.325 52.5339 40.489 52.8188 40.6078C53.1037 40.7219 53.4123 40.779 53.7447 40.779C54.0438 40.779 54.3239 40.7338 54.5851 40.6435C54.851 40.5484 55.0955 40.3915 55.3187 40.1729L55.4682 40.3297C55.2498 40.5532 54.9911 40.7219 54.6919 40.836C54.3928 40.9453 54.0747 41 53.7376 41Z" fill="white"/>
<path d="M56.1829 40.9715L58.4905 35.9801H58.7255L61.0331 40.9715H60.7696L58.5546 36.1441H58.6614L56.4464 40.9715H56.1829ZM56.9805 39.5097L57.0731 39.3029H60.1214L60.214 39.5097H56.9805Z" fill="white"/>
<path d="M63.128 40.9715V36.2011H61.2975V35.9801H65.1934V36.2011H63.363V40.9715H63.128Z" fill="white"/>
<path d="M66.5586 40.9715V35.9801H66.8008V40.9715H66.5586Z" fill="white"/>
<path d="M71.1171 41C70.7515 41 70.412 40.9382 70.0986 40.8146C69.7853 40.6863 69.5123 40.508 69.2796 40.2798C69.0469 40.0516 68.8665 39.7854 68.7383 39.4812C68.6101 39.1722 68.546 38.8371 68.546 38.4758C68.546 38.1145 68.6101 37.7817 68.7383 37.4775C68.8665 37.1685 69.0469 36.8999 69.2796 36.6717C69.5123 36.4436 69.7853 36.2677 70.0986 36.1441C70.412 36.0157 70.7515 35.9515 71.1171 35.9515C71.4875 35.9515 71.8293 36.0157 72.1427 36.1441C72.4561 36.2677 72.7267 36.4436 72.9546 36.6717C73.1873 36.8999 73.3677 37.1685 73.4959 37.4775C73.6289 37.7817 73.6954 38.1145 73.6954 38.4758C73.6954 38.8371 73.6289 39.1722 73.4959 39.4812C73.3677 39.7854 73.1873 40.0516 72.9546 40.2798C72.7267 40.508 72.4561 40.6863 72.1427 40.8146C71.8293 40.9382 71.4875 41 71.1171 41ZM71.1171 40.779C71.4495 40.779 71.7581 40.7219 72.043 40.6078C72.3279 40.4937 72.5748 40.3321 72.7837 40.1229C72.9974 39.9138 73.1612 39.6713 73.2751 39.3956C73.3938 39.1152 73.4532 38.8085 73.4532 38.4758C73.4532 38.143 73.3938 37.8388 73.2751 37.5631C73.1612 37.2826 72.9974 37.0378 72.7837 36.8286C72.5748 36.6194 72.3279 36.4578 72.043 36.3437C71.7581 36.2296 71.4495 36.1726 71.1171 36.1726C70.7895 36.1726 70.4832 36.2296 70.1984 36.3437C69.9135 36.4578 69.6642 36.6194 69.4505 36.8286C69.2416 37.0378 69.0778 37.2826 68.9591 37.5631C68.8451 37.8388 68.7882 38.143 68.7882 38.4758C68.7882 38.8085 68.8451 39.1152 68.9591 39.3956C69.0778 39.6713 69.2416 39.9138 69.4505 40.1229C69.6642 40.3321 69.9135 40.4937 70.1984 40.6078C70.4832 40.7219 70.7895 40.779 71.1171 40.779Z" fill="white"/>
<path d="M75.4397 40.9715V35.9801H75.6391L79.2999 40.6863H79.1788V35.9801H79.421V40.9715H79.2216L75.5608 36.2653H75.6818V40.9715H75.4397Z" fill="white"/>
</svg>
