<svg width="145" height="48" viewBox="0 0 145 48" fill="none" xmlns="http://www.w3.org/2000/svg">
<path d="M41.4288 0.0185293C41.5176 0.0554473 41.5176 0.0554473 41.6083 0.0931112C41.505 1.25128 41.1565 2.209 40.4382 3.13063C40.2969 3.20391 40.1551 3.27634 40.0127 3.34759C39.982 3.41192 39.9513 3.47624 39.9197 3.54252C39.7436 3.89426 39.4572 4.10661 39.1618 4.35105C39.1036 4.40084 39.0455 4.45062 38.9856 4.50191C38.5517 4.86635 38.5517 4.86635 38.3108 4.86635C38.3569 4.92648 38.403 4.98661 38.4504 5.04856C38.5393 5.16645 38.5393 5.16645 38.6299 5.28672C38.7188 5.40376 38.7188 5.40376 38.8094 5.52318C38.949 5.73421 38.949 5.73421 38.949 5.95117C39.0192 5.95117 39.0895 5.95117 39.1618 5.95117C39.6706 6.81261 40.0742 7.65309 40.3252 8.62934C40.3463 8.71028 40.3675 8.79122 40.3893 8.87462C40.678 10.0796 40.6691 11.3149 40.6643 12.5483C40.6641 12.6261 40.6638 12.7039 40.6636 12.7841C40.6617 13.4355 40.6566 14.0869 40.651 14.7383C40.6496 14.9122 40.6496 14.9122 40.6482 15.0897C40.6419 15.8655 40.6334 16.6412 40.6228 17.4169C40.6195 17.675 40.6166 17.9331 40.6142 18.1912C40.5712 22.5818 39.7477 26.6758 36.928 30.1428C36.8429 30.2496 36.7577 30.3565 36.67 30.4666C36.1454 31.1176 35.5973 31.7364 35.0134 32.3328C34.9547 32.3928 34.896 32.4527 34.8355 32.5145C34.5857 32.7656 34.3488 32.9813 34.056 33.1803C34.139 33.1677 34.222 33.1552 34.3075 33.1422C34.6912 33.0843 35.075 33.0272 35.4588 32.9701C35.5893 32.9503 35.7197 32.9306 35.8541 32.9102C38.8078 32.473 41.7146 32.5783 44.6531 33.0651C44.7564 33.0821 44.8598 33.0992 44.9662 33.1169C45.5767 33.2235 46.1682 33.364 46.7632 33.5397C47.1266 33.6401 47.493 33.7086 47.8637 33.774C48.217 33.8607 48.4521 33.9539 48.6761 34.2547C48.7234 34.3395 48.7707 34.4244 48.8194 34.5118C48.874 34.6092 48.9286 34.7066 48.9849 34.807C49.2724 35.3407 49.5565 35.8759 49.8359 36.414C50.0107 36.7503 50.1863 37.086 50.3622 37.4217C50.3965 37.4872 50.4308 37.5527 50.4661 37.6202C50.8066 38.2692 51.1591 38.9108 51.5156 39.5507C51.9242 40.2852 52.3221 41.0238 52.684 41.7835C52.7827 41.9873 52.7827 41.9873 52.9566 42.2386C53.1594 42.6326 53.1886 42.9307 53.2026 43.3777C53.0801 43.6185 53.0801 43.6185 52.8834 43.8116C52.0378 43.98 51.1758 43.7389 50.3638 43.5065C49.4635 43.2626 48.5724 43.0569 47.6531 42.9056C47.2712 42.8396 46.8985 42.7545 46.5212 42.6658C41.8298 41.7038 35.761 41.8852 31.5771 44.4784C31.4831 44.5365 31.389 44.5946 31.2922 44.6545C31.2214 44.6986 31.1506 44.7426 31.0777 44.788C31.2551 44.7887 31.2551 44.7887 31.4361 44.7894C34.3133 44.8005 37.1905 44.8123 40.0677 44.8248C41.4591 44.8308 42.8505 44.8366 44.2419 44.8419C45.4546 44.8466 46.6673 44.8516 47.88 44.8571C48.5221 44.8599 49.1643 44.8626 49.8064 44.8649C50.4109 44.867 51.0153 44.8696 51.6197 44.8726C51.8415 44.8736 52.0633 44.8745 52.2851 44.8751C52.5881 44.876 52.8911 44.8776 53.1941 44.8793C53.2817 44.8794 53.3693 44.8795 53.4596 44.8796C54.7641 44.8891 54.7641 44.8891 55.1288 45.1901C55.1864 45.2655 55.244 45.3409 55.3034 45.4185C55.362 45.493 55.4207 45.5676 55.4812 45.6444C55.5366 45.7198 55.592 45.7951 55.6491 45.8728C55.7079 45.9469 55.7667 46.021 55.8273 46.0974C56.03 46.3986 56.0202 46.6013 55.9682 46.9576C55.7809 47.1769 55.6247 47.2712 55.3411 47.3123C55.0782 47.3245 54.8172 47.3252 54.554 47.3227C54.4528 47.323 54.3515 47.3233 54.2472 47.3237C53.907 47.3244 53.5669 47.3229 53.2268 47.3214C52.9832 47.3214 52.7396 47.3217 52.496 47.3221C51.9708 47.3226 51.4456 47.3222 50.9204 47.321C50.0888 47.3192 49.2572 47.3201 48.4257 47.3215C47.2585 47.3232 46.0914 47.3242 44.9243 47.3242C44.8132 47.3242 44.8132 47.3242 44.6998 47.3242C43.875 47.3241 43.0503 47.3238 42.2255 47.323C42.1515 47.3229 42.0776 47.3228 42.0014 47.3228C41.9275 47.3227 41.8536 47.3226 41.7775 47.3226C41.6286 47.3224 41.4796 47.3223 41.3307 47.3222C41.2571 47.3221 41.1835 47.322 41.1077 47.3219C39.8763 47.3209 38.645 47.3219 37.4137 47.3246C36.5882 47.3262 35.7629 47.3254 34.9375 47.3227C34.4217 47.3216 33.906 47.3228 33.3903 47.3246C33.1526 47.325 32.9148 47.3244 32.6771 47.3229C31.4427 47.3153 30.3682 47.361 29.2063 47.811C28.3531 48.1005 27.5007 48.0425 26.6601 47.7385C25.4431 47.3046 24.2574 47.3159 22.9813 47.3235C22.7391 47.3229 22.4969 47.3221 22.2548 47.3211C21.737 47.3194 21.2192 47.3194 20.7015 47.3207C19.8825 47.3229 19.0636 47.3212 18.2447 47.3191C17.0969 47.3165 15.949 47.3156 14.8011 47.3162C13.6217 47.3168 12.4422 47.3169 11.2627 47.316C11.1899 47.3159 11.1171 47.3159 11.042 47.3158C9.82737 47.3148 8.6127 47.3129 7.39803 47.3106C6.58402 47.3092 5.77002 47.309 4.95601 47.31C4.45043 47.3104 3.94486 47.3099 3.43928 47.3092C3.20494 47.3091 2.9706 47.3094 2.73626 47.31C2.41637 47.3109 2.09651 47.3104 1.77663 47.3096C1.68401 47.3102 1.59139 47.3108 1.49597 47.3114C0.962662 47.3084 0.523561 47.241 0.0178063 47.0661C-0.0793602 46.3064 0.233466 45.8326 0.656023 45.2219C0.952829 44.9192 1.14222 44.9712 1.55863 44.9604C1.63013 44.9583 1.70164 44.9562 1.77531 44.9541C2.01587 44.9475 2.25643 44.9426 2.49703 44.9378C2.66931 44.9337 2.8416 44.9296 3.01389 44.9254C5.06478 44.8792 7.11609 44.8824 9.16736 44.8854C9.72355 44.8861 10.2797 44.8862 10.8359 44.8863C11.8823 44.8867 12.9287 44.8875 13.9751 44.8886C15.1693 44.8899 16.3635 44.8904 17.5577 44.891C20.0079 44.8921 22.4581 44.894 24.9083 44.8964C24.688 44.7568 24.4676 44.6175 24.2471 44.4782C24.1852 44.439 24.1233 44.3997 24.0595 44.3592C19.0144 41.179 12.0105 42.0146 6.50635 43.2692C6.09706 43.3699 5.68986 43.4772 5.2831 43.5879C4.57267 43.7807 3.83786 43.9703 3.10252 43.8116C2.91014 43.693 2.91014 43.693 2.78341 43.4862C2.70044 42.8392 2.88307 42.4241 3.17565 41.8725C3.21487 41.7957 3.25408 41.719 3.29449 41.6399C3.40608 41.4226 3.51964 41.2066 3.63437 40.9911C3.68222 40.9011 3.73008 40.8112 3.77938 40.7186C3.86007 40.5701 3.94151 40.4221 4.0237 40.2745C4.21598 39.924 4.40034 39.5693 4.58505 39.2147C4.88586 38.6376 5.18993 38.0625 5.4975 37.4891C5.888 36.7597 6.2751 36.0284 6.6526 35.2919C6.69562 35.2082 6.73863 35.1246 6.78294 35.0383C6.86765 34.8734 6.95202 34.7082 7.03604 34.5429C7.43287 33.7707 7.43287 33.7707 7.79647 33.6435C7.93593 33.6074 7.93593 33.6074 8.07821 33.5706C8.18244 33.5436 8.28667 33.5165 8.39407 33.4887C8.56207 33.4468 8.56207 33.4468 8.73346 33.4041C8.90464 33.3609 8.90464 33.3609 9.07929 33.3169C11.5638 32.7061 11.5638 32.7061 12.6758 32.7464C12.6231 32.5853 12.6231 32.5853 12.5694 32.4209C12.559 32.2378 12.5547 32.0542 12.554 31.8707C12.5533 31.7583 12.5526 31.6459 12.5519 31.53C12.5518 31.408 12.5517 31.286 12.5515 31.1603C12.551 30.97 12.551 30.97 12.5505 30.7759C12.5499 30.5061 12.5497 30.2362 12.5497 29.9664C12.5495 29.5609 12.5475 29.1555 12.5455 28.7501C12.542 27.2483 12.5856 25.7739 12.7821 24.2847C12.7998 24.1502 12.8175 24.0157 12.8358 23.8771C12.888 23.5123 12.9461 23.1494 13.0082 22.7863C13.0305 22.6556 13.0528 22.5249 13.0757 22.3902C13.4598 20.2342 14.0093 18.0982 14.73 16.0338C14.8559 15.6712 14.9757 15.3064 15.0957 14.9417C15.1368 14.8183 15.178 14.695 15.2203 14.5679C15.5062 13.6405 15.5822 12.8354 15.6009 11.8635C15.6726 9.44779 15.915 7.2412 17.4624 5.30028C17.5326 5.26448 17.6028 5.22868 17.6751 5.1918C17.6751 5.0486 17.6751 4.9054 17.6751 4.75786C17.441 4.59092 17.441 4.59092 17.1433 4.43242C15.9503 3.4692 14.8653 2.19659 14.6644 0.593996C14.6636 0.384658 14.6636 0.384658 14.6968 0.0931112C15.1428 0.0379782 15.3861 0.169548 15.7617 0.404151C16.1652 0.638603 16.6044 0.791266 17.0369 0.960972C18.5612 1.57105 20.0617 2.21138 21.5161 2.98061C21.8699 3.16215 21.8699 3.16215 22.249 3.23911C22.5198 3.13007 22.5198 3.13007 22.8141 2.96112C24.5103 2.1476 26.1728 1.87517 28.0329 1.86951C28.1125 1.86876 28.1922 1.868 28.2743 1.86722C29.9409 1.85841 31.775 2.14328 33.262 2.9518C33.6668 3.16506 33.9094 3.28533 34.3573 3.14419C34.6916 2.9726 35.0104 2.78257 35.3325 2.58821C35.5571 2.47666 35.7832 2.36817 36.0106 2.26276C36.1823 2.18264 36.1823 2.18264 36.3575 2.10089C37.4333 1.60902 38.5184 1.13967 39.6222 0.716886C39.8056 0.646407 39.8056 0.646407 39.9928 0.574503C40.1054 0.531851 40.2179 0.4892 40.3339 0.445256C40.6546 0.318083 40.6546 0.318083 40.9426 0.128707C41.1828 -0.0153715 41.1828 -0.0153715 41.4288 0.0185293ZM23.4191 5.30028C23.4542 5.37188 23.4893 5.44347 23.5255 5.51724C23.5957 5.51724 23.614 5.58686 23.614 5.58686C23.614 5.58686 23.7382 5.66044 23.7382 5.73421C23.8856 5.86524 23.8856 5.86524 24.0839 5.99863C25.5102 7.05488 26.8379 8.4107 27.8405 9.88452C27.8908 9.94689 27.9411 10.0093 27.993 10.0735C28.0632 10.0735 28.1334 10.0735 28.2057 10.0735C28.299 9.92887 28.3918 9.78383 28.4825 9.63747C28.9478 8.9653 29.5432 8.36766 30.1204 7.79538C30.2015 7.71036 30.2827 7.62533 30.3664 7.53773C30.6693 7.23598 30.9847 6.9543 31.305 6.67199C31.4603 6.53222 31.6094 6.3853 31.7558 6.23594C31.9287 6.05966 31.9287 6.05966 32.1414 5.95117C32.1414 5.87958 32.1414 5.80798 32.1414 5.73421C32.2818 5.66261 32.4222 5.59101 32.5669 5.51724C32.5669 5.40985 32.5669 5.30245 32.5669 5.1918C29.8417 3.66787 26.1155 3.80651 23.4191 5.30028ZM19.8025 6.27662C19.7674 6.38402 19.7323 6.49142 19.6962 6.60207C19.5989 6.6499 19.5989 6.6499 19.4996 6.69869C18.7 7.11902 18.3643 8.38157 18.0948 9.18786C17.7369 10.4097 17.694 11.8889 18.1787 13.0759C18.484 13.6475 18.8509 14.1262 19.284 14.6027C19.3351 14.6592 19.3863 14.7157 19.439 14.7739C19.7634 15.1298 20.0984 15.4715 20.4408 15.8095C22.1043 17.4926 23.2847 19.3778 23.3659 21.8168C23.2893 24.3445 22.4375 26.5037 21.0403 28.5664C20.8527 28.8373 20.7421 28.9106 20.7421 28.9106C20.7421 28.9106 20.6195 29.1665 20.5471 29.1665C20.4419 29.3182 20.3378 29.4709 20.2403 29.6278C20.0451 29.9396 19.8287 30.2363 19.6164 30.5361C18.7276 31.596 18.7276 31.596 18.207 32.7464C19.1013 32.9697 19.1013 32.9697 20.0153 32.9634C20.4923 32.6544 20.7636 32.2416 21.079 31.77C21.2368 31.5697 21.3963 31.3708 21.5576 31.1734C21.6726 31.0276 21.6726 31.0276 21.7899 30.8789C22.144 30.4447 22.5212 30.0345 22.901 29.6237C23.1229 29.4082 23.1886 29.2903 23.1886 29.2903C23.1886 29.2903 23.3106 29.0949 23.4191 29.058C23.5872 28.893 23.5872 28.893 23.7515 28.6851C24.4531 27.8426 25.1869 27.0303 25.9232 26.2196C26.2596 25.8487 26.5924 25.4749 26.9226 25.0984C27.2344 24.7437 27.5516 24.3999 27.8866 24.0678C28.2029 23.7537 28.5018 23.4315 28.7908 23.0914C29.2355 22.5691 29.6972 22.1132 30.2267 21.6812C30.5935 21.3219 30.9202 20.9474 31.2373 20.5421C31.7039 19.9455 32.1962 19.4451 32.7796 18.9691C33.2269 18.5383 33.63 18.0675 34.039 17.5995C34.2191 17.3975 34.4014 17.205 34.5945 17.0164C34.8253 16.8238 34.8253 16.8238 34.8006 16.5825C34.8664 16.5556 34.9323 16.5288 35.0001 16.5011C35.2407 16.3849 35.2407 16.3849 35.3325 16.1485C35.4389 15.9316 35.4389 15.9316 35.62 15.8523C35.9789 15.65 36.2148 15.3451 36.476 15.0298C36.5319 14.9624 36.5879 14.895 36.6456 14.8255C37.8594 13.3332 38.3227 12.1302 38.2045 10.182C38.0809 9.12073 37.8194 8.25748 37.2471 7.36145C37.1994 7.28538 37.1517 7.2093 37.1025 7.13092C36.77 6.61938 36.77 6.61938 36.2898 6.27662C35.7626 6.41104 35.3489 6.66159 34.9004 6.96142C34.8367 7.00246 34.773 7.04351 34.7074 7.08579C34.2972 7.35653 33.9645 7.6486 33.6306 8.01234C33.7161 8.04143 33.8017 8.07052 33.8898 8.10049C33.9798 8.143 34.0697 8.18551 34.1624 8.22931C34.1975 8.33671 34.2326 8.44411 34.2688 8.55476C34.3368 8.61964 34.4048 8.68453 34.4749 8.75138C34.921 9.23398 34.9553 9.80533 34.9402 10.4426C34.864 11.0891 34.6507 11.5599 34.1558 11.972C33.4959 12.3156 32.8508 12.3156 32.1414 12.1347C32.1414 12.0631 32.1414 11.9915 32.1414 11.9177C32.0734 11.8663 32.0054 11.8148 31.9353 11.7618C31.7159 11.5923 31.7159 11.5923 31.6095 11.2668C31.5858 11.0435 31.5662 10.8196 31.5497 10.5956C31.5408 10.4777 31.5319 10.3598 31.5227 10.2384C31.5163 10.1482 31.5098 10.058 31.5032 9.96503C31.3896 10.0592 31.2767 10.1543 31.1641 10.2498C31.1012 10.3027 31.0383 10.3555 30.9734 10.41C30.9025 10.4779 30.8316 10.5459 30.7586 10.6159C30.6651 10.6976 30.5716 10.7793 30.4752 10.8634C30.0345 11.4152 30.1218 12.203 30.1004 12.8805C30.0304 14.6565 29.7128 16.2155 28.5739 17.6321C28.4185 17.7758 28.4185 17.7758 28.106 17.891C27.5666 17.7002 27.3389 17.2744 27.0357 16.7994C26.977 16.713 26.9183 16.6266 26.8578 16.5376C26.2047 15.4724 26.1214 14.2463 26.0272 13.0199C26.0189 12.9133 26.0106 12.8068 26.002 12.6969C25.9867 12.4893 25.9734 12.2815 25.9623 12.0735C25.9211 11.4719 25.8377 11.0909 25.4401 10.6159C25.2822 10.5085 25.2822 10.5085 25.121 10.399C25.0881 10.3274 25.0552 10.2558 25.0213 10.182C24.8814 9.91346 24.7485 9.8707 24.4828 9.74807C24.4942 9.82414 24.5056 9.90021 24.5173 9.97859C24.5988 10.6363 24.6704 11.2476 24.2701 11.8092C23.8946 12.113 23.5221 12.226 23.0535 12.3042C22.4011 12.1991 21.8351 11.8871 21.3914 11.3821C21.0317 10.7958 21.0823 10.0814 21.1853 9.42262C21.4507 8.76873 21.8601 8.3484 22.4618 8.01234C22.1013 7.6231 21.7426 7.31189 21.2917 7.036C21.2207 6.94289 21.2207 6.94289 21.2207 6.94289C21.2207 6.94289 21.1143 6.88865 21.079 6.81904C20.9064 6.72811 20.7335 6.63782 20.5604 6.54783C20.416 6.47231 20.416 6.47231 20.2687 6.39527C20.0295 6.26154 20.0295 6.26154 19.8025 6.27662ZM27.7537 13.5517C27.5249 13.8663 27.5249 13.8663 27.6273 14.2637C27.7653 14.5939 27.8507 14.7234 28.0994 14.9552C28.2729 14.6379 28.4261 14.3288 28.5248 13.9789C28.4133 13.5967 28.4133 13.5967 28.2057 13.328C27.965 13.3036 27.965 13.3036 27.7537 13.5517ZM17.1433 16.1485C15.5567 20.3302 14.7785 24.5935 14.7893 29.081C14.7899 29.3616 14.7893 29.6421 14.7886 29.9227C14.7882 31.0847 14.8286 32.2383 14.9095 33.3973C15.1531 33.1542 15.3483 32.9116 15.5411 32.6243C15.8839 32.1182 16.23 31.6147 16.5782 31.1124C16.6887 30.9528 16.7993 30.7931 16.9098 30.6335C17.0799 30.3879 17.25 30.1423 17.4201 29.8967C17.5871 29.6556 17.7541 29.4144 17.9211 29.1732C17.9746 29.0961 18.028 29.0189 18.0831 28.9394C18.429 28.4395 18.7741 27.939 19.1165 27.4367C19.214 27.2957 19.3133 27.1559 19.4149 27.018C20.066 26.1312 20.4742 25.0946 20.8662 24.0678C20.9056 23.9727 20.9449 23.8776 20.9855 23.7796C21.1216 23.2515 21.1182 22.7403 21.1189 22.1964C21.1228 22.036 21.1228 22.036 21.1268 21.8723C21.1297 21.104 20.9807 20.526 20.6535 19.837C20.6015 19.7206 20.5496 19.6043 20.496 19.4844C20.0462 18.6542 19.4386 17.86 18.7388 17.2334C18.6147 17.1403 18.5615 17.086 18.5615 17.086C18.5615 17.086 18.5083 17.0318 18.4197 16.9079C18.181 16.7014 18.181 16.7014 17.8945 16.5079C17.7992 16.4403 17.7039 16.3728 17.6058 16.3032C17.3744 16.1298 17.3744 16.1298 17.1433 16.1485ZM38.2045 16.5825C38.0853 16.704 37.9665 16.8257 37.8488 16.9486C37.6372 17.1603 37.4164 17.3591 37.1939 17.5588C36.7379 17.97 36.3078 18.3829 35.9175 18.8606C35.6068 19.2408 35.2688 19.5815 34.9203 19.9251C34.7148 20.1409 34.5218 20.3624 34.3286 20.5896C33.9659 21.0146 33.6059 21.4263 33.1652 21.7693C32.7777 22.0986 32.4669 22.4829 32.1414 22.8745C31.7406 23.3566 31.3597 23.7912 30.865 24.1763C30.5192 24.5093 30.2037 24.8653 29.8877 25.2272C29.3831 25.8028 28.8513 26.3466 28.3121 26.8883C28.2189 26.9834 28.1256 27.0785 28.0295 27.1765C27.8678 27.3415 27.705 27.5054 27.5409 27.668C27.2844 27.9356 27.0402 28.2091 26.7963 28.4884C26.4736 28.8569 26.144 29.2128 25.7991 29.5597C25.3107 30.0518 24.8632 30.5718 24.4201 31.106C24.1006 31.4898 23.7684 31.8477 23.4191 32.204C23.2239 32.4312 23.031 32.6601 22.8395 32.8905C22.6745 33.0718 22.6745 33.0718 22.4618 33.1803C22.4618 33.2877 22.4618 33.3951 22.4618 33.5058C22.6086 33.5513 22.6086 33.5513 22.7584 33.5977C23.8484 33.946 24.8656 34.3792 25.8415 34.9932C26.0634 35.1511 26.0634 35.1511 26.2911 35.133C26.2911 35.2046 26.2911 35.2762 26.2911 35.35C26.4635 35.5236 26.4635 35.5236 26.6833 35.7025C27.0617 36.0297 27.3667 36.3641 27.6739 36.7602C27.7792 36.8676 27.7792 36.8676 27.8866 36.9772C27.924 36.8632 27.9615 36.7493 28 36.6318C28.3367 35.6429 28.688 34.8228 29.451 34.091C29.6126 33.9476 29.6126 33.9476 29.5885 33.7227C29.6479 33.6959 29.7073 33.669 29.7684 33.6414C30.058 33.4815 30.2873 33.2882 30.5392 33.0718C30.9167 32.7512 31.2965 32.44 31.6898 32.1394C34.0212 30.3528 36.1262 27.9791 37.1408 25.1526C37.1912 25.0206 37.2417 24.8886 37.2937 24.7526C37.3498 24.5969 37.4051 24.4409 37.4599 24.2847C37.5029 24.1627 37.546 24.0406 37.5903 23.9148C37.8807 23.0724 38.1056 22.2459 38.2045 21.3557C38.2138 21.2769 38.2231 21.198 38.2327 21.1168C38.3316 20.1779 38.3228 19.2406 38.3175 18.2979C38.3169 18.1308 38.3165 17.9638 38.316 17.7968C38.3149 17.392 38.313 16.9872 38.3108 16.5825C38.2757 16.5825 38.2406 16.5825 38.2045 16.5825ZM15.8669 35.7839C15.6343 36.0102 15.3981 36.2325 15.1622 36.4551C15.0762 36.5383 15.0762 36.5383 14.9886 36.6231C14.6313 36.9647 14.2773 37.2767 13.8458 37.5196C13.5932 37.4925 13.5932 37.4925 13.4204 37.4111C13.3892 37.2552 13.3582 37.0993 13.3273 36.9433C13.31 36.8565 13.2927 36.7696 13.2749 36.6802C13.177 36.1653 13.0862 35.6491 12.9949 35.133C11.3021 35.3403 11.3021 35.3403 9.61765 35.6076C9.49535 35.6286 9.37304 35.6496 9.24702 35.6712C8.87049 35.8155 8.80291 35.9611 8.63374 36.3263C8.58972 36.406 8.54571 36.4857 8.50036 36.5679C7.70042 38.0631 6.92536 39.5715 6.18724 41.0996C6.42441 41.0524 6.66151 41.0048 6.89858 40.9572C7.03063 40.9307 7.16267 40.9043 7.29872 40.8771C7.68002 40.7987 8.05736 40.7071 8.43554 40.6143C9.17478 40.4391 9.91652 40.3231 10.6681 40.2181C10.8571 40.1907 10.8571 40.1907 11.0499 40.1626C13.7087 39.7829 16.2959 39.8433 18.9516 40.2317C19.0373 40.2433 19.1231 40.2549 19.2114 40.2668C21.8376 40.6247 24.3725 41.691 26.4772 43.3192C26.6975 43.5066 26.6975 43.5066 26.9293 43.4862C26.9372 42.9922 26.943 42.4983 26.9468 42.0043C26.9484 41.8366 26.9506 41.6689 26.9534 41.5012C26.9872 40.232 26.9872 40.232 26.6102 39.0384C26.5423 38.8941 26.5423 38.8941 26.4731 38.7468C25.5914 37.1903 24.0138 36.2817 22.3554 35.7839C21.8415 35.6515 21.3251 35.5356 20.8064 35.4246C20.6781 35.3969 20.5498 35.3693 20.4176 35.3409C19.539 35.1624 18.675 35.0757 17.7815 35.0245C17.6784 35.0147 17.5752 35.0048 17.4689 34.9946C16.6931 34.9218 16.3867 35.2373 15.8669 35.7839ZM35.3524 35.3432C34.9017 35.4601 34.4559 35.574 33.9962 35.6483C32.894 35.8937 31.7579 36.6236 30.865 37.3027C30.7553 37.3854 30.6456 37.4682 30.5326 37.5535C29.8709 38.1843 29.0691 39.065 28.9986 40.0255C28.9943 40.1867 28.9921 40.348 28.9919 40.5093C28.9901 40.5949 28.9883 40.6805 28.9865 40.7687C28.9814 41.0394 28.9791 41.3101 28.9769 41.5809C28.9739 41.7656 28.9707 41.9503 28.9673 42.135C28.9595 42.5854 28.9542 43.0357 28.9503 43.4862C29.0286 43.4351 29.1069 43.3841 29.1876 43.3315C29.3433 43.2302 29.3433 43.2302 29.5021 43.1268C29.6045 43.0601 29.707 42.9934 29.8125 42.9247C30.2153 42.6658 30.6169 42.4125 31.0428 42.195C31.1136 42.1588 31.1843 42.1227 31.2572 42.0854C31.3296 42.0487 31.402 42.012 31.4766 41.9742C31.5473 41.9379 31.6181 41.9016 31.691 41.8642C36.0194 39.6613 41.0546 39.322 45.7567 40.2317C45.8787 40.2549 46.0006 40.2781 46.1263 40.302C48.1629 40.6929 48.1629 40.6929 48.8435 40.8978C49.145 40.9865 49.3809 41.0103 49.6924 40.9911C49.242 39.8053 48.6068 38.7064 47.9915 37.6039C47.8527 37.3549 47.7151 37.1053 47.5783 36.8552C47.5412 36.7878 47.5042 36.7204 47.4661 36.6509C47.3522 36.4348 47.3522 36.4348 47.24 36.0983C47.012 35.7519 46.968 35.7289 46.5927 35.633C46.4121 35.5989 46.2308 35.568 46.0492 35.5398C45.9534 35.5229 45.8575 35.5059 45.7588 35.4884C45.4748 35.4392 45.1905 35.3941 44.9057 35.35C44.7643 35.3264 44.6229 35.3028 44.4815 35.2792C42.8297 35.027 41.1675 35.0146 39.5008 35.011C39.3896 35.0105 39.3896 35.0105 39.2761 35.0101C37.2961 35.0012 37.2961 35.0012 35.3524 35.3432Z" fill="url(#paint0_linear_2669_3178)"/>
<path d="M68.3594 17.7285H63.8965L62.9297 21H60.4883L65.1172 6.78125H67.1973L71.748 21H69.3164L68.3594 17.7285ZM64.4922 15.7168H67.7832L66.1523 10.0918L64.4922 15.7168ZM80.8301 10.2383C81.2077 10.2383 81.5723 10.2643 81.9238 10.3164C82.2819 10.3685 82.5618 10.4303 82.7637 10.502L82.4316 12.8066C82.0736 12.7285 81.7188 12.6699 81.3672 12.6309C81.0221 12.5918 80.6771 12.5723 80.332 12.5723C79.9414 12.5723 79.5898 12.6113 79.2773 12.6895C78.9648 12.7676 78.6882 12.888 78.4473 13.0508C78.1868 13.207 77.9655 13.4056 77.7832 13.6465C77.6009 13.8874 77.4479 14.1641 77.3242 14.4766V21H74.9902V10.4336H77.1777L77.2754 11.8984L77.2852 12.1426C77.7148 11.5501 78.2292 11.0846 78.8281 10.7461C79.4336 10.4076 80.1009 10.2383 80.8301 10.2383ZM89.1699 16.4004L87.9004 17.6016V21H85.5566V6H87.9004V14.8281L88.8672 13.7539L92.0215 10.4336H94.834L90.7227 14.8379L95.4297 21H92.5391L89.1699 16.4004ZM102.48 21.1953C101.699 21.1953 100.983 21.0651 100.332 20.8047C99.6875 20.5443 99.1341 20.1829 98.6719 19.7207C98.2096 19.265 97.8516 18.7279 97.5977 18.1094C97.3503 17.4844 97.2266 16.8105 97.2266 16.0879V15.6875C97.2266 14.8607 97.3568 14.112 97.6172 13.4414C97.8776 12.7708 98.2357 12.1979 98.6914 11.7227C99.1471 11.2474 99.6745 10.8828 100.273 10.6289C100.879 10.3685 101.523 10.2383 102.207 10.2383C102.969 10.2383 103.643 10.3685 104.229 10.6289C104.814 10.8828 105.306 11.2376 105.703 11.6934C106.1 12.1556 106.4 12.7057 106.602 13.3438C106.803 13.9818 106.904 14.6784 106.904 15.4336V16.4395H99.5801V16.4883C99.6517 16.9505 99.7624 17.3379 99.9121 17.6504C100.062 17.9629 100.267 18.2428 100.527 18.4902C100.788 18.7507 101.094 18.9525 101.445 19.0957C101.803 19.2389 102.194 19.3105 102.617 19.3105C103.197 19.3105 103.737 19.1999 104.238 18.9785C104.74 18.7507 105.153 18.4284 105.479 18.0117L106.729 19.2227C106.377 19.7305 105.837 20.1862 105.107 20.5898C104.385 20.9935 103.509 21.1953 102.48 21.1953ZM102.197 12.1328C101.865 12.1328 101.556 12.1947 101.27 12.3184C100.99 12.4355 100.739 12.6048 100.518 12.8262C100.296 13.054 100.111 13.3275 99.9609 13.6465C99.8112 13.9655 99.7005 14.3268 99.6289 14.7305H104.6V14.5742C104.6 14.2682 104.544 13.9655 104.434 13.666C104.323 13.36 104.167 13.0931 103.965 12.8652C103.77 12.6439 103.522 12.4681 103.223 12.3379C102.93 12.2012 102.588 12.1328 102.197 12.1328ZM109.561 21V10.4336H111.67L111.816 11.9375C111.96 11.7357 112.116 11.5501 112.285 11.3809C112.461 11.2051 112.646 11.0488 112.842 10.9121C113.154 10.6973 113.496 10.5312 113.867 10.4141C114.238 10.2969 114.629 10.2383 115.039 10.2383C115.579 10.2383 116.074 10.3164 116.523 10.4727C116.973 10.6289 117.357 10.8763 117.676 11.2148C117.995 11.5534 118.242 11.9863 118.418 12.5137C118.594 13.0345 118.682 13.666 118.682 14.4082V21H116.348V14.4473C116.348 14.0111 116.299 13.6465 116.201 13.3535C116.104 13.0605 115.96 12.8262 115.771 12.6504C115.583 12.4746 115.355 12.3509 115.088 12.2793C114.821 12.2012 114.515 12.1621 114.17 12.1621C113.883 12.1621 113.617 12.2012 113.369 12.2793C113.122 12.3509 112.897 12.4551 112.695 12.5918C112.539 12.696 112.393 12.8229 112.256 12.9727C112.119 13.1224 111.999 13.2852 111.895 13.4609V21H109.561ZM68.3594 38.7285H63.8965L62.9297 42H60.4883L65.1172 27.7812H67.1973L71.748 42H69.3164L68.3594 38.7285ZM64.4922 36.7168H67.7832L66.1523 31.0918L64.4922 36.7168ZM78.125 40.3203C78.418 40.3203 78.6979 40.278 78.9648 40.1934C79.2383 40.1022 79.4792 39.9753 79.6875 39.8125C79.8893 39.6497 80.0488 39.4577 80.166 39.2363C80.2897 39.015 80.3516 38.7708 80.3516 38.5039H82.5488C82.5553 39.0182 82.4382 39.5033 82.1973 39.959C81.9629 40.4082 81.6439 40.7956 81.2402 41.1211C80.8301 41.4596 80.3581 41.7266 79.8242 41.9219C79.2969 42.1107 78.7402 42.2051 78.1543 42.2051C77.3405 42.2051 76.6276 42.0651 76.0156 41.7852C75.4102 41.4987 74.9056 41.1146 74.502 40.6328C74.0918 40.151 73.7826 39.5911 73.5742 38.9531C73.3659 38.3086 73.2617 37.6217 73.2617 36.8926V36.5508C73.2617 35.8281 73.3626 35.1445 73.5645 34.5C73.7728 33.8555 74.082 33.2923 74.4922 32.8105C74.9023 32.3288 75.4102 31.9479 76.0156 31.668C76.6276 31.3815 77.3372 31.2383 78.1445 31.2383C78.7826 31.2383 79.3717 31.3359 79.9121 31.5312C80.459 31.7266 80.9277 32 81.3184 32.3516C81.709 32.7031 82.0117 33.123 82.2266 33.6113C82.4479 34.0996 82.5553 34.6367 82.5488 35.2227H80.3516C80.3516 34.9362 80.2962 34.666 80.1855 34.4121C80.0814 34.1582 79.9316 33.9368 79.7363 33.748C79.5345 33.5592 79.2936 33.4095 79.0137 33.2988C78.7402 33.1882 78.444 33.1328 78.125 33.1328C77.6367 33.1328 77.2298 33.2337 76.9043 33.4355C76.5853 33.6309 76.3314 33.888 76.1426 34.207C75.9408 34.526 75.7975 34.8906 75.7129 35.3008C75.6348 35.7109 75.5957 36.1276 75.5957 36.5508V36.8926C75.5957 37.3223 75.6348 37.7454 75.7129 38.1621C75.7975 38.5723 75.9375 38.9336 76.1328 39.2461C76.3216 39.5716 76.5788 39.832 76.9043 40.0273C77.2298 40.2227 77.6367 40.3203 78.125 40.3203ZM92.2852 42C92.2135 41.8698 92.1549 41.7135 92.1094 41.5312C92.0703 41.3424 92.0345 41.1471 92.002 40.9453C91.8392 41.1146 91.6536 41.2773 91.4453 41.4336C91.2435 41.5833 91.0156 41.7135 90.7617 41.8242C90.5078 41.9414 90.2344 42.0326 89.9414 42.0977C89.6484 42.1628 89.3327 42.1953 88.9941 42.1953C88.4473 42.1953 87.946 42.1172 87.4902 41.9609C87.041 41.7982 86.6569 41.5768 86.3379 41.2969C86.0124 41.0234 85.7585 40.6947 85.5762 40.3105C85.4004 39.9199 85.3125 39.5 85.3125 39.0508C85.3125 38.4714 85.4264 37.9603 85.6543 37.5176C85.8887 37.0684 86.2272 36.6973 86.6699 36.4043C87.0801 36.1309 87.5846 35.9225 88.1836 35.7793C88.7891 35.6361 89.4727 35.5645 90.2344 35.5645H91.9336V34.8516C91.9336 34.5781 91.8848 34.3307 91.7871 34.1094C91.696 33.888 91.5625 33.696 91.3867 33.5332C91.1979 33.3704 90.9668 33.2467 90.6934 33.1621C90.4264 33.071 90.1172 33.0254 89.7656 33.0254C89.4466 33.0254 89.1667 33.0645 88.9258 33.1426C88.6914 33.2207 88.4961 33.3281 88.3398 33.4648C88.1836 33.5885 88.0664 33.7415 87.9883 33.9238C87.9167 34.0996 87.8809 34.2884 87.8809 34.4902H85.5371C85.5436 34.0671 85.6445 33.6602 85.8398 33.2695C86.0352 32.8789 86.3216 32.5339 86.6992 32.2344C87.0638 31.9284 87.513 31.6875 88.0469 31.5117C88.5872 31.3294 89.2025 31.2383 89.8926 31.2383C90.5111 31.2383 91.0872 31.3164 91.6211 31.4727C92.1615 31.6224 92.627 31.847 93.0176 32.1465C93.4082 32.446 93.7142 32.8268 93.9355 33.2891C94.1569 33.7448 94.2676 34.2721 94.2676 34.8711V39.5684C94.2676 40.0436 94.3001 40.4733 94.3652 40.8574C94.4368 41.235 94.5378 41.5605 94.668 41.834V42H92.2852ZM89.4434 40.3203C89.7493 40.3203 90.0326 40.2812 90.293 40.2031C90.5599 40.125 90.8008 40.0241 91.0156 39.9004C91.2305 39.7767 91.416 39.6367 91.5723 39.4805C91.7285 39.3242 91.849 39.1615 91.9336 38.9922V37.0391H90.4297C89.9219 37.0391 89.4824 37.0879 89.1113 37.1855C88.7402 37.2767 88.444 37.4102 88.2227 37.5859C88.0273 37.7357 87.8809 37.9147 87.7832 38.123C87.6921 38.3314 87.6465 38.5658 87.6465 38.8262C87.6465 39.041 87.6855 39.2428 87.7637 39.4316C87.8418 39.6139 87.9557 39.7702 88.1055 39.9004C88.2552 40.0306 88.4408 40.1348 88.6621 40.2129C88.8835 40.2845 89.1439 40.3203 89.4434 40.3203ZM97.2363 36.6387C97.2363 35.8379 97.3307 35.1087 97.5195 34.4512C97.7148 33.7871 97.9948 33.2174 98.3594 32.7422C98.7174 32.2669 99.1536 31.8991 99.668 31.6387C100.189 31.3717 100.775 31.2383 101.426 31.2383C102.012 31.2383 102.523 31.3424 102.959 31.5508C103.402 31.7526 103.792 32.0423 104.131 32.4199V27H106.465V42H104.346L104.238 40.8965C103.9 41.3132 103.496 41.6354 103.027 41.8633C102.559 42.0846 102.018 42.1953 101.406 42.1953C100.762 42.1953 100.182 42.0618 99.668 41.7949C99.1536 41.5215 98.7174 41.1439 98.3594 40.6621C98.0013 40.1868 97.7246 39.6237 97.5293 38.9727C97.334 38.3151 97.2363 37.6055 97.2363 36.8438V36.6387ZM99.5703 36.8438C99.5703 37.3125 99.6159 37.7552 99.707 38.1719C99.7982 38.5885 99.9414 38.9499 100.137 39.2559C100.332 39.5749 100.583 39.8255 100.889 40.0078C101.195 40.1836 101.562 40.2715 101.992 40.2715C102.52 40.2715 102.956 40.1576 103.301 39.9297C103.646 39.6953 103.923 39.3796 104.131 38.9824V34.4414C103.923 34.0508 103.646 33.7415 103.301 33.5137C102.962 33.2793 102.533 33.1621 102.012 33.1621C101.576 33.1621 101.201 33.2533 100.889 33.4355C100.583 33.6178 100.335 33.8685 100.146 34.1875C99.9447 34.5065 99.7982 34.8776 99.707 35.3008C99.6159 35.7174 99.5703 36.1634 99.5703 36.6387V36.8438ZM114.492 42.1953C113.711 42.1953 112.995 42.0651 112.344 41.8047C111.699 41.5443 111.146 41.1829 110.684 40.7207C110.221 40.265 109.863 39.7279 109.609 39.1094C109.362 38.4844 109.238 37.8105 109.238 37.0879V36.6875C109.238 35.8607 109.368 35.112 109.629 34.4414C109.889 33.7708 110.247 33.1979 110.703 32.7227C111.159 32.2474 111.686 31.8828 112.285 31.6289C112.891 31.3685 113.535 31.2383 114.219 31.2383C114.98 31.2383 115.654 31.3685 116.24 31.6289C116.826 31.8828 117.318 32.2376 117.715 32.6934C118.112 33.1556 118.411 33.7057 118.613 34.3438C118.815 34.9818 118.916 35.6784 118.916 36.4336V37.4395H111.592V37.4883C111.663 37.9505 111.774 38.3379 111.924 38.6504C112.074 38.9629 112.279 39.2428 112.539 39.4902C112.799 39.7507 113.105 39.9525 113.457 40.0957C113.815 40.2389 114.206 40.3105 114.629 40.3105C115.208 40.3105 115.749 40.1999 116.25 39.9785C116.751 39.7507 117.165 39.4284 117.49 39.0117L118.74 40.2227C118.389 40.7305 117.848 41.1862 117.119 41.5898C116.396 41.9935 115.521 42.1953 114.492 42.1953ZM114.209 33.1328C113.877 33.1328 113.568 33.1947 113.281 33.3184C113.001 33.4355 112.751 33.6048 112.529 33.8262C112.308 34.054 112.122 34.3275 111.973 34.6465C111.823 34.9655 111.712 35.3268 111.641 35.7305H116.611V35.5742C116.611 35.2682 116.556 34.9655 116.445 34.666C116.335 34.36 116.178 34.0931 115.977 33.8652C115.781 33.6439 115.534 33.4681 115.234 33.3379C114.941 33.2012 114.6 33.1328 114.209 33.1328ZM122.9 31.4336L122.969 32.5957C123.171 32.1725 123.447 31.8405 123.799 31.5996C124.157 31.3587 124.587 31.2383 125.088 31.2383C125.348 31.2383 125.583 31.2676 125.791 31.3262C125.999 31.3848 126.178 31.4759 126.328 31.5996C126.445 31.6908 126.549 31.8014 126.641 31.9316C126.732 32.0553 126.81 32.1986 126.875 32.3613C126.966 32.2116 127.07 32.0716 127.188 31.9414C127.305 31.8112 127.432 31.7005 127.568 31.6094C127.744 31.4922 127.939 31.401 128.154 31.3359C128.376 31.2708 128.617 31.2383 128.877 31.2383C129.215 31.2383 129.525 31.2969 129.805 31.4141C130.091 31.5247 130.339 31.6973 130.547 31.9316C130.755 32.179 130.915 32.5013 131.025 32.8984C131.143 33.2891 131.201 33.7611 131.201 34.3145V42H129.053V34.2949C129.053 34.0866 129.03 33.9108 128.984 33.7676C128.939 33.6178 128.874 33.4974 128.789 33.4062C128.704 33.3216 128.6 33.2598 128.477 33.2207C128.359 33.1816 128.229 33.1621 128.086 33.1621C127.936 33.1621 127.806 33.1816 127.695 33.2207C127.585 33.2598 127.487 33.3151 127.402 33.3867C127.324 33.4518 127.259 33.5299 127.207 33.6211C127.155 33.7057 127.116 33.8034 127.09 33.9141C127.09 33.9401 127.09 33.9727 127.09 34.0117C127.09 34.0443 127.09 34.0931 127.09 34.1582V42H124.98V34.2852C124.98 34.0768 124.958 33.901 124.912 33.7578C124.873 33.6081 124.811 33.4909 124.727 33.4062C124.642 33.3216 124.541 33.2598 124.424 33.2207C124.313 33.1816 124.186 33.1621 124.043 33.1621C123.887 33.1621 123.747 33.1849 123.623 33.2305C123.506 33.2695 123.405 33.3314 123.32 33.416C123.255 33.4746 123.197 33.543 123.145 33.6211C123.099 33.6992 123.057 33.7871 123.018 33.8848V42H120.869V31.4336H122.9ZM134.912 46.2676C134.684 46.2676 134.466 46.248 134.258 46.209C134.056 46.1764 133.861 46.1374 133.672 46.0918L133.994 44.2656C134.124 44.2721 134.271 44.2786 134.434 44.2852C134.603 44.2982 134.74 44.3047 134.844 44.3047C135.072 44.3047 135.277 44.2363 135.459 44.0996C135.641 43.9694 135.801 43.8197 135.938 43.6504C136.068 43.4811 136.172 43.3314 136.25 43.2012C136.335 43.071 136.413 42.9342 136.484 42.791L137.148 41.5312L132.646 31.4336H135.215L137.842 37.8887L138.203 39.0508L138.643 37.918L141.191 31.4336H143.779L138.418 43.6016C138.294 43.875 138.138 44.1647 137.949 44.4707C137.767 44.7832 137.536 45.0697 137.256 45.3301C136.976 45.597 136.644 45.8184 136.26 45.9941C135.876 46.1764 135.426 46.2676 134.912 46.2676Z" fill="url(#paint1_linear_2669_3178)"/>
<defs>
<linearGradient id="paint0_linear_2669_3178" x1="56" y1="0" x2="-1.99586" y2="2.84734" gradientUnits="userSpaceOnUse">
<stop stop-color="#FF863B"/>
<stop offset="1" stop-color="#FF2600"/>
</linearGradient>
<linearGradient id="paint1_linear_2669_3178" x1="145" y1="3" x2="57.3938" y2="10.461" gradientUnits="userSpaceOnUse">
<stop stop-color="#FF863B"/>
<stop offset="1" stop-color="#FF2600"/>
</linearGradient>
</defs>
</svg>
